<svg xmlns="http://www.w3.org/2000/svg" style="display: block; transform: scale(1,-1); background: white;" viewBox="0 0 7000 3000"><polyline points="0,1000 300,1500" style="fill:none;stroke:#000000;stroke-width:5"></polyline><polyline points="300,1500 350,1400" style="fill:none;stroke:#000000;stroke-width:5"></polyline><polyline points="350,1400 500,2100" style="fill:none;stroke:#000000;stroke-width:5"></polyline><polyline points="500,2100 1500,2100" style="fill:none;stroke:#000000;stroke-width:5"></polyline><polyline points="1500,2100 2000,200" style="fill:none;stroke:#000000;stroke-width:5"></polyline><polyline points="2000,200 2500,500" style="fill:none;stroke:#000000;stroke-width:5"></polyline><polyline points="2500,500 2900,300" style="fill:none;stroke:#000000;stroke-width:5"></polyline><polyline points="2900,300 3000,200" style="fill:none;stroke:#000000;stroke-width:5"></polyline><polyline points="3000,200 3200,1000" style="fill:none;stroke:#000000;stroke-width:5"></polyline><polyline points="3200,1000 3500,500" style="fill:none;stroke:#000000;stroke-width:5"></polyline><polyline points="3500,500 3800,800" style="fill:none;stroke:#000000;stroke-width:5"></polyline><polyline points="3800,800 4000,200" style="fill:none;stroke:#000000;stroke-width:5"></polyline><polyline points="4000,200 4200,800" style="fill:none;stroke:#000000;stroke-width:5"></polyline><polyline points="4200,800 4800,600" style="fill:none;stroke:#000000;stroke-width:5"></polyline><polyline points="4800,600 5000,1200" style="fill:none;stroke:#000000;stroke-width:5"></polyline><polyline points="5000,1200 5500,900" style="fill:none;stroke:#000000;stroke-width:5"></polyline><polyline points="5500,900 6000,500" style="fill:none;stroke:#000000;stroke-width:5"></polyline><polyline points="6000,500 6500,300" style="fill:none;stroke:#000000;stroke-width:5"></polyline><polyline points="6500,300 6999,500" style="fill:none;stroke:#000000;stroke-width:5"></polyline><polyline points="6500,2700 6449,2698 6397,2693 6343,2686 6288,2678 6230,2670 6171,2662 6110,2654 6047,2646 5983,2637 5916,2629 5848,2620 5779,2611 5709,2603 5636,2594 5562,2585 5486,2575 5407,2566 5327,2556 5245,2546 5161,2535 5076,2525 4989,2515 4900,2505 4809,2494 4717,2483 4623,2473 4528,2462 4432,2452 4335,2441 4235,2431 4134,2420 4031,2409 3927,2399 3821,2388 3713,2377 3605,2366 3495,2355 3383,2344 3270,2334 3156,2323 3039,2312 2921,2301 2802,2290 2681,2279 2558,2268 2433,2256 2307,2245 2179,2234 2050,2222 1919,2211 1786,2199 1653,2188 1518,2177 1382,2165 1244,2154 1105,2143 964,2131 822,2120 681,2109" style="fill:none;stroke:#FF0000;stroke-width:5"></polyline><polyline points="6500,2700 6449,2698 6397,2693 6343,2686 6288,2678 6230,2670 6171,2662 6110,2654 6047,2646 5983,2637 5916,2629 5848,2620 5779,2611 5709,2603 5636,2594 5562,2585 5486,2575 5407,2566 5327,2556 5245,2546 5161,2535 5076,2525 4988,2515 4900,2504 4809,2494 4717,2483 4623,2473 4527,2462 4430,2451 4332,2440 4231,2429 4129,2418 4025,2407 3920,2396 3813,2385 3704,2374 3595,2363 3484,2352 3371,2340 3257,2329 3142,2318 3025,2307 2906,2296 2785,2284 2663,2273 2539,2261 2413,2250 2286,2238 2157,2226 2027,2214 1895,2203 1762,2191 1627,2179 1491,2168 1354,2156 1215,2144 1074,2132 932,2120 789,2109" style="fill:none;stroke:#FF0000;stroke-width:5"></polyline><polyline points="6500,2700 6449,2698 6397,2693 6343,2686 6288,2678 6230,2670 6171,2662 6110,2654 6047,2646 5983,2637 5916,2629 5848,2620 5779,2611 5709,2603 5636,2594 5562,2585 5486,2575 5407,2566 5327,2556 5245,2546 5161,2535 5076,2525 4989,2515 4900,2505 4810,2494 4717,2484 4624,2473 4528,2462 4431,2452 4333,2441 4233,2430 4131,2419 4027,2408 3921,2397 3814,2386 3706,2375 3597,2364 3486,2353 3374,2342 3260,2331 3144,2319 3027,2308 2908,2297 2788,2286 2666,2274 2542,2263 2417,2251 2290,2240 2161,2228 2031,2216 1899,2204 1765,2193 1631,2181 1495,2169 1358,2158 1219,2146 1079,2134 938,2123 796,2112 654,2101" style="fill:none;stroke:#FF0000;stroke-width:5"></polyline><polyline points="6500,2700 6449,2698 6397,2693 6343,2686 6288,2678 6230,2670 6171,2662 6110,2654 6047,2646 5983,2637 5916,2629 5848,2620 5779,2611 5709,2603 5636,2594 5562,2585 5486,2575 5407,2566 5327,2556 5245,2546 5161,2535 5076,2525 4989,2515 4900,2505 4809,2494 4717,2484 4623,2473 4528,2462 4431,2451 4332,2441 4232,2430 4130,2419 4026,2408 3921,2397 3814,2386 3706,2375 3597,2363 3486,2352 3373,2341 3259,2330 3144,2319 3027,2308 2908,2297 2788,2285 2665,2274 2542,2263 2416,2251 2289,2239 2161,2228 2030,2216 1898,2204 1765,2193 1631,2181 1495,2169 1357,2158 1218,2146 1077,2134 935,2122 792,2110" style="fill:none;stroke:#FF0000;stroke-width:5"></polyline><polyline points="6500,2700 6449,2698 6397,2693 6343,2686 6288,2678 6230,2670 6171,2662 6110,2654 6047,2646 5983,2637 5917,2629 5849,2620 5779,2611 5709,2603 5637,2594 5562,2585 5486,2575 5408,2566 5328,2556 5246,2546 5162,2536 5076,2526 4989,2515 4901,2505 4810,2494 4718,2484 4624,2473 4529,2462 4432,2452 4333,2441 4233,2430 4131,2419 4027,2408 3921,2397 3814,2386 3706,2375 3597,2363 3486,2352 3373,2341 3259,2330 3144,2319 3027,2308 2908,2297 2787,2285 2665,2274 2541,2262 2416,2251 2289,2239 2160,2227 2030,2216 1898,2204 1764,2192 1630,2180 1494,2169 1356,2157 1217,2145 1076,2133 934,2121 791,2110" style="fill:none;stroke:#FF0000;stroke-width:5"></polyline><polyline points="6500,2700 6449,2698 6397,2693 6343,2686 6288,2678 6230,2670 6171,2662 6110,2654 6047,2646 5983,2637 5916,2629 5848,2620 5779,2611 5709,2603 5636,2594 5562,2585 5486,2575 5407,2566 5327,2556 5245,2546 5161,2535 5076,2525 4988,2515 4900,2504 4809,2494 4717,2483 4623,2473 4527,2462 4430,2451 4332,2440 4231,2430 4129,2419 4026,2407 3920,2396 3813,2385 3705,2374 3596,2363 3485,2352 3372,2341 3259,2330 3143,2319 3026,2308 2907,2296 2787,2285 2665,2274 2541,2262 2415,2250 2288,2239 2160,2227 2029,2215 1897,2204 1764,2192 1630,2180 1494,2169 1356,2157 1217,2145 1076,2133 934,2121 791,2110" style="fill:none;stroke:#FF0000;stroke-width:5"></polyline><polyline points="6500,2700 6449,2698 6397,2693 6343,2686 6288,2678 6230,2670 6171,2662 6110,2654 6047,2646 5983,2637 5916,2629 5848,2620 5779,2611 5709,2603 5636,2594 5562,2585 5486,2575 5407,2566 5327,2556 5245,2546 5161,2535 5076,2525 4988,2515 4900,2504 4809,2494 4717,2483 4623,2473 4528,2462 4431,2451 4332,2441 4232,2430 4130,2419 4026,2408 3920,2397 3813,2385 3705,2374 3596,2363 3485,2352 3372,2341 3259,2330 3143,2319 3026,2308 2907,2296 2786,2285 2663,2273 2538,2260 2412,2248 2283,2236 2154,2224 2022,2211 1890,2199 1755,2187 1620,2174 1483,2162 1344,2150 1204,2137 1062,2125 919,2112 775,2100" style="fill:none;stroke:#FF0000;stroke-width:5"></polyline><polyline points="6500,2700 6449,2698 6397,2693 6343,2686 6288,2678 6230,2670 6171,2662 6110,2654 6047,2646 5983,2637 5916,2629 5848,2620 5779,2611 5709,2603 5636,2594 5562,2585 5486,2575 5407,2566 5327,2556 5245,2546 5161,2535 5076,2525 4988,2515 4900,2504 4809,2494 4717,2483 4623,2473 4528,2462 4431,2451 4332,2440 4232,2430 4130,2419 4026,2408 3920,2396 3813,2385 3705,2374 3596,2363 3485,2352 3372,2341 3258,2330 3143,2319 3026,2307 2907,2296 2786,2285 2664,2273 2540,2262 2415,2250 2288,2239 2159,2227 2028,2215 1896,2203 1763,2192 1629,2180 1493,2168 1355,2157 1216,2145 1075,2133 933,2121 790,2109" style="fill:none;stroke:#FF0000;stroke-width:5"></polyline><polyline points="6500,2700 6449,2698 6397,2693 6343,2686 6288,2678 6230,2670 6171,2662 6110,2654 6047,2646 5983,2637 5916,2629 5848,2620 5779,2611 5709,2603 5636,2594 5562,2585 5486,2575 5407,2566 5327,2556 5245,2546 5161,2535 5076,2525 4988,2515 4900,2504 4809,2494 4717,2483 4623,2473 4527,2462 4430,2451 4332,2440 4231,2430 4129,2419 4026,2408 3920,2396 3813,2385 3705,2374 3596,2363 3485,2352 3372,2341 3258,2330 3143,2319 3025,2307 2907,2296 2786,2285 2664,2273 2540,2262 2414,2250 2287,2239 2159,2227 2028,2215 1896,2203 1763,2192 1629,2180 1493,2168 1355,2156 1216,2145 1075,2133 932,2121 789,2109" style="fill:none;stroke:#FF0000;stroke-width:5"></polyline><polyline points="6500,2700 6449,2698 6397,2693 6343,2686 6288,2678 6230,2670 6171,2662 6110,2654 6047,2646 5983,2637 5916,2629 5848,2620 5779,2611 5709,2603 5636,2594 5562,2585 5486,2575 5407,2566 5327,2556 5245,2546 5161,2535 5076,2525 4988,2515 4900,2504 4809,2494 4717,2483 4623,2473 4527,2462 4430,2451 4332,2440 4231,2429 4129,2418 4025,2407 3920,2396 3813,2385 3704,2374 3595,2363 3484,2352 3371,2340 3257,2329 3142,2318 3025,2307 2906,2296 2785,2284 2663,2273 2539,2261 2414,2250 2287,2238 2159,2227 2029,2215 1897,2204 1765,2192 1631,2181 1495,2169 1358,2158 1219,2146 1079,2134 937,2122 795,2111 652,2100" style="fill:none;stroke:#FF0000;stroke-width:5"></polyline><polyline points="6500,2700 6449,2698 6397,2693 6343,2686 6288,2678 6230,2670 6171,2662 6110,2654 6047,2646 5983,2637 5917,2629 5849,2620 5779,2611 5709,2603 5637,2594 5562,2585 5486,2576 5408,2566 5328,2556 5246,2546 5162,2536 5077,2526 4990,2516 4901,2505 4811,2495 4719,2484 4625,2474 4530,2463 4433,2453 4336,2442 4237,2432 4136,2421 4033,2411 3929,2400 3823,2389 3716,2378 3607,2368 3497,2357 3385,2346 3271,2335 3156,2324 3040,2313 2921,2302 2801,2291 2680,2280 2557,2269 2432,2257 2305,2246 2177,2235 2047,2223 1916,2212 1783,2200 1649,2189 1513,2177 1376,2166 1237,2154 1097,2142 955,2131 812,2119 669,2108" style="fill:none;stroke:#FF0000;stroke-width:5"></polyline><polyline points="6500,2700 6449,2698 6397,2693 6343,2686 6288,2678 6230,2670 6171,2662 6110,2654 6047,2646 5983,2637 5916,2629 5848,2620 5779,2611 5709,2603 5636,2594 5562,2585 5486,2575 5407,2566 5327,2556 5245,2546 5161,2535 5076,2525 4988,2515 4900,2504 4809,2494 4717,2483 4623,2473 4527,2462 4430,2451 4332,2440 4231,2429 4129,2418 4025,2407 3920,2396 3813,2385 3704,2374 3595,2363 3484,2352 3371,2340 3257,2329 3142,2318 3025,2307 2906,2296 2785,2284 2663,2273 2539,2261 2413,2250 2286,2238 2157,2226 2027,2215 1895,2203 1762,2191 1627,2179 1491,2168 1354,2156 1214,2144 1073,2132 931,2120 788,2108" style="fill:none;stroke:#FF0000;stroke-width:5"></polyline><polyline points="6500,2700 6449,2698 6397,2693 6343,2686 6288,2678 6230,2670 6171,2662 6110,2654 6047,2646 5983,2637 5916,2629 5848,2620 5779,2611 5709,2603 5636,2594 5562,2585 5486,2575 5408,2566 5327,2556 5245,2546 5162,2536 5076,2526 4989,2515 4900,2505 4810,2494 4718,2484 4624,2473 4528,2463 4431,2452 4333,2441 4233,2430 4131,2420 4028,2409 3922,2397 3815,2386 3707,2375 3598,2364 3486,2353 3373,2342 3259,2331 3143,2320 3026,2308 2907,2297 2786,2286 2663,2274 2539,2262 2413,2251 2286,2239 2157,2227 2026,2216 1893,2204 1760,2192 1625,2180 1489,2168 1351,2157 1211,2145 1069,2133 927,2121 783,2109" style="fill:none;stroke:#FF0000;stroke-width:5"></polyline><polyline points="6500,2700 6449,2698 6397,2693 6343,2686 6288,2678 6230,2670 6171,2662 6110,2654 6047,2646 5983,2637 5916,2629 5848,2620 5779,2611 5709,2603 5637,2594 5562,2585 5486,2576 5408,2566 5328,2556 5246,2546 5163,2536 5077,2526 4990,2516 4902,2506 4811,2495 4719,2485 4625,2474 4530,2464 4433,2453 4335,2442 4236,2432 4134,2421 4031,2410 3927,2399 3821,2388 3713,2378 3604,2367 3494,2356 3382,2345 3268,2334 3153,2323 3037,2312 2918,2301 2798,2290 2676,2279 2553,2267 2428,2256 2301,2245 2173,2233 2043,2222 1912,2210 1779,2198 1645,2187 1510,2176 1373,2164 1234,2152 1093,2141 952,2129 809,2117 667,2106" style="fill:none;stroke:#FF0000;stroke-width:5"></polyline><polyline points="6500,2700 6449,2698 6397,2693 6343,2686 6287,2678 6229,2670 6170,2661 6109,2653 6046,2644 5981,2636 5915,2627 5847,2618 5777,2609 5707,2601 5634,2592 5560,2582 5483,2573 5405,2563 5325,2553 5242,2543 5158,2533 5073,2522 4986,2512 4897,2501 4806,2491 4714,2480 4620,2469 4524,2458 4427,2447 4328,2436 4228,2426 4126,2414 4022,2403 3917,2392 3810,2381 3701,2369 3592,2358 3481,2347 3368,2336 3254,2325 3139,2313 3022,2302 2903,2291 2782,2279 2660,2268 2536,2256 2410,2244 2283,2233 2155,2221 2024,2209 1891,2196 1757,2184 1621,2172 1484,2159 1345,2147 1205,2134 1063,2122 920,2109" style="fill:none;stroke:#FF0000;stroke-width:5"></polyline><polyline points="6500,2700 6449,2698 6397,2693 6343,2686 6288,2678 6230,2670 6171,2662 6110,2654 6047,2646 5983,2637 5916,2629 5848,2620 5779,2611 5709,2603 5636,2594 5561,2584 5485,2575 5407,2566 5326,2556 5244,2545 5160,2535 5075,2525 4988,2515 4899,2504 4808,2494 4716,2483 4622,2472 4526,2462 4429,2451 4330,2440 4231,2429 4129,2419 4026,2408 3921,2397 3815,2386 3707,2375 3597,2363 3486,2352 3372,2341 3257,2329 3139,2317 3021,2305 2900,2293 2778,2280 2654,2268 2529,2256 2401,2243 2273,2231 2142,2219 2010,2206 1876,2193 1741,2181 1605,2168 1468,2156 1328,2143 1187,2130 1044,2117 900,2105" style="fill:none;stroke:#FF0000;stroke-width:5"></polyline><polyline points="6500,2700 6449,2698 6397,2693 6343,2686 6288,2678 6230,2670 6171,2662 6110,2654 6047,2646 5983,2637 5916,2629 5848,2620 5779,2611 5709,2603 5636,2594 5562,2585 5486,2575 5408,2566 5327,2556 5245,2546 5162,2536 5076,2526 4989,2515 4901,2505 4810,2495 4718,2484 4625,2474 4529,2463 4432,2452 4334,2442 4234,2431 4132,2420 4029,2409 3924,2398 3817,2387 3709,2376 3600,2365 3489,2354 3377,2343 3263,2332 3147,2321 3030,2310 2912,2299 2791,2288 2669,2276 2545,2265 2420,2254 2293,2242 2164,2230 2034,2219 1902,2207 1769,2196 1635,2184 1499,2172 1361,2161 1222,2149 1081,2137 939,2125 796,2114 652,2102" style="fill:none;stroke:#FF0000;stroke-width:5"></polyline><polyline points="6500,2700 6449,2698 6397,2693 6343,2686 6288,2678 6230,2670 6171,2662 6110,2654 6047,2646 5983,2637 5916,2629 5848,2620 5779,2611 5709,2603 5636,2594 5562,2585 5486,2575 5407,2566 5327,2556 5245,2546 5161,2535 5076,2525 4988,2515 4900,2504 4809,2494 4717,2483 4623,2473 4527,2462 4430,2451 4332,2440 4231,2429 4129,2418 4025,2407 3920,2396 3813,2385 3704,2374 3595,2363 3484,2352 3371,2340 3257,2329 3142,2318 3025,2307 2906,2296 2785,2284 2663,2273 2539,2261 2413,2250 2286,2238 2157,2226 2027,2214 1895,2203 1761,2191 1625,2178 1488,2166 1349,2154 1208,2142 1066,2129 922,2117 778,2105" style="fill:none;stroke:#FF0000;stroke-width:5"></polyline><polyline points="6500,2700 6449,2698 6397,2693 6343,2686 6288,2678 6230,2670 6171,2662 6110,2654 6047,2646 5983,2637 5916,2629 5848,2620 5779,2611 5708,2603 5636,2594 5561,2584 5485,2575 5407,2565 5326,2555 5244,2545 5160,2535 5074,2524 4986,2513 4896,2502 4805,2491 4712,2480 4617,2469 4521,2458 4423,2446 4323,2435 4223,2424 4121,2412 4017,2401 3911,2390 3804,2378 3695,2366 3585,2355 3472,2343 3359,2331 3243,2319 3127,2307 3008,2296 2888,2284 2766,2272 2643,2259 2518,2247 2391,2235 2263,2223 2133,2210 2001,2198 1868,2185 1733,2173 1597,2160 1460,2148 1321,2135 1180,2123 1038,2110" style="fill:none;stroke:#FF0000;stroke-width:5"></polyline><polyline points="6500,2700 6449,2698 6397,2693 6343,2686 6288,2678 6230,2670 6172,2662 6111,2654 6049,2646 5986,2638 5920,2630 5853,2622 5784,2613 5715,2605 5643,2596 5569,2587 5494,2578 5416,2569 5336,2559 5255,2550 5172,2540 5087,2530 5000,2520 4912,2509 4822,2499 4730,2489 4637,2478 4542,2468 4446,2457 4348,2447 4249,2437 4148,2426 4046,2415 3941,2405 3835,2394 3728,2383 3619,2372 3508,2361 3395,2350 3282,2339 3166,2328 3049,2316 2930,2305 2810,2294 2688,2282 2564,2271 2438,2259 2311,2248 2183,2236 2052,2224 1920,2213 1787,2201 1652,2189 1516,2177 1378,2166 1238,2154 1097,2142 954,2130 811,2118 667,2106" style="fill:none;stroke:#FF0000;stroke-width:5"></polyline><polyline points="6500,2700 6449,2698 6397,2693 6343,2686 6288,2678 6230,2670 6171,2662 6110,2654 6047,2646 5983,2637 5917,2629 5849,2620 5780,2612 5709,2603 5637,2594 5563,2585 5487,2576 5409,2566 5328,2556 5246,2546 5163,2536 5077,2526 4990,2516 4902,2505 4811,2495 4719,2484 4625,2474 4530,2463 4433,2453 4335,2442 4235,2431 4134,2421 4031,2410 3926,2399 3820,2388 3712,2377 3603,2366 3491,2355 3379,2343 3265,2332 3149,2321 3032,2310 2912,2298 2792,2287 2669,2276 2545,2264 2420,2252 2292,2241 2163,2229 2033,2217 1900,2205 1767,2194 1632,2182 1496,2170 1358,2158 1219,2146 1077,2134 935,2122 791,2110" style="fill:none;stroke:#FF0000;stroke-width:5"></polyline><polyline points="6500,2700 6449,2698 6397,2693 6343,2686 6288,2678 6230,2670 6171,2662 6110,2654 6047,2646 5983,2637 5917,2629 5849,2620 5779,2611 5709,2603 5637,2594 5562,2585 5486,2576 5408,2566 5328,2556 5246,2546 5162,2536 5077,2526 4990,2516 4901,2505 4811,2495 4719,2484 4625,2474 4530,2463 4433,2453 4336,2442 4237,2432 4136,2421 4033,2411 3929,2400 3823,2389 3716,2378 3607,2368 3497,2357 3385,2346 3271,2335 3156,2324 3040,2313 2921,2302 2801,2291 2680,2280 2557,2269 2432,2257 2305,2246 2177,2235 2047,2223 1916,2212 1783,2200 1649,2189 1513,2177 1376,2166 1237,2154 1097,2142 955,2131 812,2119 669,2108" style="fill:none;stroke:#FF0000;stroke-width:5"></polyline><polyline points="6500,2700 6449,2698 6397,2693 6343,2686 6288,2678 6230,2670 6171,2662 6110,2654 6047,2646 5983,2637 5916,2629 5848,2620 5779,2611 5709,2603 5636,2594 5562,2585 5486,2575 5408,2566 5327,2556 5245,2546 5162,2536 5076,2526 4989,2515 4900,2505 4810,2494 4718,2484 4624,2473 4528,2463 4431,2452 4333,2441 4234,2431 4132,2420 4029,2409 3924,2398 3818,2387 3711,2376 3602,2365 3491,2354 3379,2343 3266,2332 3151,2321 3034,2310 2916,2299 2796,2288 2674,2277 2551,2265 2426,2254 2299,2243 2171,2231 2041,2219 1909,2208 1777,2196 1643,2185 1507,2173 1370,2162 1231,2150 1091,2138 949,2126 806,2115 664,2104" style="fill:none;stroke:#FF0000;stroke-width:5"></polyline><polyline points="6500,2700 6449,2698 6397,2693 6343,2686 6288,2678 6230,2670 6171,2662 6110,2654 6047,2646 5983,2637 5917,2629 5849,2620 5780,2612 5709,2603 5637,2594 5563,2585 5487,2576 5409,2566 5328,2556 5246,2546 5163,2536 5077,2526 4990,2516 4902,2505 4811,2495 4719,2484 4625,2474 4530,2463 4433,2453 4335,2442 4235,2431 4134,2421 4031,2410 3926,2399 3820,2388 3712,2377 3603,2366 3491,2355 3379,2343 3265,2332 3149,2321 3032,2310 2912,2298 2792,2287 2669,2276 2545,2264 2420,2252 2292,2241 2163,2229 2033,2217 1900,2205 1767,2194 1632,2182 1496,2170 1358,2158 1219,2146 1077,2134 935,2122 791,2110" style="fill:none;stroke:#FF0000;stroke-width:5"></polyline><polyline points="6500,2700 6449,2698 6397,2693 6343,2686 6288,2678 6230,2670 6171,2662 6110,2654 6047,2646 5983,2637 5916,2629 5848,2620 5779,2611 5709,2603 5636,2594 5562,2585 5486,2575 5408,2566 5327,2556 5245,2546 5162,2536 5076,2526 4989,2515 4900,2505 4810,2494 4718,2484 4624,2473 4528,2463 4431,2452 4333,2441 4233,2430 4131,2420 4028,2409 3922,2397 3815,2386 3707,2375 3598,2364 3486,2353 3373,2342 3259,2331 3143,2320 3026,2308 2907,2297 2786,2286 2663,2274 2539,2262 2413,2251 2286,2239 2157,2227 2026,2216 1893,2204 1760,2192 1625,2180 1489,2168 1351,2157 1211,2145 1069,2133 927,2121 783,2109" style="fill:none;stroke:#FF0000;stroke-width:5"></polyline><polyline points="6500,2700 6449,2698 6397,2693 6343,2686 6288,2678 6230,2670 6171,2662 6110,2654 6047,2646 5983,2637 5917,2629 5849,2620 5780,2612 5710,2603 5637,2594 5563,2585 5487,2576 5409,2566 5329,2557 5247,2547 5163,2537 5078,2526 4991,2516 4902,2506 4812,2495 4720,2485 4626,2474 4531,2464 4434,2453 4335,2442 4236,2432 4134,2421 4031,2410 3927,2400 3821,2389 3713,2378 3604,2367 3493,2356 3380,2345 3266,2334 3150,2323 3033,2311 2914,2300 2793,2289 2671,2277 2547,2266 2421,2254 2294,2243 2165,2231 2034,2220 1902,2208 1769,2196 1634,2184 1498,2173 1360,2161 1220,2149 1079,2137 936,2125 792,2113 647,2102" style="fill:none;stroke:#FF0000;stroke-width:5"></polyline><polyline points="6500,2700 6449,2698 6397,2693 6343,2686 6288,2678 6230,2670 6171,2662 6110,2654 6047,2646 5983,2637 5916,2629 5848,2620 5779,2611 5709,2603 5636,2594 5561,2584 5485,2575 5407,2566 5326,2556 5244,2545 5160,2535 5075,2525 4988,2515 4899,2504 4808,2494 4716,2483 4622,2472 4526,2462 4429,2451 4330,2440 4231,2429 4129,2419 4026,2408 3921,2397 3815,2386 3707,2375 3597,2363 3486,2352 3372,2341 3257,2329 3139,2317 3021,2305 2900,2293 2778,2280 2654,2268 2529,2256 2401,2243 2273,2231 2142,2219 2010,2206 1876,2193 1741,2181 1605,2168 1468,2156 1328,2143 1187,2130 1044,2117 900,2105" style="fill:none;stroke:#FF0000;stroke-width:5"></polyline><polyline points="6500,2700 6449,2698 6397,2693 6343,2686 6288,2678 6230,2670 6171,2662 6110,2654 6047,2646 5983,2637 5916,2629 5848,2620 5779,2611 5709,2603 5636,2594 5562,2585 5486,2575 5408,2566 5327,2556 5245,2546 5162,2536 5076,2526 4989,2515 4901,2505 4810,2495 4718,2484 4625,2474 4529,2463 4432,2452 4334,2442 4234,2431 4132,2420 4029,2409 3924,2398 3817,2387 3709,2376 3600,2365 3489,2354 3377,2343 3263,2332 3147,2321 3030,2310 2912,2299 2791,2288 2669,2276 2545,2265 2420,2254 2293,2242 2164,2230 2034,2219 1902,2207 1769,2196 1635,2184 1499,2172 1361,2161 1222,2149 1081,2137 939,2125 796,2114 652,2102" style="fill:none;stroke:#FF0000;stroke-width:5"></polyline><polyline points="6500,2700 6449,2698 6397,2693 6343,2686 6288,2678 6230,2670 6171,2662 6110,2654 6047,2646 5983,2637 5916,2629 5848,2620 5779,2611 5709,2603 5636,2594 5562,2585 5486,2575 5407,2566 5327,2556 5245,2546 5161,2535 5076,2525 4988,2515 4900,2504 4809,2494 4717,2483 4623,2473 4527,2462 4430,2451 4332,2440 4231,2429 4129,2418 4025,2407 3920,2396 3813,2385 3704,2374 3595,2363 3484,2352 3371,2340 3257,2329 3142,2318 3025,2307 2906,2296 2785,2284 2663,2273 2539,2261 2413,2250 2286,2238 2157,2226 2027,2215 1895,2203 1762,2191 1627,2179 1491,2168 1354,2156 1214,2144 1073,2132 931,2120 788,2108" style="fill:none;stroke:#FF0000;stroke-width:5"></polyline><polyline points="6500,2700 6449,2698 6397,2693 6343,2686 6288,2678 6230,2670 6171,2662 6110,2654 6047,2646 5983,2637 5916,2629 5848,2620 5779,2611 5709,2603 5636,2594 5562,2585 5486,2575 5408,2566 5327,2556 5245,2546 5162,2536 5076,2526 4989,2515 4901,2505 4810,2495 4718,2484 4624,2474 4529,2463 4432,2452 4334,2441 4234,2431 4133,2420 4029,2409 3925,2398 3818,2387 3710,2376 3601,2365 3489,2354 3377,2343 3263,2332 3147,2321 3030,2310 2910,2298 2790,2287 2667,2276 2543,2264 2417,2252 2290,2241 2161,2229 2031,2217 1898,2206 1765,2194 1630,2182 1494,2170 1356,2159 1217,2147 1076,2135 933,2123 789,2111 646,2100" style="fill:none;stroke:#FF0000;stroke-width:5"></polyline><polyline points="6500,2700 6449,2698 6397,2693 6343,2686 6288,2678 6230,2670 6171,2662 6110,2654 6047,2646 5983,2637 5916,2629 5848,2620 5779,2611 5709,2603 5636,2594 5562,2585 5486,2575 5407,2566 5327,2556 5245,2546 5161,2535 5076,2525 4988,2515 4900,2504 4809,2494 4717,2483 4623,2473 4527,2462 4430,2451 4332,2440 4231,2429 4129,2418 4025,2407 3920,2396 3813,2385 3704,2374 3595,2363 3484,2352 3371,2340 3257,2329 3142,2318 3025,2307 2906,2296 2785,2284 2663,2273 2539,2261 2413,2250 2286,2238 2157,2226 2027,2215 1895,2203 1762,2191 1627,2179 1491,2168 1354,2156 1214,2144 1073,2132 931,2120 788,2108" style="fill:none;stroke:#FF0000;stroke-width:5"></polyline><polyline points="6500,2700 6449,2698 6397,2693 6343,2686 6288,2678 6230,2670 6171,2662 6110,2654 6047,2646 5983,2637 5916,2629 5848,2620 5779,2611 5709,2603 5636,2594 5562,2585 5486,2575 5407,2566 5327,2556 5245,2546 5161,2535 5076,2525 4988,2515 4900,2504 4809,2494 4717,2483 4623,2473 4527,2462 4430,2451 4332,2440 4231,2429 4129,2418 4025,2407 3920,2396 3813,2385 3704,2374 3595,2363 3484,2352 3371,2340 3257,2329 3142,2318 3025,2307 2906,2296 2785,2284 2663,2273 2539,2261 2413,2250 2286,2238 2157,2226 2027,2215 1895,2203 1762,2191 1627,2179 1491,2168 1354,2156 1214,2144 1073,2132 931,2120 788,2108" style="fill:none;stroke:#FF0000;stroke-width:5"></polyline><polyline points="6500,2700 6449,2698 6397,2693 6343,2686 6288,2678 6230,2670 6171,2662 6110,2654 6047,2646 5983,2637 5916,2629 5848,2620 5779,2611 5709,2603 5636,2594 5561,2584 5485,2575 5407,2566 5326,2556 5244,2545 5160,2535 5075,2525 4988,2515 4899,2504 4808,2494 4716,2483 4622,2472 4526,2462 4429,2451 4330,2440 4231,2429 4129,2419 4026,2408 3921,2397 3815,2386 3707,2375 3597,2363 3486,2352 3372,2341 3257,2329 3139,2317 3021,2305 2900,2293 2778,2280 2654,2268 2529,2256 2401,2243 2273,2231 2142,2219 2010,2206 1876,2193 1741,2181 1605,2168 1468,2156 1328,2143 1187,2130 1044,2117 900,2105" style="fill:none;stroke:#FF0000;stroke-width:5"></polyline><polyline points="6500,2700 6449,2698 6397,2693 6343,2686 6288,2678 6230,2670 6171,2662 6110,2654 6047,2646 5983,2637 5916,2629 5848,2620 5779,2611 5708,2603 5636,2594 5561,2584 5485,2575 5407,2565 5327,2555 5245,2545 5161,2535 5076,2525 4989,2515 4900,2505 4810,2494 4718,2484 4624,2473 4529,2462 4432,2452 4333,2441 4234,2431 4133,2420 4030,2409 3926,2398 3819,2387 3712,2376 3604,2366 3494,2355 3382,2344 3269,2333 3155,2323 3038,2312 2920,2301 2801,2290 2679,2278 2556,2267 2432,2256 2306,2245 2178,2233 2049,2222 1918,2210 1785,2199 1652,2188 1517,2176 1380,2165 1242,2153 1102,2142 961,2130 819,2119 677,2108" style="fill:none;stroke:#FF0000;stroke-width:5"></polyline><polyline points="6500,2700 6449,2698 6397,2693 6343,2686 6288,2678 6230,2670 6171,2662 6110,2654 6047,2646 5983,2637 5917,2629 5849,2620 5780,2612 5709,2603 5637,2594 5563,2585 5487,2576 5408,2566 5328,2556 5246,2546 5163,2536 5077,2526 4990,2516 4901,2505 4811,2495 4719,2484 4625,2474 4530,2463 4433,2452 4334,2442 4235,2431 4133,2420 4030,2410 3925,2399 3819,2388 3711,2377 3603,2366 3492,2355 3380,2344 3267,2333 3152,2322 3035,2311 2917,2300 2796,2289 2675,2278 2551,2267 2426,2255 2300,2244 2172,2232 2042,2221 1910,2209 1778,2198 1644,2186 1508,2175 1371,2163 1232,2152 1092,2140 950,2128 807,2117 665,2106" style="fill:none;stroke:#FF0000;stroke-width:5"></polyline><polyline points="6500,2700 6449,2698 6397,2693 6343,2686 6288,2678 6230,2670 6171,2662 6110,2654 6047,2646 5983,2637 5917,2629 5849,2620 5780,2612 5710,2603 5637,2594 5563,2585 5487,2576 5409,2566 5329,2556 5247,2546 5163,2536 5078,2526 4991,2516 4901,2505 4810,2494 4718,2484 4624,2473 4528,2462 4430,2451 4331,2440 4230,2429 4128,2417 4024,2406 3918,2395 3811,2383 3702,2372 3591,2360 3479,2349 3365,2337 3250,2325 3133,2314 3014,2302 2894,2290 2772,2278 2649,2266 2523,2254 2397,2242 2268,2230 2138,2218 2006,2206 1873,2193 1739,2181 1603,2169 1465,2157 1326,2144 1186,2132 1043,2120 899,2107" style="fill:none;stroke:#FF0000;stroke-width:5"></polyline><polyline points="6500,2700 6449,2698 6397,2693 6343,2686 6288,2678 6230,2670 6171,2662 6110,2654 6047,2646 5983,2637 5917,2629 5849,2620 5779,2611 5709,2603 5637,2594 5562,2585 5486,2576 5408,2566 5328,2556 5246,2546 5163,2536 5078,2526 4991,2516 4902,2506 4812,2496 4720,2485 4626,2475 4531,2464 4434,2453 4336,2443 4237,2432 4136,2422 4033,2411 3929,2400 3822,2389 3715,2378 3605,2367 3494,2356 3382,2345 3267,2334 3152,2323 3034,2312 2915,2300 2795,2289 2672,2277 2548,2266 2423,2254 2295,2243 2166,2231 2036,2219 1904,2207 1770,2195 1635,2184 1499,2172 1361,2160 1221,2148 1080,2136 937,2124 794,2112 650,2101" style="fill:none;stroke:#FF0000;stroke-width:5"></polyline><polyline points="6500,2700 6449,2698 6397,2693 6343,2686 6288,2678 6230,2670 6171,2662 6110,2654 6047,2646 5983,2637 5916,2629 5848,2620 5779,2611 5709,2603 5636,2594 5562,2585 5486,2575 5407,2566 5327,2556 5245,2546 5161,2535 5076,2525 4989,2515 4900,2505 4809,2494 4717,2484 4623,2473 4528,2462 4431,2451 4332,2441 4232,2430 4130,2419 4026,2408 3921,2397 3814,2386 3706,2375 3597,2363 3486,2352 3373,2341 3259,2330 3144,2319 3027,2308 2908,2297 2788,2285 2665,2274 2542,2263 2416,2251 2289,2239 2161,2228 2030,2216 1898,2204 1765,2193 1631,2181 1495,2169 1357,2158 1218,2146 1077,2134 935,2122 792,2110" style="fill:none;stroke:#FF0000;stroke-width:5"></polyline><polyline points="6500,2700 6449,2698 6397,2693 6343,2686 6288,2678 6230,2670 6171,2662 6110,2654 6047,2646 5983,2637 5917,2629 5849,2620 5779,2611 5708,2603 5635,2594 5560,2584 5484,2575 5405,2565 5324,2555 5242,2545 5158,2535 5072,2525 4984,2514 4895,2504 4804,2494 4713,2483 4619,2473 4525,2462 4428,2452 4330,2441 4230,2431 4129,2420 4026,2409 3921,2399 3815,2388 3708,2377 3599,2366 3488,2355 3376,2344 3262,2333 3147,2322 3030,2311 2911,2300 2791,2289 2669,2277 2545,2266 2419,2254 2292,2243 2164,2231 2034,2220 1902,2208 1769,2196 1634,2185 1498,2173 1360,2161 1221,2150 1079,2138 937,2126 794,2114 652,2103" style="fill:none;stroke:#FF0000;stroke-width:5"></polyline><polyline points="6500,2700 6449,2698 6397,2693 6343,2686 6288,2678 6230,2670 6171,2662 6110,2654 6047,2646 5983,2637 5917,2629 5849,2620 5779,2611 5709,2603 5637,2594 5562,2585 5486,2576 5408,2566 5327,2556 5245,2546 5161,2536 5075,2525 4987,2515 4898,2504 4807,2493 4714,2482 4620,2472 4524,2461 4426,2449 4327,2439 4227,2428 4125,2417 4021,2405 3916,2394 3809,2383 3700,2371 3590,2360 3478,2348 3364,2337 3250,2325 3133,2314 3015,2302 2895,2290 2773,2279 2650,2267 2525,2255 2399,2243 2270,2231 2141,2219 2009,2206 1876,2194 1742,2182 1606,2170 1469,2157 1330,2145 1189,2133 1047,2120 904,2108" style="fill:none;stroke:#FF0000;stroke-width:5"></polyline><polyline points="6500,2700 6449,2698 6397,2693 6343,2686 6288,2678 6230,2670 6171,2662 6110,2654 6047,2646 5983,2637 5916,2629 5848,2620 5779,2611 5709,2603 5636,2594 5562,2585 5486,2575 5407,2566 5327,2556 5245,2546 5161,2535 5076,2525 4989,2515 4900,2505 4809,2494 4717,2484 4623,2473 4528,2462 4431,2451 4332,2441 4232,2430 4130,2419 4026,2408 3921,2397 3814,2386 3706,2375 3597,2363 3486,2352 3373,2341 3259,2330 3144,2319 3027,2308 2908,2297 2788,2285 2665,2274 2542,2263 2416,2251 2289,2239 2161,2228 2030,2216 1898,2204 1765,2193 1631,2181 1495,2169 1357,2158 1218,2146 1077,2134 935,2122 792,2110" style="fill:none;stroke:#FF0000;stroke-width:5"></polyline><polyline points="6500,2700 6449,2698 6397,2693 6343,2686 6288,2678 6230,2670 6171,2662 6110,2654 6047,2646 5983,2637 5916,2629 5848,2620 5779,2611 5709,2603 5636,2594 5562,2585 5486,2575 5407,2566 5327,2556 5245,2546 5161,2535 5076,2525 4989,2515 4900,2505 4809,2494 4717,2484 4624,2473 4528,2462 4431,2452 4333,2441 4232,2430 4130,2419 4027,2408 3921,2397 3814,2386 3706,2375 3597,2364 3486,2353 3374,2342 3260,2331 3145,2319 3028,2308 2909,2297 2788,2286 2666,2274 2543,2263 2417,2251 2290,2240 2162,2228 2031,2217 1900,2205 1767,2193 1632,2182 1496,2170 1359,2158 1220,2146 1079,2135 937,2123 794,2111 651,2100" style="fill:none;stroke:#FF0000;stroke-width:5"></polyline><polyline points="6500,2700 6449,2698 6397,2693 6343,2686 6288,2678 6230,2670 6171,2662 6110,2654 6047,2646 5983,2637 5917,2629 5849,2620 5779,2611 5709,2603 5637,2594 5562,2585 5486,2576 5408,2567 5328,2557 5246,2547 5163,2537 5078,2527 4991,2517 4902,2506 4812,2496 4720,2486 4626,2475 4531,2465 4434,2454 4336,2444 4236,2433 4135,2422 4032,2412 3927,2401 3821,2390 3713,2379 3603,2368 3493,2357 3380,2346 3266,2335 3151,2324 3034,2313 2915,2302 2794,2291 2672,2280 2548,2268 2423,2257 2295,2245 2167,2234 2036,2222 1904,2210 1771,2199 1635,2187 1499,2175 1360,2163 1220,2151 1078,2139 935,2127 792,2116 648,2104" style="fill:none;stroke:#FF0000;stroke-width:5"></polyline><polyline points="6500,2700 6449,2698 6397,2693 6343,2686 6288,2678 6230,2670 6171,2662 6110,2654 6047,2646 5983,2637 5916,2629 5848,2620 5779,2611 5709,2603 5636,2594 5562,2585 5486,2575 5407,2566 5327,2556 5245,2546 5161,2535 5076,2525 4989,2515 4900,2505 4809,2494 4717,2484 4623,2473 4528,2462 4431,2451 4332,2441 4232,2430 4130,2419 4026,2408 3921,2397 3814,2386 3706,2375 3597,2363 3486,2352 3373,2341 3259,2330 3144,2319 3027,2308 2908,2297 2788,2285 2665,2274 2542,2263 2416,2251 2289,2239 2161,2228 2030,2216 1898,2204 1765,2193 1631,2181 1495,2169 1357,2158 1218,2146 1077,2134 935,2122 792,2110" style="fill:none;stroke:#FF0000;stroke-width:5"></polyline><polyline points="6500,2700 6449,2698 6397,2693 6343,2686 6288,2678 6230,2670 6171,2662 6110,2654 6047,2646 5983,2637 5916,2629 5848,2620 5779,2611 5709,2603 5636,2594 5562,2585 5486,2575 5407,2566 5327,2556 5245,2546 5161,2535 5076,2525 4989,2515 4900,2505 4809,2494 4717,2484 4623,2473 4528,2462 4431,2451 4332,2441 4232,2430 4130,2419 4026,2408 3921,2397 3814,2386 3706,2375 3597,2363 3486,2352 3373,2341 3259,2330 3144,2319 3027,2308 2908,2297 2788,2285 2665,2274 2542,2263 2416,2251 2289,2239 2161,2228 2030,2216 1898,2204 1765,2193 1631,2181 1495,2169 1357,2158 1218,2146 1077,2134 935,2122 792,2110" style="fill:none;stroke:#FF0000;stroke-width:5"></polyline><polyline points="6500,2700 6449,2698 6397,2693 6343,2686 6288,2678 6230,2670 6171,2662 6110,2654 6047,2646 5983,2637 5916,2629 5848,2620 5779,2611 5709,2603 5636,2594 5562,2585 5486,2575 5407,2566 5327,2556 5245,2546 5161,2535 5076,2525 4989,2515 4900,2505 4809,2494 4717,2483 4623,2473 4528,2462 4432,2452 4335,2441 4235,2431 4134,2420 4031,2409 3927,2399 3821,2388 3713,2377 3605,2366 3495,2355 3383,2344 3270,2334 3156,2323 3039,2312 2921,2301 2802,2290 2681,2279 2558,2268 2433,2256 2307,2245 2179,2234 2050,2222 1919,2211 1786,2199 1653,2188 1518,2177 1382,2165 1244,2154 1105,2143 964,2131 822,2120 681,2109" style="fill:none;stroke:#FF0000;stroke-width:5"></polyline><polyline points="6500,2700 6449,2698 6397,2693 6343,2686 6288,2678 6230,2670 6171,2662 6110,2654 6047,2646 5983,2637 5916,2629 5848,2620 5779,2611 5709,2603 5636,2594 5562,2585 5486,2575 5407,2566 5327,2556 5245,2546 5161,2535 5076,2525 4989,2515 4900,2505 4809,2494 4717,2483 4623,2473 4528,2462 4432,2452 4335,2441 4235,2431 4134,2420 4031,2409 3927,2399 3821,2388 3713,2377 3605,2366 3495,2355 3383,2344 3270,2334 3156,2323 3039,2312 2921,2301 2802,2290 2681,2279 2558,2268 2433,2256 2307,2245 2179,2234 2050,2222 1919,2211 1786,2199 1653,2188 1518,2177 1382,2165 1244,2154 1105,2143 964,2131 822,2120 681,2109" style="fill:none;stroke:#FF0000;stroke-width:5"></polyline><polyline points="6500,2700 6449,2698 6397,2693 6343,2686 6288,2678 6230,2670 6171,2662 6110,2654 6047,2646 5983,2637 5916,2629 5848,2620 5779,2611 5709,2603 5636,2594 5562,2585 5486,2575 5407,2566 5327,2556 5245,2546 5161,2535 5076,2525 4989,2515 4900,2505 4809,2494 4717,2483 4623,2473 4528,2462 4432,2452 4335,2441 4235,2431 4134,2420 4031,2409 3927,2399 3821,2388 3713,2377 3605,2366 3495,2355 3383,2344 3270,2334 3156,2323 3039,2312 2921,2301 2802,2290 2681,2279 2558,2268 2433,2256 2307,2245 2179,2234 2050,2222 1919,2211 1786,2199 1653,2188 1518,2177 1382,2165 1244,2154 1105,2143 964,2131 822,2120 681,2109" style="fill:none;stroke:#FF0000;stroke-width:5"></polyline><polyline points="6500,2700 6449,2698 6397,2693 6343,2686 6288,2678 6230,2670 6171,2662 6110,2654 6047,2646 5983,2637 5916,2629 5848,2620 5779,2611 5709,2603 5636,2594 5562,2585 5486,2575 5407,2566 5327,2556 5245,2546 5161,2535 5076,2525 4989,2515 4900,2505 4809,2494 4717,2483 4623,2473 4528,2462 4432,2452 4335,2441 4235,2431 4134,2420 4031,2409 3927,2399 3821,2388 3713,2377 3605,2366 3495,2355 3383,2344 3270,2334 3156,2323 3039,2312 2921,2301 2802,2290 2681,2279 2558,2268 2433,2256 2307,2245 2179,2234 2050,2222 1919,2211 1786,2199 1653,2188 1518,2177 1382,2165 1244,2154 1105,2143 964,2131 822,2120 681,2109" style="fill:none;stroke:#FF0000;stroke-width:5"></polyline><polyline points="6500,2700 6449,2698 6397,2693 6343,2686 6288,2678 6230,2670 6171,2662 6110,2654 6047,2646 5983,2637 5916,2629 5848,2620 5779,2611 5709,2603 5636,2594 5562,2585 5486,2575 5407,2566 5327,2556 5245,2546 5161,2535 5076,2525 4989,2515 4900,2505 4809,2494 4717,2483 4623,2473 4528,2462 4432,2452 4335,2441 4235,2431 4134,2420 4031,2409 3927,2399 3821,2388 3713,2377 3605,2366 3495,2355 3383,2344 3270,2334 3156,2323 3039,2312 2921,2301 2802,2290 2681,2279 2558,2268 2433,2256 2307,2245 2179,2234 2050,2222 1919,2211 1786,2199 1653,2188 1518,2177 1382,2165 1244,2154 1105,2143 964,2131 822,2120 681,2109" style="fill:none;stroke:#FF0000;stroke-width:5"></polyline><polyline points="6500,2700 6449,2698 6397,2693 6343,2686 6288,2678 6230,2670 6171,2662 6110,2654 6047,2646 5983,2637 5916,2629 5848,2620 5779,2611 5709,2603 5636,2594 5562,2585 5486,2575 5407,2566 5327,2556 5245,2546 5161,2535 5076,2525 4989,2515 4900,2505 4809,2494 4717,2483 4623,2473 4528,2462 4432,2452 4335,2441 4235,2431 4134,2420 4031,2409 3927,2399 3821,2388 3713,2377 3605,2366 3495,2355 3383,2344 3270,2334 3156,2323 3039,2312 2921,2301 2802,2290 2681,2279 2558,2268 2433,2256 2307,2245 2179,2234 2050,2222 1919,2211 1786,2199 1653,2188 1518,2177 1382,2165 1244,2154 1105,2143 964,2131 822,2120 681,2109" style="fill:none;stroke:#FF0000;stroke-width:5"></polyline><polyline points="6500,2700 6449,2698 6397,2693 6343,2686 6288,2678 6230,2670 6172,2662 6111,2654 6049,2646 5986,2638 5920,2630 5853,2622 5784,2613 5715,2605 5643,2596 5569,2587 5494,2578 5416,2569 5336,2559 5255,2550 5172,2540 5087,2530 5000,2520 4912,2509 4822,2499 4730,2489 4637,2478 4542,2468 4446,2457 4348,2447 4249,2437 4148,2426 4046,2415 3941,2405 3835,2394 3728,2383 3619,2372 3508,2361 3395,2350 3282,2339 3166,2328 3049,2316 2930,2305 2810,2294 2688,2282 2564,2271 2438,2259 2311,2248 2183,2236 2052,2224 1920,2213 1787,2201 1652,2189 1516,2177 1378,2166 1238,2154 1097,2142 954,2130 811,2118 667,2106" style="fill:none;stroke:#FF0000;stroke-width:5"></polyline><polyline points="6500,2700 6449,2698 6397,2693 6343,2686 6288,2678 6230,2670 6171,2662 6110,2654 6047,2646 5983,2637 5916,2629 5848,2620 5779,2611 5709,2603 5636,2594 5562,2585 5486,2575 5407,2566 5327,2556 5245,2546 5161,2535 5076,2525 4989,2515 4900,2505 4809,2494 4717,2483 4623,2473 4528,2462 4432,2452 4335,2441 4235,2431 4134,2420 4031,2409 3927,2399 3821,2388 3713,2377 3605,2366 3495,2355 3383,2344 3270,2334 3156,2323 3039,2312 2921,2301 2802,2290 2681,2279 2558,2268 2433,2256 2307,2245 2179,2234 2050,2222 1919,2211 1786,2199 1653,2188 1518,2177 1382,2165 1244,2154 1105,2143 964,2131 822,2120 681,2109" style="fill:none;stroke:#FF0000;stroke-width:5"></polyline><polyline points="6500,2700 6449,2698 6397,2693 6343,2686 6288,2678 6230,2670 6171,2662 6110,2654 6047,2646 5983,2637 5916,2629 5848,2620 5779,2611 5709,2603 5636,2594 5562,2585 5486,2575 5407,2566 5327,2556 5245,2546 5161,2535 5076,2525 4989,2515 4900,2505 4809,2494 4717,2483 4623,2473 4528,2462 4432,2452 4335,2441 4235,2431 4134,2420 4031,2409 3927,2399 3821,2388 3713,2377 3605,2366 3495,2355 3383,2344 3270,2334 3156,2323 3039,2312 2921,2301 2802,2290 2681,2279 2558,2268 2433,2256 2307,2245 2179,2234 2050,2222 1919,2211 1786,2199 1653,2188 1518,2177 1382,2165 1244,2154 1105,2143 964,2131 822,2120 681,2109" style="fill:none;stroke:#FF0000;stroke-width:5"></polyline><polyline points="6500,2700 6449,2698 6397,2693 6343,2686 6288,2678 6230,2670 6171,2662 6110,2654 6047,2646 5983,2637 5916,2629 5848,2620 5779,2611 5709,2603 5636,2594 5562,2585 5486,2575 5407,2566 5327,2556 5245,2546 5161,2535 5076,2525 4989,2515 4900,2505 4809,2494 4717,2483 4623,2473 4528,2462 4432,2452 4335,2441 4235,2431 4134,2420 4031,2409 3927,2399 3821,2388 3713,2377 3605,2366 3495,2355 3383,2344 3270,2334 3156,2323 3039,2312 2921,2301 2802,2290 2681,2279 2558,2268 2433,2256 2307,2245 2179,2234 2050,2222 1919,2211 1786,2199 1653,2188 1518,2177 1382,2165 1244,2154 1105,2143 964,2131 822,2120 681,2109" style="fill:none;stroke:#FF0000;stroke-width:5"></polyline><polyline points="6500,2700 6449,2698 6397,2693 6343,2686 6288,2678 6230,2670 6171,2662 6110,2654 6047,2646 5983,2637 5916,2629 5848,2620 5779,2611 5709,2603 5636,2594 5562,2585 5486,2575 5407,2566 5327,2556 5245,2546 5161,2535 5076,2525 4989,2515 4900,2505 4809,2494 4717,2483 4623,2473 4528,2462 4432,2452 4335,2441 4235,2431 4134,2420 4031,2409 3927,2399 3821,2388 3713,2377 3605,2366 3495,2355 3383,2344 3270,2334 3156,2323 3039,2312 2921,2301 2802,2290 2681,2279 2558,2268 2433,2256 2307,2245 2179,2234 2050,2222 1919,2211 1786,2199 1653,2188 1518,2177 1382,2165 1244,2154 1105,2143 964,2131 822,2120 681,2109" style="fill:none;stroke:#FF0000;stroke-width:5"></polyline><polyline points="6500,2700 6449,2698 6397,2693 6343,2686 6288,2678 6230,2670 6171,2662 6110,2654 6047,2646 5983,2637 5916,2629 5848,2620 5779,2611 5709,2603 5636,2594 5562,2585 5486,2575 5407,2566 5327,2556 5245,2546 5161,2535 5076,2525 4989,2515 4900,2505 4809,2494 4717,2483 4623,2473 4528,2462 4432,2452 4335,2441 4235,2431 4134,2420 4031,2409 3927,2399 3821,2388 3713,2377 3605,2366 3495,2355 3383,2344 3270,2334 3156,2323 3039,2312 2921,2301 2802,2290 2681,2279 2558,2268 2433,2256 2307,2245 2179,2234 2050,2222 1919,2211 1786,2199 1653,2188 1518,2177 1382,2165 1244,2154 1105,2143 964,2131 822,2120 681,2109" style="fill:none;stroke:#FF0000;stroke-width:5"></polyline><polyline points="6500,2700 6449,2698 6397,2693 6343,2686 6288,2678 6230,2670 6171,2662 6110,2654 6047,2646 5983,2637 5916,2629 5848,2620 5779,2611 5709,2603 5636,2594 5562,2585 5486,2575 5407,2566 5327,2556 5245,2546 5161,2535 5076,2525 4989,2515 4900,2505 4809,2494 4717,2483 4623,2473 4528,2462 4432,2452 4335,2441 4235,2431 4134,2420 4031,2409 3927,2399 3821,2388 3713,2377 3605,2366 3495,2355 3383,2344 3270,2334 3156,2323 3039,2312 2921,2301 2802,2290 2681,2279 2558,2268 2433,2256 2307,2245 2179,2234 2050,2222 1919,2211 1786,2199 1653,2188 1518,2177 1382,2165 1244,2154 1105,2143 964,2131 822,2120 681,2109" style="fill:none;stroke:#FF0000;stroke-width:5"></polyline><polyline points="6500,2700 6449,2698 6397,2693 6343,2686 6288,2678 6230,2670 6171,2662 6110,2654 6047,2646 5983,2637 5916,2629 5848,2620 5779,2611 5709,2603 5636,2594 5562,2585 5486,2575 5407,2566 5327,2556 5245,2546 5161,2535 5076,2525 4989,2515 4900,2505 4809,2494 4717,2483 4623,2473 4528,2462 4432,2452 4335,2441 4235,2431 4134,2420 4031,2409 3927,2399 3821,2388 3713,2377 3605,2366 3495,2355 3383,2344 3270,2334 3156,2323 3039,2312 2921,2301 2802,2290 2681,2279 2558,2268 2433,2256 2307,2245 2179,2234 2050,2222 1919,2211 1786,2199 1653,2188 1518,2177 1382,2165 1244,2154 1105,2143 964,2131 822,2120 681,2109" style="fill:none;stroke:#FF0000;stroke-width:5"></polyline><polyline points="6500,2700 6449,2698 6397,2693 6343,2686 6288,2678 6230,2670 6171,2662 6110,2654 6047,2646 5983,2637 5916,2629 5848,2620 5779,2611 5709,2603 5636,2594 5562,2585 5486,2575 5407,2566 5327,2556 5245,2546 5161,2535 5076,2525 4989,2515 4900,2505 4809,2494 4717,2483 4623,2473 4528,2462 4432,2452 4335,2441 4235,2431 4134,2420 4031,2409 3927,2399 3821,2388 3713,2377 3605,2366 3495,2355 3383,2344 3270,2334 3156,2323 3039,2312 2921,2301 2802,2290 2681,2279 2558,2268 2433,2256 2307,2245 2179,2234 2050,2222 1919,2211 1786,2199 1653,2188 1518,2177 1382,2165 1244,2154 1105,2143 964,2131 822,2120 681,2109" style="fill:none;stroke:#FF0000;stroke-width:5"></polyline><polyline points="6500,2700 6449,2698 6397,2693 6343,2686 6288,2678 6230,2670 6171,2662 6110,2654 6047,2646 5983,2637 5916,2629 5848,2620 5779,2611 5709,2603 5636,2594 5562,2585 5486,2575 5407,2566 5327,2556 5245,2546 5161,2535 5076,2525 4989,2515 4900,2505 4809,2494 4717,2483 4623,2473 4528,2462 4432,2452 4335,2441 4235,2431 4134,2420 4031,2409 3927,2399 3821,2388 3713,2377 3605,2366 3495,2355 3383,2344 3270,2334 3156,2323 3039,2312 2921,2301 2802,2290 2681,2279 2558,2268 2433,2256 2307,2245 2179,2234 2050,2222 1919,2211 1786,2199 1653,2188 1518,2177 1382,2165 1244,2154 1105,2143 964,2131 822,2120 681,2109" style="fill:none;stroke:#FF0000;stroke-width:5"></polyline><polyline points="6500,2700 6449,2698 6397,2693 6343,2686 6288,2678 6230,2670 6171,2662 6110,2654 6047,2646 5983,2637 5916,2629 5848,2620 5779,2611 5709,2603 5636,2594 5562,2585 5486,2575 5407,2566 5327,2556 5245,2546 5161,2535 5076,2525 4989,2515 4900,2505 4809,2494 4717,2483 4623,2473 4528,2462 4432,2452 4335,2441 4235,2431 4134,2420 4031,2409 3927,2399 3821,2388 3713,2377 3605,2366 3495,2355 3383,2344 3270,2334 3156,2323 3039,2312 2921,2301 2802,2290 2681,2279 2558,2268 2433,2256 2307,2245 2179,2234 2050,2222 1919,2211 1786,2199 1653,2188 1518,2177 1382,2165 1244,2154 1105,2143 964,2131 822,2120 681,2109" style="fill:none;stroke:#FF0000;stroke-width:5"></polyline><polyline points="6500,2700 6449,2698 6397,2693 6343,2686 6288,2678 6230,2670 6171,2662 6110,2654 6047,2646 5983,2637 5916,2629 5848,2620 5779,2611 5709,2603 5636,2594 5562,2585 5486,2575 5407,2566 5327,2556 5245,2546 5161,2535 5076,2525 4989,2515 4900,2505 4809,2494 4717,2483 4623,2473 4528,2462 4432,2452 4335,2441 4235,2431 4134,2420 4031,2409 3927,2399 3821,2388 3713,2377 3605,2366 3495,2355 3383,2344 3270,2334 3156,2323 3039,2312 2921,2301 2802,2290 2681,2279 2558,2268 2433,2256 2307,2245 2179,2234 2050,2222 1919,2211 1786,2199 1653,2188 1518,2177 1382,2165 1244,2154 1105,2143 964,2131 822,2120 681,2109" style="fill:none;stroke:#FF0000;stroke-width:5"></polyline><polyline points="6500,2700 6449,2698 6397,2693 6343,2686 6288,2678 6230,2670 6172,2662 6111,2654 6049,2646 5986,2638 5920,2630 5853,2622 5784,2613 5715,2605 5643,2596 5569,2587 5494,2578 5416,2569 5336,2559 5255,2550 5172,2540 5087,2530 5000,2520 4912,2509 4822,2499 4730,2489 4637,2478 4542,2468 4446,2457 4348,2447 4249,2437 4148,2426 4046,2415 3941,2405 3835,2394 3728,2383 3619,2372 3508,2361 3395,2350 3282,2339 3166,2328 3049,2316 2930,2305 2810,2294 2688,2282 2564,2271 2438,2259 2311,2248 2183,2236 2052,2224 1920,2213 1787,2201 1652,2189 1516,2177 1378,2166 1238,2154 1097,2142 954,2130 811,2118 667,2106" style="fill:none;stroke:#FF0000;stroke-width:5"></polyline><polyline points="6500,2700 6449,2698 6397,2693 6343,2686 6288,2678 6230,2670 6171,2662 6110,2654 6047,2646 5983,2637 5916,2629 5848,2620 5779,2611 5709,2603 5636,2594 5562,2585 5486,2575 5407,2566 5327,2556 5245,2546 5161,2535 5076,2525 4989,2515 4900,2505 4809,2494 4717,2483 4623,2473 4528,2462 4432,2452 4335,2441 4235,2431 4134,2420 4031,2409 3927,2399 3821,2388 3713,2377 3605,2366 3495,2355 3383,2344 3270,2334 3156,2323 3039,2312 2921,2301 2802,2290 2681,2279 2558,2268 2433,2256 2307,2245 2179,2234 2050,2222 1919,2211 1786,2199 1653,2188 1518,2177 1382,2165 1244,2154 1105,2143 964,2131 822,2120 681,2109" style="fill:none;stroke:#FF0000;stroke-width:5"></polyline><polyline points="6500,2700 6449,2698 6397,2693 6343,2686 6288,2678 6230,2670 6171,2662 6110,2654 6047,2646 5983,2637 5916,2629 5848,2620 5779,2611 5709,2603 5636,2594 5562,2585 5486,2575 5407,2566 5327,2556 5245,2546 5161,2535 5076,2525 4989,2515 4900,2505 4809,2494 4717,2483 4623,2473 4528,2462 4432,2452 4335,2441 4235,2431 4134,2420 4031,2409 3927,2399 3821,2388 3713,2377 3605,2366 3495,2355 3383,2344 3270,2334 3156,2323 3039,2312 2921,2301 2802,2290 2681,2279 2558,2268 2433,2256 2307,2245 2179,2234 2050,2222 1919,2211 1786,2199 1653,2188 1518,2177 1382,2165 1244,2154 1105,2143 964,2131 822,2120 681,2109" style="fill:none;stroke:#FF0000;stroke-width:5"></polyline><polyline points="6500,2700 6449,2698 6397,2693 6343,2686 6288,2678 6230,2670 6171,2662 6110,2654 6047,2646 5983,2637 5916,2629 5848,2620 5779,2611 5709,2603 5636,2594 5562,2585 5486,2575 5407,2566 5327,2556 5245,2546 5161,2535 5076,2525 4989,2515 4900,2505 4809,2494 4717,2483 4623,2473 4528,2462 4432,2452 4335,2441 4235,2431 4134,2420 4031,2409 3927,2399 3821,2388 3713,2377 3605,2366 3495,2355 3383,2344 3270,2334 3156,2323 3039,2312 2921,2301 2802,2290 2681,2279 2558,2268 2433,2256 2307,2245 2179,2234 2050,2222 1919,2211 1786,2199 1653,2188 1518,2177 1382,2165 1244,2154 1105,2143 964,2131 822,2120 681,2109" style="fill:none;stroke:#FF0000;stroke-width:5"></polyline><polyline points="6500,2700 6449,2698 6397,2693 6343,2686 6288,2678 6230,2670 6171,2662 6110,2654 6047,2646 5983,2637 5916,2629 5848,2620 5779,2611 5709,2603 5636,2594 5562,2585 5486,2575 5407,2566 5327,2556 5245,2546 5161,2535 5076,2525 4989,2515 4900,2505 4809,2494 4717,2483 4623,2473 4528,2462 4432,2452 4335,2441 4235,2431 4134,2420 4031,2409 3927,2399 3821,2388 3713,2377 3605,2366 3495,2355 3383,2344 3270,2334 3156,2323 3039,2312 2921,2301 2802,2290 2681,2279 2558,2268 2433,2256 2307,2245 2179,2234 2050,2222 1919,2211 1786,2199 1653,2188 1518,2177 1382,2165 1244,2154 1105,2143 964,2131 822,2120 681,2109" style="fill:none;stroke:#FF0000;stroke-width:5"></polyline><polyline points="6500,2700 6449,2698 6397,2693 6343,2686 6288,2678 6230,2670 6171,2662 6110,2654 6047,2646 5983,2637 5916,2629 5848,2620 5779,2611 5709,2603 5636,2594 5562,2585 5486,2575 5407,2566 5327,2556 5245,2546 5161,2535 5076,2525 4989,2515 4900,2505 4809,2494 4717,2483 4623,2473 4528,2462 4432,2452 4335,2441 4235,2431 4134,2420 4031,2409 3927,2399 3821,2388 3713,2377 3605,2366 3495,2355 3383,2344 3270,2334 3156,2323 3039,2312 2921,2301 2802,2290 2681,2279 2558,2268 2433,2256 2307,2245 2179,2234 2050,2222 1919,2211 1786,2199 1653,2188 1518,2177 1382,2165 1244,2154 1105,2143 964,2131 822,2120 681,2109" style="fill:none;stroke:#FF0000;stroke-width:5"></polyline><polyline points="6500,2700 6449,2698 6397,2693 6343,2686 6288,2678 6230,2670 6171,2662 6110,2654 6047,2646 5983,2637 5916,2629 5848,2620 5779,2611 5709,2603 5636,2594 5562,2585 5486,2575 5407,2566 5327,2556 5245,2546 5161,2535 5076,2525 4989,2515 4900,2505 4809,2494 4717,2483 4623,2473 4528,2462 4432,2452 4335,2441 4235,2431 4134,2420 4031,2409 3927,2399 3821,2388 3713,2377 3605,2366 3495,2355 3383,2344 3270,2334 3156,2323 3039,2312 2921,2301 2802,2290 2681,2279 2558,2268 2433,2256 2307,2245 2179,2234 2050,2222 1919,2211 1786,2199 1653,2188 1518,2177 1382,2165 1244,2154 1105,2143 964,2131 822,2120 681,2109" style="fill:none;stroke:#FF0000;stroke-width:5"></polyline><polyline points="6500,2700 6449,2698 6397,2693 6343,2686 6288,2678 6230,2670 6171,2662 6110,2654 6047,2646 5983,2637 5916,2629 5848,2620 5779,2611 5709,2603 5636,2594 5562,2585 5486,2575 5407,2566 5327,2556 5245,2546 5161,2535 5076,2525 4989,2515 4900,2505 4809,2494 4717,2483 4623,2473 4528,2462 4432,2452 4335,2441 4235,2431 4134,2420 4031,2409 3927,2399 3821,2388 3713,2377 3605,2366 3495,2355 3383,2344 3270,2334 3156,2323 3039,2312 2921,2301 2802,2290 2681,2279 2558,2268 2433,2256 2307,2245 2179,2234 2050,2222 1919,2211 1786,2199 1653,2188 1518,2177 1382,2165 1244,2154 1105,2143 964,2131 822,2120 681,2109" style="fill:none;stroke:#FF0000;stroke-width:5"></polyline><polyline points="6500,2700 6449,2698 6397,2693 6343,2686 6288,2678 6230,2670 6171,2662 6110,2654 6047,2646 5983,2637 5916,2629 5848,2620 5779,2611 5709,2603 5636,2594 5562,2585 5486,2575 5407,2566 5327,2556 5245,2546 5161,2535 5076,2525 4989,2515 4900,2505 4809,2494 4717,2483 4623,2473 4528,2462 4432,2452 4335,2441 4235,2431 4134,2420 4031,2409 3927,2399 3821,2388 3713,2377 3605,2366 3495,2355 3383,2344 3270,2334 3156,2323 3039,2312 2921,2301 2802,2290 2681,2279 2558,2268 2433,2256 2307,2245 2179,2234 2050,2222 1919,2211 1786,2199 1653,2188 1518,2177 1382,2165 1244,2154 1105,2143 964,2131 822,2120 681,2109" style="fill:none;stroke:#FF0000;stroke-width:5"></polyline><polyline points="6500,2700 6449,2698 6397,2693 6343,2686 6288,2678 6230,2670 6171,2662 6110,2654 6047,2646 5983,2637 5917,2629 5849,2620 5780,2612 5710,2603 5637,2594 5563,2585 5487,2576 5409,2566 5329,2557 5247,2547 5163,2537 5078,2526 4991,2516 4902,2506 4812,2495 4720,2485 4626,2474 4531,2464 4434,2453 4335,2442 4236,2432 4134,2421 4031,2410 3927,2400 3821,2389 3713,2378 3604,2367 3493,2356 3380,2345 3266,2334 3150,2323 3033,2311 2914,2300 2793,2289 2671,2277 2547,2266 2421,2254 2294,2243 2165,2231 2034,2220 1902,2208 1769,2196 1634,2184 1498,2173 1360,2161 1220,2149 1079,2137 936,2125 792,2113 647,2102" style="fill:none;stroke:#FF0000;stroke-width:5"></polyline><polyline points="6500,2700 6449,2698 6397,2693 6343,2686 6288,2678 6230,2670 6171,2662 6110,2654 6047,2646 5983,2637 5916,2629 5848,2620 5779,2611 5709,2603 5636,2594 5562,2585 5486,2575 5407,2566 5326,2555 5242,2543 5156,2532 5068,2519 4979,2507 4888,2495 4795,2483 4700,2471 4604,2458 4506,2446 4407,2433 4305,2420 4203,2408 4099,2395 3993,2382 3886,2370 3777,2357 3667,2344 3556,2332 3442,2319 3327,2306 3211,2293 3093,2280 2974,2267 2853,2254 2730,2241 2605,2228 2478,2214 2349,2200 2219,2186 2087,2172 1953,2158 1818,2144 1682,2130 1544,2116 1405,2102" style="fill:none;stroke:#FF0000;stroke-width:5"></polyline><polyline points="6500,2700 6449,2698 6397,2693 6343,2686 6288,2678 6230,2670 6171,2662 6110,2654 6047,2646 5983,2637 5916,2629 5848,2620 5779,2611 5709,2603 5636,2594 5562,2585 5486,2575 5407,2566 5327,2556 5245,2546 5161,2535 5076,2525 4989,2515 4900,2505 4809,2494 4717,2483 4623,2473 4528,2462 4432,2452 4335,2441 4235,2431 4134,2420 4031,2409 3927,2399 3821,2388 3713,2377 3605,2366 3495,2355 3383,2344 3270,2334 3156,2323 3039,2312 2921,2301 2802,2290 2681,2279 2558,2268 2433,2256 2307,2245 2179,2234 2050,2222 1919,2211 1786,2199 1653,2188 1518,2177 1382,2165 1244,2154 1105,2143 964,2131 822,2120 681,2109" style="fill:none;stroke:#FF0000;stroke-width:5"></polyline><polyline points="6500,2700 6449,2698 6397,2693 6343,2686 6288,2678 6230,2670 6171,2662 6110,2654 6047,2646 5983,2637 5916,2629 5848,2620 5779,2611 5709,2603 5636,2594 5562,2585 5486,2575 5407,2566 5327,2556 5245,2546 5161,2535 5076,2525 4989,2515 4900,2505 4809,2494 4717,2483 4623,2473 4528,2462 4432,2452 4335,2441 4235,2431 4134,2420 4031,2409 3927,2399 3821,2388 3713,2377 3605,2366 3495,2355 3383,2344 3270,2334 3156,2323 3039,2312 2921,2301 2802,2290 2681,2279 2558,2268 2433,2256 2307,2245 2179,2234 2050,2222 1919,2211 1786,2199 1653,2188 1518,2177 1382,2165 1244,2154 1105,2143 964,2131 822,2120 681,2109" style="fill:none;stroke:#FF0000;stroke-width:5"></polyline><polyline points="6500,2700 6449,2698 6397,2693 6343,2686 6288,2678 6230,2670 6171,2662 6110,2654 6047,2646 5983,2637 5916,2629 5848,2620 5779,2611 5709,2603 5636,2594 5562,2585 5486,2575 5407,2566 5327,2556 5245,2546 5161,2535 5076,2525 4989,2515 4900,2505 4809,2494 4717,2483 4623,2473 4528,2462 4432,2452 4335,2441 4235,2431 4134,2420 4031,2409 3927,2399 3821,2388 3713,2377 3605,2366 3495,2355 3383,2344 3270,2334 3156,2323 3039,2312 2921,2301 2802,2290 2681,2279 2558,2268 2433,2256 2307,2245 2179,2234 2050,2222 1919,2211 1786,2199 1653,2188 1518,2177 1382,2165 1244,2154 1105,2143 964,2131 822,2120 681,2109" style="fill:none;stroke:#FF0000;stroke-width:5"></polyline><polyline points="6500,2700 6449,2698 6397,2693 6343,2686 6288,2678 6230,2670 6171,2662 6110,2654 6047,2646 5983,2637 5916,2629 5848,2620 5779,2611 5709,2603 5636,2594 5562,2585 5486,2575 5407,2566 5327,2556 5245,2546 5161,2535 5076,2525 4989,2515 4900,2505 4809,2494 4717,2483 4623,2473 4528,2462 4432,2452 4335,2441 4235,2431 4134,2420 4031,2409 3927,2399 3821,2388 3713,2377 3605,2366 3495,2355 3383,2344 3270,2334 3156,2323 3039,2312 2921,2301 2802,2290 2681,2279 2558,2268 2433,2256 2307,2245 2179,2234 2050,2222 1919,2211 1786,2199 1653,2188 1518,2177 1382,2165 1244,2154 1105,2143 964,2131 822,2120 681,2109" style="fill:none;stroke:#FF0000;stroke-width:5"></polyline><polyline points="6500,2700 6449,2698 6397,2693 6343,2686 6288,2678 6230,2670 6171,2662 6110,2654 6047,2646 5983,2637 5916,2629 5848,2620 5779,2611 5709,2603 5636,2594 5562,2585 5486,2575 5407,2566 5327,2556 5245,2546 5161,2535 5076,2525 4989,2515 4900,2505 4809,2494 4717,2483 4623,2473 4528,2462 4432,2452 4335,2441 4235,2431 4134,2420 4031,2409 3927,2399 3821,2388 3713,2377 3605,2366 3495,2355 3383,2344 3270,2334 3156,2323 3039,2312 2921,2301 2802,2290 2681,2279 2558,2268 2433,2256 2307,2245 2179,2234 2050,2222 1919,2211 1786,2199 1653,2188 1518,2177 1382,2165 1244,2154 1105,2143 964,2131 822,2120 681,2109" style="fill:none;stroke:#FF0000;stroke-width:5"></polyline><polyline points="6500,2700 6449,2698 6397,2693 6343,2686 6288,2678 6230,2670 6171,2662 6110,2654 6047,2646 5983,2637 5916,2629 5848,2620 5779,2611 5709,2603 5636,2594 5562,2585 5486,2575 5407,2566 5327,2556 5245,2546 5161,2535 5076,2525 4989,2515 4900,2505 4809,2494 4717,2483 4623,2473 4528,2462 4432,2452 4335,2441 4235,2431 4134,2420 4031,2409 3927,2399 3821,2388 3713,2377 3605,2366 3495,2355 3383,2344 3270,2334 3156,2323 3039,2312 2921,2301 2802,2290 2681,2279 2558,2268 2433,2256 2307,2245 2179,2234 2050,2222 1919,2211 1786,2199 1653,2188 1518,2177 1382,2165 1244,2154 1105,2143 964,2131 822,2120 681,2109" style="fill:none;stroke:#FF0000;stroke-width:5"></polyline><polyline points="6500,2700 6449,2698 6397,2693 6343,2686 6288,2678 6230,2670 6171,2662 6110,2654 6047,2646 5983,2637 5916,2629 5848,2620 5779,2611 5709,2603 5636,2594 5562,2585 5486,2575 5407,2566 5327,2556 5245,2546 5161,2535 5076,2525 4989,2515 4900,2505 4809,2494 4717,2483 4623,2473 4528,2462 4432,2452 4335,2441 4235,2431 4134,2420 4031,2409 3927,2399 3821,2388 3713,2377 3605,2366 3495,2355 3383,2344 3270,2334 3156,2323 3039,2312 2921,2301 2802,2290 2681,2279 2558,2268 2433,2256 2307,2245 2179,2234 2050,2222 1919,2211 1786,2199 1653,2188 1518,2177 1382,2165 1244,2154 1105,2143 964,2131 822,2120 681,2109" style="fill:none;stroke:#FF0000;stroke-width:5"></polyline><polyline points="6500,2700 6449,2698 6397,2693 6343,2686 6288,2678 6230,2670 6171,2662 6110,2654 6047,2646 5983,2637 5916,2629 5848,2620 5779,2611 5709,2603 5636,2594 5562,2585 5486,2575 5407,2566 5327,2556 5245,2546 5161,2535 5076,2525 4989,2515 4900,2505 4809,2494 4717,2483 4623,2473 4528,2462 4432,2452 4335,2441 4235,2431 4134,2420 4031,2409 3927,2399 3821,2388 3713,2377 3605,2366 3495,2355 3383,2344 3270,2334 3156,2323 3039,2312 2921,2301 2802,2290 2681,2279 2558,2268 2433,2256 2307,2245 2179,2234 2050,2222 1919,2211 1786,2199 1653,2188 1518,2177 1382,2165 1244,2154 1105,2143 964,2131 822,2120 681,2109" style="fill:none;stroke:#FF0000;stroke-width:5"></polyline><polyline points="6500,2700 6449,2698 6397,2693 6343,2686 6288,2678 6230,2670 6171,2662 6110,2654 6047,2646 5983,2637 5916,2629 5848,2620 5779,2611 5709,2603 5636,2594 5562,2585 5486,2575 5407,2566 5327,2556 5245,2546 5161,2535 5076,2525 4989,2515 4900,2505 4809,2494 4717,2483 4623,2473 4528,2462 4432,2452 4335,2441 4235,2431 4134,2420 4031,2409 3927,2399 3821,2388 3713,2377 3605,2366 3495,2355 3383,2344 3270,2334 3156,2323 3039,2312 2921,2301 2802,2290 2681,2279 2558,2268 2433,2256 2307,2245 2179,2234 2050,2222 1919,2211 1786,2199 1653,2188 1518,2177 1382,2165 1244,2154 1105,2143 964,2131 822,2120 681,2109" style="fill:none;stroke:#FF0000;stroke-width:5"></polyline><polyline points="6500,2700 6449,2698 6397,2693 6343,2686 6288,2678 6230,2670 6171,2662 6110,2654 6047,2646 5983,2637 5916,2629 5848,2620 5779,2611 5709,2603 5636,2594 5562,2585 5486,2575 5407,2566 5327,2556 5245,2546 5161,2535 5076,2525 4989,2515 4900,2505 4809,2494 4717,2483 4623,2473 4528,2462 4432,2452 4335,2441 4235,2431 4134,2420 4031,2409 3927,2399 3821,2388 3713,2377 3605,2366 3495,2355 3383,2344 3270,2334 3156,2323 3039,2312 2921,2301 2802,2290 2681,2279 2558,2268 2433,2256 2307,2245 2179,2234 2050,2222 1919,2211 1786,2199 1653,2188 1518,2177 1382,2165 1244,2154 1105,2143 964,2131 822,2120 681,2109" style="fill:none;stroke:#FF0000;stroke-width:5"></polyline><polyline points="6500,2700 6449,2698 6397,2693 6343,2686 6288,2678 6230,2670 6171,2662 6110,2654 6047,2646 5983,2637 5916,2629 5848,2620 5779,2611 5709,2603 5636,2594 5562,2585 5486,2575 5407,2566 5327,2556 5245,2546 5161,2535 5076,2525 4989,2515 4900,2505 4809,2494 4717,2483 4623,2473 4528,2462 4432,2452 4335,2441 4235,2431 4134,2420 4031,2409 3927,2399 3821,2388 3713,2377 3605,2366 3495,2355 3383,2344 3270,2334 3156,2323 3039,2312 2921,2301 2802,2290 2681,2279 2558,2268 2433,2256 2307,2245 2179,2234 2050,2222 1919,2211 1786,2199 1653,2188 1518,2177 1382,2165 1244,2154 1105,2143 964,2131 822,2120 681,2109" style="fill:none;stroke:#FF0000;stroke-width:5"></polyline><polyline points="6500,2700 6449,2698 6397,2693 6343,2686 6288,2678 6230,2670 6171,2662 6110,2654 6047,2646 5983,2637 5916,2629 5848,2620 5779,2611 5709,2603 5636,2594 5562,2585 5486,2575 5407,2566 5327,2556 5245,2546 5161,2535 5076,2525 4989,2515 4900,2505 4809,2494 4717,2483 4623,2473 4528,2462 4432,2452 4335,2441 4235,2431 4134,2420 4031,2409 3927,2399 3821,2388 3713,2377 3605,2366 3495,2355 3383,2344 3270,2334 3156,2323 3039,2312 2921,2301 2802,2290 2681,2279 2558,2268 2433,2256 2307,2245 2179,2234 2050,2222 1919,2211 1786,2199 1653,2188 1518,2177 1382,2165 1244,2154 1105,2143 964,2131 822,2120 681,2109" style="fill:none;stroke:#FF0000;stroke-width:5"></polyline><polyline points="6500,2700 6449,2698 6397,2693 6343,2686 6288,2678 6230,2670 6171,2662 6110,2654 6047,2646 5983,2637 5916,2629 5848,2620 5779,2611 5709,2603 5636,2594 5562,2585 5486,2575 5407,2566 5327,2556 5245,2546 5161,2535 5076,2525 4989,2515 4900,2505 4809,2494 4717,2483 4623,2473 4528,2462 4432,2452 4335,2441 4235,2431 4134,2420 4031,2409 3927,2399 3821,2388 3713,2377 3605,2366 3495,2355 3383,2344 3270,2334 3156,2323 3039,2312 2921,2301 2802,2290 2681,2279 2558,2268 2433,2256 2307,2245 2179,2234 2050,2222 1919,2211 1786,2199 1653,2188 1518,2177 1382,2165 1244,2154 1105,2143 964,2131 822,2120 681,2109" style="fill:none;stroke:#FF0000;stroke-width:5"></polyline><polyline points="6500,2700 6449,2698 6397,2693 6343,2686 6288,2678 6230,2670 6171,2662 6110,2654 6047,2646 5983,2637 5916,2629 5848,2620 5779,2611 5709,2603 5636,2594 5562,2585 5486,2575 5407,2566 5327,2556 5245,2546 5161,2535 5076,2525 4989,2515 4900,2505 4809,2494 4717,2483 4623,2473 4528,2462 4432,2452 4335,2441 4235,2431 4134,2420 4031,2409 3927,2399 3821,2388 3713,2377 3605,2366 3495,2355 3383,2344 3270,2334 3156,2323 3039,2312 2921,2301 2802,2290 2681,2279 2558,2268 2433,2256 2307,2245 2179,2234 2050,2222 1919,2211 1786,2199 1653,2188 1518,2177 1382,2165 1244,2154 1105,2143 964,2131 822,2120 681,2109" style="fill:none;stroke:#FF0000;stroke-width:5"></polyline><polyline points="6500,2700 6449,2698 6397,2693 6343,2686 6288,2678 6230,2670 6171,2662 6110,2654 6047,2646 5983,2637 5916,2629 5848,2620 5779,2611 5709,2603 5636,2594 5562,2585 5486,2575 5407,2566 5327,2556 5245,2546 5161,2535 5076,2525 4989,2515 4900,2505 4809,2494 4717,2483 4623,2473 4528,2462 4432,2452 4335,2441 4235,2431 4134,2420 4031,2409 3927,2399 3821,2388 3713,2377 3605,2366 3495,2355 3383,2344 3270,2334 3156,2323 3039,2312 2921,2301 2802,2290 2681,2279 2558,2268 2433,2256 2307,2245 2179,2234 2050,2222 1919,2211 1786,2199 1653,2188 1518,2177 1382,2165 1244,2154 1105,2143 964,2131 822,2120 681,2109" style="fill:none;stroke:#FF0000;stroke-width:5"></polyline><polyline points="6500,2700 6449,2698 6397,2693 6343,2686 6288,2678 6230,2670 6171,2662 6110,2654 6047,2646 5983,2637 5916,2629 5848,2620 5779,2611 5709,2603 5636,2594 5562,2585 5486,2575 5407,2566 5327,2556 5245,2546 5161,2535 5076,2525 4989,2515 4900,2505 4809,2494 4717,2483 4623,2473 4528,2462 4432,2452 4335,2441 4235,2431 4134,2420 4031,2409 3927,2399 3821,2388 3713,2377 3605,2366 3495,2355 3383,2344 3270,2334 3156,2323 3039,2312 2921,2301 2802,2290 2681,2279 2558,2268 2433,2256 2307,2245 2179,2234 2050,2222 1919,2211 1786,2199 1653,2188 1518,2177 1382,2165 1244,2154 1105,2143 964,2131 822,2120 681,2109" style="fill:none;stroke:#FF0000;stroke-width:5"></polyline><polyline points="6500,2700 6449,2698 6397,2693 6343,2686 6288,2678 6230,2670 6171,2662 6110,2654 6047,2646 5983,2637 5916,2629 5848,2620 5779,2611 5709,2603 5636,2594 5562,2585 5486,2575 5407,2566 5327,2556 5245,2546 5161,2535 5076,2525 4989,2515 4900,2505 4809,2494 4717,2483 4623,2473 4528,2462 4432,2452 4335,2441 4235,2431 4134,2420 4031,2409 3927,2399 3821,2388 3713,2377 3605,2366 3495,2355 3383,2344 3270,2334 3156,2323 3039,2312 2921,2301 2802,2290 2681,2279 2558,2268 2433,2256 2307,2245 2179,2234 2050,2222 1919,2211 1786,2199 1653,2188 1518,2177 1382,2165 1244,2154 1105,2143 964,2131 822,2120 681,2109" style="fill:none;stroke:#FF0000;stroke-width:5"></polyline><polyline points="6500,2700 6449,2698 6397,2693 6343,2686 6288,2678 6230,2670 6171,2662 6110,2654 6047,2646 5983,2637 5916,2629 5848,2620 5779,2611 5709,2603 5636,2594 5562,2585 5486,2575 5407,2566 5327,2556 5245,2546 5161,2535 5076,2525 4989,2515 4900,2505 4809,2494 4717,2483 4623,2473 4528,2462 4432,2452 4335,2441 4235,2431 4134,2420 4031,2409 3927,2399 3821,2388 3713,2377 3605,2366 3495,2355 3383,2344 3270,2334 3156,2323 3039,2312 2921,2301 2802,2290 2681,2279 2558,2268 2433,2256 2307,2245 2179,2234 2050,2222 1919,2211 1786,2199 1653,2188 1518,2177 1382,2165 1244,2154 1105,2143 964,2131 822,2120 681,2109" style="fill:none;stroke:#FF0000;stroke-width:5"></polyline><polyline points="6500,2700 6449,2698 6397,2693 6343,2686 6288,2678 6230,2670 6171,2662 6110,2654 6047,2646 5983,2637 5916,2629 5848,2620 5779,2611 5709,2603 5636,2594 5562,2585 5486,2575 5407,2566 5327,2556 5245,2546 5161,2535 5076,2525 4989,2515 4900,2505 4809,2494 4717,2483 4623,2473 4528,2462 4432,2452 4335,2441 4235,2431 4134,2420 4031,2409 3927,2399 3821,2388 3713,2377 3605,2366 3495,2355 3383,2344 3270,2334 3156,2323 3039,2312 2921,2301 2802,2290 2681,2279 2558,2268 2433,2256 2307,2245 2179,2234 2050,2222 1919,2211 1786,2199 1653,2188 1518,2177 1382,2165 1244,2154 1105,2143 964,2131 822,2120 681,2109" style="fill:none;stroke:#FF0000;stroke-width:5"></polyline><polyline points="6500,2700 6449,2698 6397,2693 6343,2686 6288,2678 6230,2670 6171,2662 6110,2654 6047,2646 5983,2637 5916,2629 5848,2620 5779,2611 5709,2603 5636,2594 5562,2585 5486,2575 5407,2566 5327,2556 5245,2546 5161,2535 5076,2525 4989,2515 4900,2505 4809,2494 4717,2483 4623,2473 4528,2462 4432,2452 4335,2441 4235,2431 4134,2420 4031,2409 3927,2399 3821,2388 3713,2377 3605,2366 3495,2355 3383,2344 3270,2334 3156,2323 3039,2312 2921,2301 2802,2290 2681,2279 2558,2268 2433,2256 2307,2245 2179,2234 2050,2222 1919,2211 1786,2199 1653,2188 1518,2177 1382,2165 1244,2154 1105,2143 964,2131 822,2120 681,2109" style="fill:none;stroke:#FF0000;stroke-width:5"></polyline><polyline points="6500,2700 6449,2698 6397,2693 6343,2686 6288,2678 6230,2670 6171,2662 6110,2654 6047,2646 5983,2637 5916,2629 5848,2620 5779,2611 5709,2603 5636,2594 5562,2585 5486,2575 5407,2566 5327,2556 5245,2546 5161,2535 5076,2525 4989,2515 4900,2505 4809,2494 4717,2483 4623,2473 4528,2462 4432,2452 4335,2441 4235,2431 4134,2420 4031,2409 3927,2399 3821,2388 3713,2377 3605,2366 3495,2355 3383,2344 3270,2334 3156,2323 3039,2312 2921,2301 2802,2290 2681,2279 2558,2268 2433,2256 2307,2245 2179,2234 2050,2222 1919,2211 1786,2199 1653,2188 1518,2177 1382,2165 1244,2154 1105,2143 964,2131 822,2120 681,2109" style="fill:none;stroke:#FF0000;stroke-width:5"></polyline><polyline points="6500,2700 6449,2698 6397,2693 6343,2686 6288,2678 6230,2670 6171,2662 6110,2654 6047,2646 5983,2637 5916,2629 5848,2620 5779,2611 5709,2603 5636,2594 5562,2585 5486,2575 5407,2566 5327,2556 5245,2546 5161,2535 5076,2525 4989,2515 4900,2505 4809,2494 4717,2483 4623,2473 4528,2462 4432,2452 4335,2441 4235,2431 4134,2420 4031,2409 3927,2399 3821,2388 3713,2377 3605,2366 3495,2355 3383,2344 3270,2334 3156,2323 3039,2312 2921,2301 2802,2290 2681,2279 2558,2268 2433,2256 2307,2245 2179,2234 2050,2222 1919,2211 1786,2199 1653,2188 1518,2177 1382,2165 1244,2154 1105,2143 964,2131 822,2120 681,2109" style="fill:none;stroke:#FF0000;stroke-width:5"></polyline><polyline points="6500,2700 6449,2698 6397,2693 6343,2686 6288,2678 6230,2670 6171,2662 6110,2654 6047,2646 5983,2637 5916,2629 5848,2620 5779,2611 5709,2603 5636,2594 5562,2585 5486,2575 5407,2566 5327,2556 5245,2546 5161,2535 5076,2525 4989,2515 4900,2505 4809,2494 4717,2483 4623,2473 4528,2462 4432,2452 4335,2441 4235,2431 4134,2420 4031,2409 3927,2399 3821,2388 3713,2377 3605,2366 3495,2355 3383,2344 3270,2334 3156,2323 3039,2312 2921,2301 2802,2290 2681,2279 2558,2268 2433,2256 2307,2245 2179,2234 2050,2222 1919,2211 1786,2199 1653,2188 1518,2177 1382,2165 1244,2154 1105,2143 964,2131 822,2120 681,2109" style="fill:none;stroke:#FF0000;stroke-width:5"></polyline><polyline points="6500,2700 6449,2698 6397,2693 6343,2686 6288,2678 6230,2670 6171,2662 6110,2654 6047,2646 5983,2637 5916,2629 5848,2620 5779,2611 5709,2603 5636,2594 5562,2585 5486,2575 5407,2566 5327,2556 5245,2546 5161,2535 5076,2525 4989,2515 4900,2505 4809,2494 4717,2483 4623,2473 4528,2462 4432,2452 4335,2441 4235,2431 4134,2420 4031,2409 3927,2399 3821,2388 3713,2377 3605,2366 3495,2355 3383,2344 3270,2334 3156,2323 3039,2312 2921,2301 2802,2290 2681,2279 2558,2268 2433,2256 2307,2245 2179,2234 2050,2222 1919,2211 1786,2199 1653,2188 1518,2177 1382,2165 1244,2154 1105,2143 964,2131 822,2120 681,2109" style="fill:none;stroke:#FF0000;stroke-width:5"></polyline><polyline points="6500,2700 6449,2698 6397,2693 6343,2686 6288,2678 6230,2670 6171,2662 6110,2654 6047,2646 5983,2637 5916,2629 5848,2620 5779,2611 5709,2603 5636,2594 5562,2585 5486,2575 5407,2566 5327,2556 5245,2546 5161,2535 5076,2525 4989,2515 4900,2505 4809,2494 4717,2483 4623,2473 4528,2462 4432,2452 4335,2441 4235,2431 4134,2420 4031,2409 3927,2399 3821,2388 3713,2377 3605,2366 3495,2355 3383,2344 3270,2334 3156,2323 3039,2312 2921,2301 2802,2290 2681,2279 2558,2268 2433,2256 2307,2245 2179,2234 2050,2222 1919,2211 1786,2199 1653,2188 1518,2177 1382,2165 1244,2154 1105,2143 964,2131 822,2120 681,2109" style="fill:none;stroke:#FF0000;stroke-width:5"></polyline><polyline points="6500,2700 6449,2698 6397,2693 6343,2686 6288,2678 6230,2670 6171,2662 6110,2654 6047,2646 5983,2637 5916,2629 5848,2620 5779,2611 5709,2603 5636,2594 5562,2585 5486,2575 5407,2566 5327,2556 5245,2546 5161,2535 5076,2525 4989,2515 4900,2505 4809,2494 4717,2483 4623,2473 4528,2462 4432,2452 4335,2441 4235,2431 4134,2420 4031,2409 3927,2399 3821,2388 3713,2377 3605,2366 3495,2355 3383,2344 3270,2334 3156,2323 3039,2312 2921,2301 2802,2290 2681,2279 2558,2268 2433,2256 2307,2245 2179,2234 2050,2222 1919,2211 1786,2199 1653,2188 1518,2177 1382,2165 1244,2154 1105,2143 964,2131 822,2120 681,2109" style="fill:none;stroke:#FF0000;stroke-width:5"></polyline><circle cx="6500" cy="2700" r="20" style="fill:blue"></circle><text x="0" y="0" font-size="16em" transform="scale(1,-1)">G10 C100 200</text></svg>
