<svg xmlns="http://www.w3.org/2000/svg" style="display: block; transform: scale(1,-1); background: white;" viewBox="0 0 7000 3000"><polyline points="0,1000 300,1500" style="fill:none;stroke:#000000;stroke-width:5"></polyline><polyline points="300,1500 350,1400" style="fill:none;stroke:#000000;stroke-width:5"></polyline><polyline points="350,1400 500,2100" style="fill:none;stroke:#000000;stroke-width:5"></polyline><polyline points="500,2100 1500,2100" style="fill:none;stroke:#000000;stroke-width:5"></polyline><polyline points="1500,2100 2000,200" style="fill:none;stroke:#000000;stroke-width:5"></polyline><polyline points="2000,200 2500,500" style="fill:none;stroke:#000000;stroke-width:5"></polyline><polyline points="2500,500 2900,300" style="fill:none;stroke:#000000;stroke-width:5"></polyline><polyline points="2900,300 3000,200" style="fill:none;stroke:#000000;stroke-width:5"></polyline><polyline points="3000,200 3200,1000" style="fill:none;stroke:#000000;stroke-width:5"></polyline><polyline points="3200,1000 3500,500" style="fill:none;stroke:#000000;stroke-width:5"></polyline><polyline points="3500,500 3800,800" style="fill:none;stroke:#000000;stroke-width:5"></polyline><polyline points="3800,800 4000,200" style="fill:none;stroke:#000000;stroke-width:5"></polyline><polyline points="4000,200 4200,800" style="fill:none;stroke:#000000;stroke-width:5"></polyline><polyline points="4200,800 4800,600" style="fill:none;stroke:#000000;stroke-width:5"></polyline><polyline points="4800,600 5000,1200" style="fill:none;stroke:#000000;stroke-width:5"></polyline><polyline points="5000,1200 5500,900" style="fill:none;stroke:#000000;stroke-width:5"></polyline><polyline points="5500,900 6000,500" style="fill:none;stroke:#000000;stroke-width:5"></polyline><polyline points="6000,500 6500,300" style="fill:none;stroke:#000000;stroke-width:5"></polyline><polyline points="6500,300 6999,500" style="fill:none;stroke:#000000;stroke-width:5"></polyline><polyline points="6500,2700 6449,2698 6397,2693 6343,2686 6288,2678 6230,2670 6171,2662 6110,2654 6047,2645 5982,2637 5916,2629 5848,2620 5779,2611 5708,2603 5635,2594 5560,2585 5484,2576 5406,2567 5326,2558 5245,2548 5162,2539 5077,2530 4991,2520 4903,2511 4813,2501 4722,2491 4628,2481 4534,2471 4437,2461 4339,2451 4239,2441 4137,2431 4034,2421 3929,2410 3822,2400 3714,2389 3604,2378 3492,2367 3379,2357 3264,2346 3147,2335 3028,2323 2908,2312 2786,2301 2662,2290 2537,2278 2410,2266 2282,2255 2151,2243 2019,2231 1885,2219 1750,2207 1613,2195 1474,2183 1334,2171 1191,2159 1047,2146 902,2134 755,2121 606,2108" style="fill:none;stroke:#FF0000;stroke-width:5"></polyline><polyline points="6500,2700 6449,2698 6397,2693 6343,2686 6288,2678 6230,2670 6170,2661 6108,2651 6044,2639 5976,2625 5904,2609 5829,2591 5750,2570 5667,2546 5579,2519 5488,2488 5394,2454 5297,2416 5198,2375 5097,2331 4995,2283 4891,2233 4785,2180 4677,2124 4566,2067 4454,2007 4340,1945 4224,1880 4107,1813 3989,1742 3871,1668 3754,1590 3636,1508 3518,1422 3400,1332 3283,1239 3165,1143 3045,1042 2923,939 2798,834 2671,725 2543,614 2414,499 2284,381" style="fill:none;stroke:#FF0000;stroke-width:5"></polyline><polyline points="6500,2700 6449,2698 6397,2693 6343,2686 6288,2678 6231,2669 6173,2660 6114,2652 6055,2643 5994,2635 5932,2627 5870,2620 5807,2612 5744,2605 5680,2598 5615,2590 5549,2583 5481,2575 5413,2567 5344,2560 5275,2552 5205,2544 5135,2533 5065,2518 4995,2501 4925,2481 4855,2458 4786,2435 4717,2410 4649,2385 4582,2361 4514,2337 4446,2313 4379,2289 4312,2265 4245,2240 4178,2215 4112,2189 4047,2161 3981,2131 3916,2099 3851,2064 3785,2026 3720,1986 3654,1942 3589,1895 3524,1846 3459,1794 3394,1740 3330,1684 3265,1625 3201,1563 3137,1498 3073,1430 3009,1357 2946,1282 2882,1202 2818,1119 2755,1034 2693,945 2631,853 2570,759 2510,662 2450,563 2391,462" style="fill:none;stroke:#FF0000;stroke-width:5"></polyline><polyline points="6500,2700 6449,2698 6397,2693 6343,2686 6287,2678 6228,2669 6166,2659 6102,2648 6034,2636 5964,2624 5890,2610 5814,2596 5736,2580 5654,2564 5569,2547 5482,2529 5392,2511 5299,2491 5203,2470 5104,2449 5003,2427 4898,2403 4791,2379 4681,2354 4569,2329 4453,2302 4334,2274 4213,2246 4089,2216 3962,2186 3832,2155 3700,2123 3564,2090 3426,2056 3285,2022 3141,1986 2994,1950 2845,1912 2692,1874 2537,1835 2379,1795 2218,1754 2054,1712 1888,1670 1719,1626" style="fill:none;stroke:#FF0000;stroke-width:5"></polyline><polyline points="6500,2700 6449,2698 6398,2693 6345,2685 6291,2675 6236,2664 6180,2652 6123,2639 6065,2627 6006,2614 5946,2602 5885,2589 5823,2576 5762,2563 5699,2550 5636,2537 5573,2523 5509,2509 5446,2494 5384,2479 5322,2464 5261,2449 5201,2435 5142,2420 5083,2406 5025,2391 4968,2376 4912,2361 4856,2347 4799,2333 4742,2319 4683,2305 4623,2291 4560,2277 4497,2261 4432,2246 4367,2230 4303,2213 4239,2195 4176,2176 4113,2154 4051,2129 3989,2101 3927,2070 3865,2035 3804,1998 3744,1957 3685,1913 3628,1866 3574,1815 3522,1760 3472,1702 3423,1640 3374,1575 3325,1505 3276,1432 3227,1356 3178,1275 3130,1191 3081,1103 3032,1012 2983,917 2934,818 2885,715 2837,609 2788,499 2741,385" style="fill:none;stroke:#FF0000;stroke-width:5"></polyline><polyline points="6500,2700 6449,2698 6397,2693 6343,2686 6286,2677 6226,2666 6163,2654 6097,2640 6028,2624 5956,2606 5881,2588 5804,2568 5724,2548 5641,2528 5557,2507 5471,2486 5383,2465 5292,2442 5199,2418 5103,2393 5006,2367 4906,2339 4805,2311 4703,2282 4599,2252 4494,2222 4388,2189 4281,2155 4173,2120 4063,2084 3951,2047 3837,2009 3721,1970 3603,1930 3484,1888 3363,1844 3240,1798 3113,1749 2983,1698 2851,1644 2717,1587 2583,1526 2449,1461 2314,1393 2180,1321 2044,1245 1908,1166 1772,1084" style="fill:none;stroke:#FF0000;stroke-width:5"></polyline><polyline points="6500,2700 6449,2698 6397,2693 6343,2686 6288,2678 6231,2668 6173,2658 6113,2647 6052,2634 5990,2621 5927,2607 5863,2591 5797,2575 5730,2558 5661,2539 5592,2520 5521,2500 5450,2479 5377,2457 5303,2434 5228,2410 5151,2385 5074,2359 4995,2332 4914,2304 4833,2275 4750,2245 4666,2214 4580,2182 4494,2149 4406,2115 4317,2080 4226,2044 4135,2008 4042,1970 3947,1931 3852,1891 3755,1850 3657,1808 3558,1765 3457,1721 3355,1677 3252,1631 3148,1584 3042,1536 2935,1487 2827,1438 2718,1387 2607,1335 2495,1282 2382,1228 2267,1174 2151,1118 2034,1061 1916,1003" style="fill:none;stroke:#FF0000;stroke-width:5"></polyline><polyline points="6500,2700 6449,2698 6397,2693 6343,2686 6288,2678 6230,2670 6172,2663 6115,2655 6057,2648 5999,2641 5940,2634 5880,2626 5818,2619 5756,2611 5695,2603 5633,2595 5570,2588 5508,2580 5446,2573 5384,2567 5322,2560 5261,2554 5199,2549 5138,2543 5076,2538 5016,2533 4955,2528 4895,2521 4834,2513 4773,2504 4710,2494 4646,2484 4581,2474 4515,2464 4447,2454 4379,2444 4309,2432 4238,2421 4166,2409 4093,2396 4020,2381 3946,2367 3871,2352 3795,2337 3719,2321 3643,2305 3567,2288 3493,2270 3420,2253 3348,2235 3278,2218 3210,2200 3144,2182 3079,2164 3017,2146 2956,2126 2897,2105 2840,2082 2784,2056 2730,2028 2677,1997 2624,1963 2573,1927 2522,1888 2471,1844 2420,1798 2369,1748 2319,1695 2271,1639 2224,1580 2178,1518 2133,1451 2088,1382 2043,1308 1998,1231 1953,1150 1909,1065 1866,977 1825,885" style="fill:none;stroke:#FF0000;stroke-width:5"></polyline><polyline points="6500,2700 6449,2698 6397,2693 6343,2686 6288,2678 6231,2668 6174,2658 6116,2648 6057,2636 5998,2623 5938,2610 5877,2596 5816,2582 5754,2566 5692,2550 5629,2533 5565,2515 5501,2496 5436,2477 5371,2457 5305,2436 5238,2414 5170,2392 5102,2368 5034,2344 4964,2320 4895,2294 4824,2268 4753,2240 4681,2212 4609,2184 4536,2154 4462,2124 4388,2093 4313,2061 4238,2029 4161,1995 4085,1961 4007,1926 3929,1890 3851,1854 3772,1817 3692,1779 3611,1740 3530,1700 3448,1660 3366,1619 3283,1577 3199,1534 3115,1491 3030,1447 2945,1402 2859,1356 2772,1309 2685,1262 2597,1214 2508,1165 2419,1115 2329,1065 2239,1014 2147,962 2056,909 1963,855 1870,801" style="fill:none;stroke:#FF0000;stroke-width:5"></polyline><polyline points="6500,2700 6449,2698 6397,2693 6343,2686 6288,2677 6230,2667 6169,2656 6107,2642 6043,2627 5976,2611 5908,2593 5837,2573 5764,2552 5689,2529 5612,2505 5533,2479 5452,2451 5368,2422 5282,2391 5195,2358 5105,2325 5013,2289 4919,2252 4823,2213 4724,2173 4624,2131 4521,2087 4417,2042 4310,1995 4201,1947 4090,1897 3977,1846 3862,1793 3744,1738 3625,1682 3503,1624 3379,1565 3253,1504 3125,1441 2995,1377 2863,1311 2729,1244 2592,1175 2454,1104 2313,1032 2170,958 2025,883 1878,806" style="fill:none;stroke:#FF0000;stroke-width:5"></polyline><polyline points="6500,2700 6449,2698 6397,2693 6343,2686 6288,2678 6231,2669 6173,2660 6114,2652 6055,2643 5994,2635 5932,2627 5870,2620 5807,2612 5744,2605 5680,2598 5615,2590 5549,2583 5481,2575 5413,2567 5344,2560 5275,2552 5205,2544 5135,2533 5065,2518 4995,2501 4925,2481 4855,2458 4786,2435 4717,2410 4649,2385 4582,2361 4514,2337 4446,2313 4379,2289 4312,2265 4245,2240 4178,2215 4112,2189 4047,2161 3981,2131 3916,2099 3851,2064 3785,2026 3720,1986 3654,1942 3589,1895 3524,1846 3459,1794 3394,1740 3330,1684 3265,1625 3201,1563 3137,1498 3073,1430 3009,1357 2946,1282 2882,1202 2818,1119 2755,1034 2693,945 2631,853 2570,759 2510,662 2450,563 2391,462" style="fill:none;stroke:#FF0000;stroke-width:5"></polyline><polyline points="6500,2700 6449,2698 6397,2693 6343,2686 6288,2678 6230,2670 6171,2662 6110,2654 6047,2645 5982,2637 5916,2629 5848,2620 5779,2611 5708,2603 5635,2594 5560,2585 5484,2576 5406,2567 5326,2558 5245,2548 5162,2539 5077,2530 4991,2520 4903,2511 4813,2501 4722,2491 4628,2481 4534,2471 4437,2461 4339,2451 4239,2441 4137,2431 4034,2421 3929,2410 3822,2400 3714,2389 3604,2378 3492,2367 3379,2357 3264,2346 3147,2335 3028,2323 2908,2312 2786,2301 2662,2290 2537,2278 2410,2266 2282,2255 2151,2243 2019,2231 1885,2219 1750,2207 1613,2195 1474,2183 1334,2171 1191,2159 1047,2146 902,2134 755,2121 606,2108" style="fill:none;stroke:#FF0000;stroke-width:5"></polyline><polyline points="6500,2700 6449,2698 6397,2693 6343,2686 6288,2678 6230,2670 6171,2662 6110,2654 6047,2645 5982,2637 5916,2629 5848,2620 5779,2611 5708,2603 5635,2594 5560,2585 5484,2576 5406,2567 5326,2558 5245,2548 5162,2539 5077,2530 4991,2520 4903,2511 4813,2501 4722,2491 4628,2481 4534,2471 4437,2461 4339,2451 4239,2441 4137,2431 4034,2421 3929,2410 3822,2400 3714,2389 3604,2378 3492,2367 3379,2357 3264,2346 3147,2335 3028,2323 2908,2312 2786,2301 2662,2290 2537,2278 2410,2266 2282,2255 2151,2243 2019,2231 1885,2219 1750,2207 1613,2195 1474,2183 1334,2171 1191,2159 1047,2146 902,2134 755,2121 606,2108" style="fill:none;stroke:#FF0000;stroke-width:5"></polyline><polyline points="6500,2700 6449,2698 6397,2693 6343,2686 6288,2678 6230,2670 6171,2662 6110,2654 6047,2645 5982,2637 5916,2629 5848,2620 5779,2611 5708,2603 5635,2594 5560,2585 5484,2576 5406,2567 5326,2558 5245,2548 5162,2539 5077,2530 4991,2520 4903,2511 4813,2501 4722,2491 4628,2481 4534,2471 4437,2461 4339,2451 4239,2441 4137,2431 4034,2421 3929,2410 3822,2400 3714,2389 3604,2378 3492,2367 3379,2357 3264,2346 3147,2335 3028,2323 2908,2312 2786,2301 2662,2290 2537,2278 2410,2266 2282,2255 2151,2243 2019,2231 1885,2219 1750,2207 1613,2195 1474,2183 1334,2171 1191,2159 1047,2146 902,2134 755,2121 606,2108" style="fill:none;stroke:#FF0000;stroke-width:5"></polyline><polyline points="6500,2700 6449,2698 6397,2693 6343,2686 6288,2678 6230,2670 6171,2662 6110,2654 6047,2645 5982,2637 5916,2629 5848,2620 5779,2611 5708,2603 5635,2594 5560,2585 5484,2576 5406,2567 5326,2558 5245,2548 5162,2539 5077,2530 4991,2520 4903,2511 4813,2501 4722,2491 4628,2481 4534,2471 4437,2461 4339,2451 4239,2441 4137,2431 4034,2421 3929,2410 3822,2400 3714,2389 3604,2378 3492,2367 3379,2357 3264,2346 3147,2335 3028,2323 2908,2312 2786,2301 2662,2290 2537,2278 2410,2266 2282,2255 2151,2243 2019,2231 1885,2219 1750,2207 1613,2195 1474,2183 1334,2171 1191,2159 1047,2146 902,2134 755,2121 606,2108" style="fill:none;stroke:#FF0000;stroke-width:5"></polyline><polyline points="6500,2700 6449,2698 6397,2693 6343,2686 6288,2678 6230,2670 6171,2662 6110,2654 6047,2645 5982,2637 5916,2629 5848,2620 5779,2611 5708,2603 5635,2594 5560,2585 5484,2576 5406,2567 5326,2558 5245,2548 5162,2539 5077,2530 4991,2520 4903,2511 4813,2501 4722,2491 4628,2481 4534,2471 4437,2461 4339,2451 4239,2441 4137,2431 4034,2421 3929,2410 3822,2400 3714,2389 3604,2378 3492,2367 3379,2357 3264,2346 3147,2335 3028,2323 2908,2312 2786,2301 2662,2290 2537,2278 2410,2266 2282,2255 2151,2243 2019,2231 1885,2219 1750,2207 1613,2195 1474,2183 1334,2171 1191,2159 1047,2146 902,2134 755,2121 606,2108" style="fill:none;stroke:#FF0000;stroke-width:5"></polyline><polyline points="6500,2700 6449,2698 6397,2693 6343,2685 6285,2673 6224,2659 6159,2641 6093,2621 6025,2597 5956,2570 5887,2540 5818,2507 5747,2471 5675,2432 5602,2391 5528,2348 5452,2302 5375,2255 5296,2205 5214,2154 5130,2101 5042,2046 4950,1988 4854,1927 4755,1865 4652,1801 4547,1736 4439,1670 4328,1603 4216,1536 4101,1467 3984,1399 3865,1330 3745,1260 3623,1190 3499,1120 3373,1049 3245,979" style="fill:none;stroke:#FF0000;stroke-width:5"></polyline><polyline points="6500,2700 6449,2698 6397,2693 6343,2686 6288,2678 6230,2670 6171,2662 6110,2654 6047,2645 5982,2637 5916,2629 5848,2620 5779,2611 5708,2603 5635,2594 5560,2585 5484,2576 5406,2567 5326,2558 5245,2548 5162,2539 5077,2530 4991,2520 4903,2511 4813,2501 4722,2491 4628,2481 4534,2471 4437,2461 4339,2451 4239,2441 4137,2431 4034,2421 3929,2410 3822,2400 3714,2389 3604,2378 3492,2367 3379,2357 3264,2346 3147,2335 3028,2323 2908,2312 2786,2301 2662,2290 2537,2278 2410,2266 2282,2255 2151,2243 2019,2231 1885,2219 1750,2207 1613,2195 1474,2183 1334,2171 1191,2159 1047,2146 902,2134 755,2121 606,2108" style="fill:none;stroke:#FF0000;stroke-width:5"></polyline><polyline points="6500,2700 6449,2698 6397,2693 6343,2686 6288,2678 6230,2670 6171,2662 6110,2654 6047,2645 5982,2637 5916,2629 5848,2620 5779,2611 5708,2603 5635,2594 5560,2585 5484,2576 5406,2567 5326,2558 5245,2548 5162,2539 5077,2530 4991,2520 4903,2511 4813,2501 4722,2491 4628,2481 4534,2471 4437,2461 4339,2451 4239,2441 4137,2431 4034,2421 3929,2410 3822,2400 3714,2389 3604,2378 3492,2367 3379,2357 3264,2346 3147,2335 3028,2323 2908,2312 2786,2301 2662,2290 2537,2278 2410,2266 2282,2255 2151,2243 2019,2231 1885,2219 1750,2207 1613,2195 1474,2183 1334,2171 1191,2159 1047,2146 902,2134 755,2121 606,2108" style="fill:none;stroke:#FF0000;stroke-width:5"></polyline><polyline points="6500,2700 6449,2698 6397,2693 6343,2686 6288,2678 6230,2670 6171,2662 6110,2654 6047,2645 5982,2637 5916,2629 5848,2620 5779,2611 5708,2603 5635,2594 5560,2585 5484,2576 5406,2567 5326,2558 5245,2548 5162,2539 5077,2530 4991,2520 4903,2511 4813,2501 4722,2491 4628,2481 4534,2471 4437,2461 4339,2451 4239,2441 4137,2431 4034,2421 3929,2410 3822,2400 3714,2389 3604,2378 3492,2367 3379,2357 3264,2346 3147,2335 3028,2323 2908,2312 2786,2301 2662,2290 2537,2278 2410,2266 2282,2255 2151,2243 2019,2231 1885,2219 1750,2207 1613,2195 1474,2183 1334,2171 1191,2159 1047,2146 902,2134 755,2121 606,2108" style="fill:none;stroke:#FF0000;stroke-width:5"></polyline><polyline points="6500,2700 6449,2698 6397,2693 6343,2686 6288,2678 6230,2670 6171,2662 6110,2654 6047,2645 5982,2637 5916,2629 5848,2620 5779,2611 5708,2603 5635,2594 5560,2585 5484,2576 5406,2567 5326,2558 5245,2548 5162,2539 5077,2530 4991,2520 4903,2511 4813,2501 4722,2491 4628,2481 4534,2471 4437,2461 4339,2451 4239,2441 4137,2431 4034,2421 3929,2410 3822,2400 3714,2389 3604,2378 3492,2367 3379,2357 3264,2346 3147,2335 3028,2323 2908,2312 2786,2301 2662,2290 2537,2278 2410,2266 2282,2255 2151,2243 2019,2231 1885,2219 1750,2207 1613,2195 1474,2183 1334,2171 1191,2159 1047,2146 902,2134 755,2121 606,2108" style="fill:none;stroke:#FF0000;stroke-width:5"></polyline><polyline points="6500,2700 6450,2698 6400,2692 6350,2683 6300,2670 6249,2654 6199,2634 6149,2611 6099,2584 6048,2554 5998,2519 5948,2482 5898,2442 5848,2401 5798,2357 5749,2313 5699,2266 5649,2217 5600,2165 5550,2109 5501,2050 5451,1987 5402,1922 5352,1855 5302,1786 5253,1714 5204,1640 5155,1561 5106,1481 5056,1397 5007,1310 4957,1220 4907,1127 4856,1032 4805,935 4753,839 4701,743" style="fill:none;stroke:#FF0000;stroke-width:5"></polyline><polyline points="6500,2700 6449,2698 6397,2693 6343,2686 6288,2678 6230,2670 6171,2662 6110,2654 6047,2645 5982,2637 5916,2629 5848,2620 5779,2611 5708,2603 5635,2594 5560,2585 5484,2576 5406,2567 5326,2558 5245,2548 5162,2539 5077,2530 4991,2520 4903,2511 4813,2501 4722,2491 4628,2481 4534,2471 4437,2461 4339,2451 4239,2441 4137,2431 4034,2421 3929,2410 3822,2400 3714,2389 3604,2378 3492,2367 3379,2357 3264,2346 3147,2335 3028,2323 2908,2312 2786,2301 2662,2290 2537,2278 2410,2266 2282,2255 2151,2243 2019,2231 1885,2219 1750,2207 1613,2195 1474,2183 1334,2171 1191,2159 1047,2146 902,2134 755,2121 606,2108" style="fill:none;stroke:#FF0000;stroke-width:5"></polyline><polyline points="6500,2700 6449,2698 6397,2693 6343,2686 6288,2678 6230,2670 6171,2662 6110,2654 6047,2645 5982,2637 5916,2629 5848,2620 5779,2611 5708,2603 5635,2594 5560,2585 5484,2576 5406,2567 5326,2558 5245,2548 5162,2539 5077,2530 4991,2520 4903,2511 4813,2501 4722,2491 4628,2481 4534,2471 4437,2461 4339,2451 4239,2441 4137,2431 4034,2421 3929,2410 3822,2400 3714,2389 3604,2378 3492,2367 3379,2357 3264,2346 3147,2335 3028,2323 2908,2312 2786,2301 2662,2290 2537,2278 2410,2266 2282,2255 2151,2243 2019,2231 1885,2219 1750,2207 1613,2195 1474,2183 1334,2171 1191,2159 1047,2146 902,2134 755,2121 606,2108" style="fill:none;stroke:#FF0000;stroke-width:5"></polyline><polyline points="6500,2700 6449,2698 6397,2693 6343,2686 6288,2678 6230,2670 6171,2662 6110,2654 6047,2645 5982,2637 5916,2629 5848,2620 5779,2611 5708,2603 5635,2594 5560,2585 5484,2576 5406,2567 5326,2558 5245,2548 5162,2539 5077,2530 4991,2520 4903,2511 4813,2501 4722,2491 4628,2481 4534,2471 4437,2461 4339,2451 4239,2441 4137,2431 4034,2421 3929,2410 3822,2400 3714,2389 3604,2378 3492,2367 3379,2357 3264,2346 3147,2335 3028,2323 2908,2312 2786,2301 2662,2290 2537,2278 2410,2266 2282,2255 2151,2243 2019,2231 1885,2219 1750,2207 1613,2195 1474,2183 1334,2171 1191,2159 1047,2146 902,2134 755,2121 606,2108" style="fill:none;stroke:#FF0000;stroke-width:5"></polyline><polyline points="6500,2700 6449,2698 6397,2693 6343,2686 6288,2678 6230,2670 6171,2662 6110,2654 6047,2645 5982,2637 5916,2629 5848,2620 5779,2611 5708,2603 5635,2594 5560,2585 5484,2576 5406,2567 5326,2558 5245,2548 5162,2539 5077,2530 4991,2520 4903,2511 4813,2501 4722,2491 4628,2481 4534,2471 4437,2461 4339,2451 4239,2441 4137,2431 4034,2421 3929,2410 3822,2400 3714,2389 3604,2378 3492,2367 3379,2357 3264,2346 3147,2335 3028,2323 2908,2312 2786,2301 2662,2290 2537,2278 2410,2266 2282,2255 2151,2243 2019,2231 1885,2219 1750,2207 1613,2195 1474,2183 1334,2171 1191,2159 1047,2146 902,2134 755,2121 606,2108" style="fill:none;stroke:#FF0000;stroke-width:5"></polyline><polyline points="6500,2700 6449,2698 6397,2693 6343,2686 6288,2678 6230,2670 6171,2662 6110,2654 6047,2645 5982,2637 5916,2629 5848,2620 5779,2611 5708,2603 5635,2594 5560,2585 5484,2576 5406,2567 5326,2558 5245,2548 5162,2539 5077,2530 4991,2520 4903,2511 4813,2501 4722,2491 4628,2481 4534,2471 4437,2461 4339,2451 4239,2441 4137,2431 4034,2421 3929,2410 3822,2400 3714,2389 3604,2378 3492,2367 3379,2357 3264,2346 3147,2335 3028,2323 2908,2312 2786,2301 2662,2290 2537,2278 2410,2266 2282,2255 2151,2243 2019,2231 1885,2219 1750,2207 1613,2195 1474,2183 1334,2171 1191,2159 1047,2146 902,2134 755,2121 606,2108" style="fill:none;stroke:#FF0000;stroke-width:5"></polyline><polyline points="6500,2700 6449,2698 6397,2693 6343,2686 6288,2678 6230,2670 6171,2662 6110,2654 6047,2645 5982,2637 5916,2629 5848,2620 5779,2611 5708,2603 5635,2594 5560,2585 5484,2576 5406,2567 5326,2558 5245,2548 5162,2539 5077,2530 4991,2520 4903,2511 4813,2501 4722,2491 4628,2481 4534,2471 4437,2461 4339,2451 4239,2441 4137,2431 4034,2421 3929,2410 3822,2400 3714,2389 3604,2378 3492,2367 3379,2357 3264,2346 3147,2335 3028,2323 2908,2312 2786,2301 2662,2290 2537,2278 2410,2266 2282,2255 2151,2243 2019,2231 1885,2219 1750,2207 1613,2195 1474,2183 1334,2171 1191,2159 1047,2146 902,2134 755,2121 606,2108" style="fill:none;stroke:#FF0000;stroke-width:5"></polyline><polyline points="6500,2700 6449,2698 6398,2693 6346,2684 6294,2672 6242,2656 6190,2637 6139,2615 6087,2590 6036,2561 5986,2530 5937,2496 5890,2458 5845,2416 5803,2372 5762,2324 5722,2273 5682,2218 5643,2159 5605,2097 5571,2031 5539,1962 5509,1890 5482,1813 5458,1733 5436,1650 5417,1562 5399,1471 5382,1377 5366,1279 5351,1177 5338,1071" style="fill:none;stroke:#FF0000;stroke-width:5"></polyline><polyline points="6500,2700 6449,2698 6397,2693 6343,2686 6288,2678 6230,2670 6171,2662 6110,2654 6047,2645 5982,2637 5916,2629 5848,2620 5779,2611 5708,2603 5635,2594 5560,2585 5484,2576 5406,2567 5326,2558 5245,2548 5162,2539 5077,2530 4991,2520 4903,2511 4813,2501 4722,2491 4628,2481 4534,2471 4437,2461 4339,2451 4239,2441 4137,2431 4034,2421 3929,2410 3822,2400 3714,2389 3604,2378 3492,2367 3379,2357 3264,2346 3147,2335 3028,2323 2908,2312 2786,2301 2662,2290 2537,2278 2410,2266 2282,2255 2151,2243 2019,2231 1885,2219 1750,2207 1613,2195 1474,2183 1334,2171 1191,2159 1047,2146 902,2134 755,2121 606,2108" style="fill:none;stroke:#FF0000;stroke-width:5"></polyline><polyline points="6500,2700 6449,2698 6397,2693 6343,2686 6288,2678 6230,2670 6171,2662 6110,2654 6047,2645 5982,2637 5916,2629 5848,2620 5779,2611 5708,2603 5635,2594 5560,2585 5484,2576 5406,2567 5326,2558 5245,2548 5162,2539 5077,2530 4991,2520 4903,2511 4813,2501 4722,2491 4628,2481 4534,2471 4437,2461 4339,2451 4239,2441 4137,2431 4034,2421 3929,2410 3822,2400 3714,2389 3604,2378 3492,2367 3379,2357 3264,2346 3147,2335 3028,2323 2908,2312 2786,2301 2662,2290 2537,2278 2410,2266 2282,2255 2151,2243 2019,2231 1885,2219 1750,2207 1613,2195 1474,2183 1334,2171 1191,2159 1047,2146 902,2134 755,2121 606,2108" style="fill:none;stroke:#FF0000;stroke-width:5"></polyline><polyline points="6500,2700 6449,2698 6397,2693 6343,2686 6288,2678 6230,2670 6171,2662 6110,2654 6047,2645 5982,2637 5916,2629 5848,2620 5779,2611 5708,2603 5635,2594 5560,2585 5484,2576 5406,2567 5326,2558 5245,2548 5162,2539 5077,2530 4991,2520 4903,2511 4813,2501 4722,2491 4628,2481 4534,2471 4437,2461 4339,2451 4239,2441 4137,2431 4034,2421 3929,2410 3822,2400 3714,2389 3604,2378 3492,2367 3379,2357 3264,2346 3147,2335 3028,2323 2908,2312 2786,2301 2662,2290 2537,2278 2410,2266 2282,2255 2151,2243 2019,2231 1885,2219 1750,2207 1613,2195 1474,2183 1334,2171 1191,2159 1047,2146 902,2134 755,2121 606,2108" style="fill:none;stroke:#FF0000;stroke-width:5"></polyline><polyline points="6500,2700 6449,2698 6397,2693 6343,2686 6288,2678 6230,2670 6171,2662 6110,2654 6047,2645 5982,2637 5916,2629 5848,2620 5779,2611 5708,2603 5635,2594 5560,2585 5484,2576 5406,2567 5326,2558 5245,2548 5162,2539 5077,2530 4991,2520 4903,2511 4813,2501 4722,2491 4628,2481 4534,2471 4437,2461 4339,2451 4239,2441 4137,2431 4034,2421 3929,2410 3822,2400 3714,2389 3604,2378 3492,2367 3379,2357 3264,2346 3147,2335 3028,2323 2908,2312 2786,2301 2662,2290 2537,2278 2410,2266 2282,2255 2151,2243 2019,2231 1885,2219 1750,2207 1613,2195 1474,2183 1334,2171 1191,2159 1047,2146 902,2134 755,2121 606,2108" style="fill:none;stroke:#FF0000;stroke-width:5"></polyline><polyline points="6500,2700 6450,2698 6400,2692 6349,2683 6298,2671 6247,2656 6196,2637 6145,2615 6093,2589 6042,2559 5991,2525 5940,2487 5889,2446 5837,2402 5785,2354 5734,2303 5682,2248 5630,2192 5577,2132 5525,2071 5473,2006 5421,1939 5368,1869 5316,1794 5263,1717 5211,1635 5158,1552 5106,1468 5053,1382 5000,1294 4948,1205 4896,1112 4844,1016 4792,917 4740,816 4688,713" style="fill:none;stroke:#FF0000;stroke-width:5"></polyline><polyline points="6500,2700 6449,2698 6397,2693 6343,2686 6288,2678 6231,2668 6174,2658 6117,2648 6062,2636 6007,2623 5954,2610 5902,2595 5852,2579 5802,2563 5754,2545 5707,2526 5662,2507 5618,2486 5575,2464 5533,2442 5492,2418 5453,2394 5415,2368 5379,2341 5343,2314 5309,2285 5276,2256 5245,2225 5214,2194 5185,2161 5157,2128 5131,2093 5106,2057 5082,2021 5059,1983 5037,1945 5017,1906 4998,1865 4981,1824 4964,1781 4949,1738 4935,1693 4923,1648 4911,1601 4901,1554 4893,1506 4885,1456 4879,1406 4874,1354 4870,1302 4868,1249 4867,1194 4867,1139 4868,1083 4871,1025 4875,967 4880,908" style="fill:none;stroke:#FF0000;stroke-width:5"></polyline><polyline points="6500,2700 6449,2698 6398,2693 6345,2685 6293,2673 6239,2659 6186,2641 6133,2619 6079,2594 6026,2567 5972,2536 5917,2502 5863,2466 5809,2427 5755,2386 5701,2343 5646,2297 5591,2249 5536,2199 5481,2146 5425,2092 5370,2035 5313,1978 5256,1919 5199,1859 5140,1798 5081,1738 5020,1678 4959,1618 4897,1558 4834,1496 4771,1432 4708,1366 4644,1299 4580,1230 4516,1160 4451,1089 4385,1018 4319,946 4252,873 4184,799 4114,726 4044,652 3972,577" style="fill:none;stroke:#FF0000;stroke-width:5"></polyline><polyline points="6500,2700 6449,2698 6397,2693 6343,2686 6288,2678 6230,2670 6171,2662 6110,2654 6047,2645 5982,2637 5916,2629 5848,2620 5779,2611 5708,2603 5635,2594 5560,2585 5484,2576 5406,2567 5326,2558 5245,2548 5162,2539 5077,2530 4991,2520 4903,2511 4813,2501 4722,2491 4628,2481 4534,2471 4437,2461 4339,2451 4239,2441 4137,2431 4034,2421 3929,2410 3822,2400 3714,2389 3604,2378 3492,2367 3379,2357 3264,2346 3147,2335 3028,2323 2908,2312 2786,2301 2662,2290 2537,2278 2410,2266 2282,2255 2151,2243 2019,2231 1885,2219 1750,2207 1613,2195 1474,2183 1334,2171 1191,2159 1047,2146 902,2134 755,2121 606,2108" style="fill:none;stroke:#FF0000;stroke-width:5"></polyline><polyline points="6500,2700 6449,2698 6397,2693 6343,2686 6288,2678 6230,2670 6171,2662 6110,2654 6047,2645 5982,2637 5916,2629 5848,2620 5779,2611 5708,2603 5635,2594 5560,2585 5484,2576 5406,2567 5326,2558 5245,2548 5162,2539 5077,2530 4991,2520 4903,2511 4813,2501 4722,2491 4628,2481 4534,2471 4437,2461 4339,2451 4239,2441 4137,2431 4034,2421 3929,2410 3822,2400 3714,2389 3604,2378 3492,2367 3379,2357 3264,2346 3147,2335 3028,2323 2908,2312 2786,2301 2662,2290 2537,2278 2410,2266 2282,2255 2151,2243 2019,2231 1885,2219 1750,2207 1613,2195 1474,2183 1334,2171 1191,2159 1047,2146 902,2134 755,2121 606,2108" style="fill:none;stroke:#FF0000;stroke-width:5"></polyline><polyline points="6500,2700 6450,2698 6400,2692 6350,2683 6300,2670 6250,2653 6200,2633 6150,2609 6100,2581 6050,2549 6000,2514 5950,2475 5900,2432 5850,2386 5800,2336 5750,2282 5700,2224 5650,2163 5600,2098 5550,2030 5500,1957 5450,1881 5400,1801 5350,1718 5300,1631 5250,1540 5200,1445 5150,1347 5100,1245" style="fill:none;stroke:#FF0000;stroke-width:5"></polyline><polyline points="6500,2700 6449,2698 6397,2693 6343,2686 6288,2678 6230,2670 6171,2662 6110,2654 6047,2645 5982,2637 5916,2629 5848,2620 5779,2611 5708,2603 5635,2594 5560,2585 5484,2576 5406,2567 5326,2558 5245,2548 5162,2539 5077,2530 4991,2520 4903,2511 4813,2501 4722,2491 4628,2481 4534,2471 4437,2461 4339,2451 4239,2441 4137,2431 4034,2421 3929,2410 3822,2400 3714,2389 3604,2378 3492,2367 3379,2357 3264,2346 3147,2335 3028,2323 2908,2312 2786,2301 2662,2290 2537,2278 2410,2266 2282,2255 2151,2243 2019,2231 1885,2219 1750,2207 1613,2195 1474,2183 1334,2171 1191,2159 1047,2146 902,2134 755,2121 606,2108" style="fill:none;stroke:#FF0000;stroke-width:5"></polyline><polyline points="6500,2700 6449,2698 6397,2693 6343,2686 6288,2678 6230,2670 6171,2662 6110,2654 6047,2645 5982,2637 5916,2629 5848,2620 5779,2611 5708,2603 5635,2594 5560,2585 5484,2576 5406,2567 5326,2558 5245,2548 5162,2539 5077,2530 4991,2520 4903,2511 4813,2501 4722,2491 4628,2481 4534,2471 4437,2461 4339,2451 4239,2441 4137,2431 4034,2421 3929,2410 3822,2400 3714,2389 3604,2378 3492,2367 3379,2357 3264,2346 3147,2335 3028,2323 2908,2312 2786,2301 2662,2290 2537,2278 2410,2266 2282,2255 2151,2243 2019,2231 1885,2219 1750,2207 1613,2195 1474,2183 1334,2171 1191,2159 1047,2146 902,2134 755,2121 606,2108" style="fill:none;stroke:#FF0000;stroke-width:5"></polyline><polyline points="6500,2700 6449,2698 6397,2693 6343,2686 6288,2678 6230,2670 6171,2662 6110,2654 6047,2645 5982,2637 5916,2629 5848,2620 5779,2611 5708,2603 5635,2594 5560,2585 5484,2576 5406,2567 5326,2558 5245,2548 5162,2539 5077,2530 4991,2520 4903,2511 4813,2501 4722,2491 4628,2481 4534,2471 4437,2461 4339,2451 4239,2441 4137,2431 4034,2421 3929,2410 3822,2400 3714,2389 3604,2378 3492,2367 3379,2357 3264,2346 3147,2335 3028,2323 2908,2312 2786,2301 2662,2290 2537,2278 2410,2266 2282,2255 2151,2243 2019,2231 1885,2219 1750,2207 1613,2195 1474,2183 1334,2171 1191,2159 1047,2146 902,2134 755,2121 606,2108" style="fill:none;stroke:#FF0000;stroke-width:5"></polyline><polyline points="6500,2700 6449,2698 6397,2693 6343,2686 6288,2678 6230,2670 6171,2662 6110,2654 6047,2645 5982,2637 5916,2629 5848,2620 5779,2611 5708,2603 5635,2594 5560,2585 5484,2576 5406,2567 5326,2558 5245,2548 5162,2539 5077,2530 4991,2520 4903,2511 4813,2501 4722,2491 4628,2481 4534,2471 4437,2461 4339,2451 4239,2441 4137,2431 4034,2421 3929,2410 3822,2400 3714,2389 3604,2378 3492,2367 3379,2357 3264,2346 3147,2335 3028,2323 2908,2312 2786,2301 2662,2290 2537,2278 2410,2266 2282,2255 2151,2243 2019,2231 1885,2219 1750,2207 1613,2195 1474,2183 1334,2171 1191,2159 1047,2146 902,2134 755,2121 606,2108" style="fill:none;stroke:#FF0000;stroke-width:5"></polyline><polyline points="6500,2700 6449,2698 6397,2693 6343,2686 6288,2678 6230,2670 6171,2662 6110,2654 6047,2645 5982,2637 5916,2629 5848,2620 5779,2611 5708,2603 5635,2594 5560,2585 5484,2576 5406,2567 5326,2558 5245,2548 5162,2539 5077,2530 4991,2520 4903,2511 4813,2501 4722,2491 4628,2481 4534,2471 4437,2461 4339,2451 4239,2441 4137,2431 4034,2421 3929,2410 3822,2400 3714,2389 3604,2378 3492,2367 3379,2357 3264,2346 3147,2335 3028,2323 2908,2312 2786,2301 2662,2290 2537,2278 2410,2266 2282,2255 2151,2243 2019,2231 1885,2219 1750,2207 1613,2195 1474,2183 1334,2171 1191,2159 1047,2146 902,2134 755,2121 606,2108" style="fill:none;stroke:#FF0000;stroke-width:5"></polyline><polyline points="6500,2700 6449,2698 6397,2693 6343,2686 6288,2678 6230,2670 6171,2662 6110,2654 6047,2645 5982,2637 5916,2629 5848,2620 5779,2611 5708,2603 5635,2594 5560,2585 5484,2576 5406,2567 5326,2558 5245,2548 5162,2539 5077,2530 4991,2520 4903,2511 4813,2501 4722,2491 4628,2481 4534,2471 4437,2461 4339,2451 4239,2441 4137,2431 4034,2421 3929,2410 3822,2400 3714,2389 3604,2378 3492,2367 3379,2357 3264,2346 3147,2335 3028,2323 2908,2312 2786,2301 2662,2290 2537,2278 2410,2266 2282,2255 2151,2243 2019,2231 1885,2219 1750,2207 1613,2195 1474,2183 1334,2171 1191,2159 1047,2146 902,2134 755,2121 606,2108" style="fill:none;stroke:#FF0000;stroke-width:5"></polyline><polyline points="6500,2700 6449,2698 6397,2693 6343,2686 6288,2678 6230,2670 6171,2662 6110,2654 6047,2645 5982,2637 5916,2629 5848,2620 5779,2611 5708,2603 5635,2594 5560,2585 5484,2576 5406,2567 5326,2558 5245,2548 5162,2539 5077,2530 4991,2520 4903,2511 4813,2501 4722,2491 4628,2481 4534,2471 4437,2461 4339,2451 4239,2441 4137,2431 4034,2421 3929,2410 3822,2400 3714,2389 3604,2378 3492,2367 3379,2357 3264,2346 3147,2335 3028,2323 2908,2312 2786,2301 2662,2290 2537,2278 2410,2266 2282,2255 2151,2243 2019,2231 1885,2219 1750,2207 1613,2195 1474,2183 1334,2171 1191,2159 1047,2146 902,2134 755,2121 606,2108" style="fill:none;stroke:#FF0000;stroke-width:5"></polyline><polyline points="6500,2700 6449,2698 6397,2693 6343,2686 6288,2678 6230,2670 6171,2662 6110,2654 6047,2645 5982,2637 5916,2629 5848,2620 5779,2611 5708,2603 5635,2594 5560,2585 5484,2576 5406,2567 5326,2558 5245,2548 5162,2539 5077,2530 4991,2520 4903,2511 4813,2501 4722,2491 4628,2481 4534,2471 4437,2461 4339,2451 4239,2441 4137,2431 4034,2421 3929,2410 3822,2400 3714,2389 3604,2378 3492,2367 3379,2357 3264,2346 3147,2335 3028,2323 2908,2312 2786,2301 2662,2290 2537,2278 2410,2266 2282,2255 2151,2243 2019,2231 1885,2219 1750,2207 1613,2195 1474,2183 1334,2171 1191,2159 1047,2146 902,2134 755,2121 606,2108" style="fill:none;stroke:#FF0000;stroke-width:5"></polyline><polyline points="6500,2700 6449,2698 6397,2693 6343,2686 6288,2678 6230,2670 6171,2662 6110,2654 6047,2645 5982,2637 5916,2629 5848,2620 5779,2611 5708,2603 5635,2594 5560,2585 5484,2576 5406,2567 5326,2558 5245,2548 5162,2539 5077,2530 4991,2520 4903,2511 4813,2501 4722,2491 4628,2481 4534,2471 4437,2461 4339,2451 4239,2441 4137,2431 4034,2421 3929,2410 3822,2400 3714,2389 3604,2378 3492,2367 3379,2357 3264,2346 3147,2335 3028,2323 2908,2312 2786,2301 2662,2290 2537,2278 2410,2266 2282,2255 2151,2243 2019,2231 1885,2219 1750,2207 1613,2195 1474,2183 1334,2171 1191,2159 1047,2146 902,2134 755,2121 606,2108" style="fill:none;stroke:#FF0000;stroke-width:5"></polyline><polyline points="6500,2700 6449,2698 6397,2693 6343,2686 6288,2678 6230,2670 6171,2662 6110,2654 6047,2645 5982,2637 5916,2629 5848,2620 5779,2611 5708,2603 5635,2594 5560,2585 5484,2576 5406,2567 5326,2558 5245,2548 5162,2539 5077,2530 4991,2520 4903,2511 4813,2501 4722,2491 4628,2481 4534,2471 4437,2461 4339,2451 4239,2441 4137,2431 4034,2421 3929,2410 3822,2400 3714,2389 3604,2378 3492,2367 3379,2357 3264,2346 3147,2335 3028,2323 2908,2312 2786,2301 2662,2290 2537,2278 2410,2266 2282,2255 2151,2243 2019,2231 1885,2219 1750,2207 1613,2195 1474,2183 1334,2171 1191,2159 1047,2146 902,2134 755,2121 606,2108" style="fill:none;stroke:#FF0000;stroke-width:5"></polyline><polyline points="6500,2700 6449,2698 6397,2693 6343,2686 6288,2678 6230,2670 6171,2662 6110,2654 6047,2645 5982,2637 5916,2629 5848,2620 5779,2611 5708,2603 5635,2594 5560,2585 5484,2576 5406,2567 5326,2558 5245,2548 5162,2539 5077,2530 4991,2520 4903,2511 4813,2501 4722,2491 4628,2481 4534,2471 4437,2461 4339,2451 4239,2441 4137,2431 4034,2421 3929,2410 3822,2400 3714,2389 3604,2378 3492,2367 3379,2357 3264,2346 3147,2335 3028,2323 2908,2312 2786,2301 2662,2290 2537,2278 2410,2266 2282,2255 2151,2243 2019,2231 1885,2219 1750,2207 1613,2195 1474,2183 1334,2171 1191,2159 1047,2146 902,2134 755,2121 606,2108" style="fill:none;stroke:#FF0000;stroke-width:5"></polyline><polyline points="6500,2700 6449,2698 6397,2693 6343,2686 6288,2678 6230,2670 6171,2662 6110,2654 6047,2645 5982,2637 5916,2629 5848,2620 5779,2611 5708,2603 5635,2594 5560,2585 5484,2576 5406,2567 5326,2558 5245,2548 5162,2539 5077,2530 4991,2520 4903,2511 4813,2501 4722,2491 4628,2481 4534,2471 4437,2461 4339,2451 4239,2441 4137,2431 4034,2421 3929,2410 3822,2400 3714,2389 3604,2378 3492,2367 3379,2357 3264,2346 3147,2335 3028,2323 2908,2312 2786,2301 2662,2290 2537,2278 2410,2266 2282,2255 2151,2243 2019,2231 1885,2219 1750,2207 1613,2195 1474,2183 1334,2171 1191,2159 1047,2146 902,2134 755,2121 606,2108" style="fill:none;stroke:#FF0000;stroke-width:5"></polyline><polyline points="6500,2700 6449,2698 6397,2693 6343,2686 6288,2678 6230,2670 6171,2662 6110,2654 6047,2645 5982,2637 5916,2629 5848,2620 5779,2611 5708,2603 5635,2594 5560,2585 5484,2576 5406,2567 5326,2558 5245,2548 5162,2539 5077,2530 4991,2520 4903,2511 4813,2501 4722,2491 4628,2481 4534,2471 4437,2461 4339,2451 4239,2441 4137,2431 4034,2421 3929,2410 3822,2400 3714,2389 3604,2378 3492,2367 3379,2357 3264,2346 3147,2335 3028,2323 2908,2312 2786,2301 2662,2290 2537,2278 2410,2266 2282,2255 2151,2243 2019,2231 1885,2219 1750,2207 1613,2195 1474,2183 1334,2171 1191,2159 1047,2146 902,2134 755,2121 606,2108" style="fill:none;stroke:#FF0000;stroke-width:5"></polyline><polyline points="6500,2700 6449,2698 6397,2693 6343,2686 6288,2678 6230,2670 6171,2662 6110,2654 6047,2645 5982,2637 5916,2629 5848,2620 5779,2611 5708,2603 5635,2594 5560,2585 5484,2576 5406,2567 5326,2558 5245,2548 5162,2539 5077,2530 4991,2520 4903,2511 4813,2501 4722,2491 4628,2481 4534,2471 4437,2461 4339,2451 4239,2441 4137,2431 4034,2421 3929,2410 3822,2400 3714,2389 3604,2378 3492,2367 3379,2357 3264,2346 3147,2335 3028,2323 2908,2312 2786,2301 2662,2290 2537,2278 2410,2266 2282,2255 2151,2243 2019,2231 1885,2219 1750,2207 1613,2195 1474,2183 1334,2171 1191,2159 1047,2146 902,2134 755,2121 606,2108" style="fill:none;stroke:#FF0000;stroke-width:5"></polyline><polyline points="6500,2700 6449,2698 6397,2693 6343,2686 6288,2678 6230,2670 6171,2662 6110,2654 6047,2645 5982,2637 5916,2629 5848,2620 5779,2611 5708,2603 5635,2594 5560,2585 5484,2576 5406,2567 5326,2558 5245,2548 5162,2539 5077,2530 4991,2520 4903,2511 4813,2501 4722,2491 4628,2481 4534,2471 4437,2461 4339,2451 4239,2441 4137,2431 4034,2421 3929,2410 3822,2400 3714,2389 3604,2378 3492,2367 3379,2357 3264,2346 3147,2335 3028,2323 2908,2312 2786,2301 2662,2290 2537,2278 2410,2266 2282,2255 2151,2243 2019,2231 1885,2219 1750,2207 1613,2195 1474,2183 1334,2171 1191,2159 1047,2146 902,2134 755,2121 606,2108" style="fill:none;stroke:#FF0000;stroke-width:5"></polyline><polyline points="6500,2700 6449,2698 6397,2693 6343,2686 6288,2678 6230,2670 6171,2662 6110,2654 6047,2645 5982,2637 5916,2629 5848,2620 5779,2611 5708,2603 5635,2594 5560,2585 5484,2576 5406,2567 5326,2558 5245,2548 5162,2539 5077,2530 4991,2520 4903,2511 4813,2501 4722,2491 4628,2481 4534,2471 4437,2461 4339,2451 4239,2441 4137,2431 4034,2421 3929,2410 3822,2400 3714,2389 3604,2378 3492,2367 3379,2357 3264,2346 3147,2335 3028,2323 2908,2312 2786,2301 2662,2290 2537,2278 2410,2266 2282,2255 2151,2243 2019,2231 1885,2219 1750,2207 1613,2195 1474,2183 1334,2171 1191,2159 1047,2146 902,2134 755,2121 606,2108" style="fill:none;stroke:#FF0000;stroke-width:5"></polyline><polyline points="6500,2700 6449,2698 6397,2693 6343,2686 6288,2678 6230,2670 6171,2662 6110,2654 6047,2645 5982,2637 5916,2629 5848,2620 5779,2611 5708,2603 5635,2594 5560,2585 5484,2576 5406,2567 5326,2558 5245,2548 5162,2539 5077,2530 4991,2520 4903,2511 4813,2501 4722,2491 4628,2481 4534,2471 4437,2461 4339,2451 4239,2441 4137,2431 4034,2421 3929,2410 3822,2400 3714,2389 3604,2378 3492,2367 3379,2357 3264,2346 3147,2335 3028,2323 2908,2312 2786,2301 2662,2290 2537,2278 2410,2266 2282,2255 2151,2243 2019,2231 1885,2219 1750,2207 1613,2195 1474,2183 1334,2171 1191,2159 1047,2146 902,2134 755,2121 606,2108" style="fill:none;stroke:#FF0000;stroke-width:5"></polyline><polyline points="6500,2700 6449,2698 6397,2693 6343,2686 6288,2678 6230,2670 6171,2662 6110,2654 6047,2645 5982,2637 5916,2629 5848,2620 5779,2611 5708,2603 5635,2594 5560,2585 5484,2576 5406,2567 5326,2558 5245,2548 5162,2539 5077,2530 4991,2520 4903,2511 4813,2501 4722,2491 4628,2481 4534,2471 4437,2461 4339,2451 4239,2441 4137,2431 4034,2421 3929,2410 3822,2400 3714,2389 3604,2378 3492,2367 3379,2357 3264,2346 3147,2335 3028,2323 2908,2312 2786,2301 2662,2290 2537,2278 2410,2266 2282,2255 2151,2243 2019,2231 1885,2219 1750,2207 1613,2195 1474,2183 1334,2171 1191,2159 1047,2146 902,2134 755,2121 606,2108" style="fill:none;stroke:#FF0000;stroke-width:5"></polyline><polyline points="6500,2700 6449,2698 6397,2693 6343,2686 6288,2678 6230,2670 6171,2662 6110,2654 6047,2645 5982,2637 5916,2629 5848,2620 5779,2611 5708,2603 5635,2594 5560,2585 5484,2576 5406,2567 5326,2558 5245,2548 5162,2539 5077,2530 4991,2520 4903,2511 4813,2501 4722,2491 4628,2481 4534,2471 4437,2461 4339,2451 4239,2441 4137,2431 4034,2421 3929,2410 3822,2400 3714,2389 3604,2378 3492,2367 3379,2357 3264,2346 3147,2335 3028,2323 2908,2312 2786,2301 2662,2290 2537,2278 2410,2266 2282,2255 2151,2243 2019,2231 1885,2219 1750,2207 1613,2195 1474,2183 1334,2171 1191,2159 1047,2146 902,2134 755,2121 606,2108" style="fill:none;stroke:#FF0000;stroke-width:5"></polyline><polyline points="6500,2700 6449,2698 6397,2693 6343,2686 6288,2678 6230,2670 6171,2662 6110,2654 6047,2645 5982,2637 5916,2629 5848,2620 5779,2611 5708,2603 5635,2594 5560,2585 5484,2576 5406,2567 5326,2558 5245,2548 5162,2539 5077,2530 4991,2520 4903,2511 4813,2501 4722,2491 4628,2481 4534,2471 4437,2461 4339,2451 4239,2441 4137,2431 4034,2421 3929,2410 3822,2400 3714,2389 3604,2378 3492,2367 3379,2357 3264,2346 3147,2335 3028,2323 2908,2312 2786,2301 2662,2290 2537,2278 2410,2266 2282,2255 2151,2243 2019,2231 1885,2219 1750,2207 1613,2195 1474,2183 1334,2171 1191,2159 1047,2146 902,2134 755,2121 606,2108" style="fill:none;stroke:#FF0000;stroke-width:5"></polyline><polyline points="6500,2700 6449,2698 6397,2693 6343,2686 6288,2678 6230,2670 6171,2662 6110,2654 6047,2645 5982,2637 5916,2629 5848,2620 5779,2611 5708,2603 5635,2594 5560,2585 5484,2576 5406,2567 5326,2558 5245,2548 5162,2539 5077,2530 4991,2520 4903,2511 4813,2501 4722,2491 4628,2481 4534,2471 4437,2461 4339,2451 4239,2441 4137,2431 4034,2421 3929,2410 3822,2400 3714,2389 3604,2378 3492,2367 3379,2357 3264,2346 3147,2335 3028,2323 2908,2312 2786,2301 2662,2290 2537,2278 2410,2266 2282,2255 2151,2243 2019,2231 1885,2219 1750,2207 1613,2195 1474,2183 1334,2171 1191,2159 1047,2146 902,2134 755,2121 606,2108" style="fill:none;stroke:#FF0000;stroke-width:5"></polyline><polyline points="6500,2700 6449,2698 6397,2693 6343,2686 6288,2678 6230,2670 6171,2662 6110,2654 6047,2645 5982,2637 5916,2629 5848,2620 5779,2611 5708,2603 5635,2594 5560,2585 5484,2576 5406,2567 5326,2558 5245,2548 5162,2539 5077,2530 4991,2520 4903,2511 4813,2501 4722,2491 4628,2481 4534,2471 4437,2461 4339,2451 4239,2441 4137,2431 4034,2421 3929,2410 3822,2400 3714,2389 3604,2378 3492,2367 3379,2357 3264,2346 3147,2335 3028,2323 2908,2312 2786,2301 2662,2290 2537,2278 2410,2266 2282,2255 2151,2243 2019,2231 1885,2219 1750,2207 1613,2195 1474,2183 1334,2171 1191,2159 1047,2146 902,2134 755,2121 606,2108" style="fill:none;stroke:#FF0000;stroke-width:5"></polyline><polyline points="6500,2700 6449,2698 6397,2693 6343,2686 6288,2678 6230,2670 6171,2662 6110,2654 6047,2645 5982,2637 5916,2629 5848,2620 5779,2611 5708,2603 5635,2594 5560,2585 5484,2576 5406,2567 5326,2558 5245,2548 5162,2539 5077,2530 4991,2520 4903,2511 4813,2501 4722,2491 4628,2481 4534,2471 4437,2461 4339,2451 4239,2441 4137,2431 4034,2421 3929,2410 3822,2400 3714,2389 3604,2378 3492,2367 3379,2357 3264,2346 3147,2335 3028,2323 2908,2312 2786,2301 2662,2290 2537,2278 2410,2266 2282,2255 2151,2243 2019,2231 1885,2219 1750,2207 1613,2195 1474,2183 1334,2171 1191,2159 1047,2146 902,2134 755,2121 606,2108" style="fill:none;stroke:#FF0000;stroke-width:5"></polyline><polyline points="6500,2700 6449,2698 6397,2693 6343,2686 6288,2678 6230,2670 6171,2662 6110,2654 6047,2645 5982,2637 5916,2629 5848,2620 5779,2611 5708,2603 5635,2594 5560,2585 5484,2576 5406,2567 5326,2558 5245,2548 5162,2539 5077,2530 4991,2520 4903,2511 4813,2501 4722,2491 4628,2481 4534,2471 4437,2461 4339,2451 4239,2441 4137,2431 4034,2421 3929,2410 3822,2400 3714,2389 3604,2378 3492,2367 3379,2357 3264,2346 3147,2335 3028,2323 2908,2312 2786,2301 2662,2290 2537,2278 2410,2266 2282,2255 2151,2243 2019,2231 1885,2219 1750,2207 1613,2195 1474,2183 1334,2171 1191,2159 1047,2146 902,2134 755,2121 606,2108" style="fill:none;stroke:#FF0000;stroke-width:5"></polyline><polyline points="6500,2700 6449,2698 6397,2693 6343,2686 6288,2678 6230,2670 6171,2662 6110,2654 6047,2645 5982,2637 5916,2629 5848,2620 5779,2611 5708,2603 5635,2594 5560,2585 5484,2576 5406,2567 5326,2558 5245,2548 5162,2539 5077,2530 4991,2520 4903,2511 4813,2501 4722,2491 4628,2481 4534,2471 4437,2461 4339,2451 4239,2441 4137,2431 4034,2421 3929,2410 3822,2400 3714,2389 3604,2378 3492,2367 3379,2357 3264,2346 3147,2335 3028,2323 2908,2312 2786,2301 2662,2290 2537,2278 2410,2266 2282,2255 2151,2243 2019,2231 1885,2219 1750,2207 1613,2195 1474,2183 1334,2171 1191,2159 1047,2146 902,2134 755,2121 606,2108" style="fill:none;stroke:#FF0000;stroke-width:5"></polyline><polyline points="6500,2700 6449,2698 6397,2693 6343,2686 6288,2678 6230,2670 6171,2662 6110,2654 6047,2645 5982,2637 5916,2629 5848,2620 5779,2611 5708,2603 5635,2594 5560,2585 5484,2576 5406,2567 5326,2558 5245,2548 5162,2539 5077,2530 4991,2520 4903,2511 4813,2501 4722,2491 4628,2481 4534,2471 4437,2461 4339,2451 4239,2441 4137,2431 4034,2421 3929,2410 3822,2400 3714,2389 3604,2378 3492,2367 3379,2357 3264,2346 3147,2335 3028,2323 2908,2312 2786,2301 2662,2290 2537,2278 2410,2266 2282,2255 2151,2243 2019,2231 1885,2219 1750,2207 1613,2195 1474,2183 1334,2171 1191,2159 1047,2146 902,2134 755,2121 606,2108" style="fill:none;stroke:#FF0000;stroke-width:5"></polyline><polyline points="6500,2700 6449,2698 6397,2693 6343,2686 6288,2678 6230,2670 6171,2662 6110,2654 6047,2645 5982,2637 5916,2629 5848,2620 5779,2611 5708,2603 5635,2594 5560,2585 5484,2576 5406,2567 5326,2558 5245,2548 5162,2539 5077,2530 4991,2520 4903,2511 4813,2501 4722,2491 4628,2481 4534,2471 4437,2461 4339,2451 4239,2441 4137,2431 4034,2421 3929,2410 3822,2400 3714,2389 3604,2378 3492,2367 3379,2357 3264,2346 3147,2335 3028,2323 2908,2312 2786,2301 2662,2290 2537,2278 2410,2266 2282,2255 2151,2243 2019,2231 1885,2219 1750,2207 1613,2195 1474,2183 1334,2171 1191,2159 1047,2146 902,2134 755,2121 606,2108" style="fill:none;stroke:#FF0000;stroke-width:5"></polyline><polyline points="6500,2700 6449,2698 6397,2693 6343,2686 6288,2678 6230,2670 6171,2662 6110,2654 6047,2645 5982,2637 5916,2629 5848,2620 5779,2611 5708,2603 5635,2594 5560,2585 5484,2576 5406,2567 5326,2558 5245,2548 5162,2539 5077,2530 4991,2520 4903,2511 4813,2501 4722,2491 4628,2481 4534,2471 4437,2461 4339,2451 4239,2441 4137,2431 4034,2421 3929,2410 3822,2400 3714,2389 3604,2378 3492,2367 3379,2357 3264,2346 3147,2335 3028,2323 2908,2312 2786,2301 2662,2290 2537,2278 2410,2266 2282,2255 2151,2243 2019,2231 1885,2219 1750,2207 1613,2195 1474,2183 1334,2171 1191,2159 1047,2146 902,2134 755,2121 606,2108" style="fill:none;stroke:#FF0000;stroke-width:5"></polyline><polyline points="6500,2700 6449,2698 6397,2693 6343,2686 6288,2678 6230,2670 6171,2662 6110,2654 6047,2645 5982,2637 5916,2629 5848,2620 5779,2611 5708,2603 5635,2594 5560,2585 5484,2576 5406,2567 5326,2558 5245,2548 5162,2539 5077,2530 4991,2520 4903,2511 4813,2501 4722,2491 4628,2481 4534,2471 4437,2461 4339,2451 4239,2441 4137,2431 4034,2421 3929,2410 3822,2400 3714,2389 3604,2378 3492,2367 3379,2357 3264,2346 3147,2335 3028,2323 2908,2312 2786,2301 2662,2290 2537,2278 2410,2266 2282,2255 2151,2243 2019,2231 1885,2219 1750,2207 1613,2195 1474,2183 1334,2171 1191,2159 1047,2146 902,2134 755,2121 606,2108" style="fill:none;stroke:#FF0000;stroke-width:5"></polyline><polyline points="6500,2700 6449,2698 6397,2693 6343,2686 6288,2678 6230,2670 6171,2662 6110,2654 6047,2645 5982,2637 5916,2629 5848,2620 5779,2611 5708,2603 5635,2594 5560,2585 5484,2576 5406,2567 5326,2558 5245,2548 5162,2539 5077,2530 4991,2520 4903,2511 4813,2501 4722,2491 4628,2481 4534,2471 4437,2461 4339,2451 4239,2441 4137,2431 4034,2421 3929,2410 3822,2400 3714,2389 3604,2378 3492,2367 3379,2357 3264,2346 3147,2335 3028,2323 2908,2312 2786,2301 2662,2290 2537,2278 2410,2266 2282,2255 2151,2243 2019,2231 1885,2219 1750,2207 1613,2195 1474,2183 1334,2171 1191,2159 1047,2146 902,2134 755,2121 606,2108" style="fill:none;stroke:#FF0000;stroke-width:5"></polyline><polyline points="6500,2700 6449,2698 6397,2693 6343,2686 6288,2678 6230,2670 6171,2662 6110,2654 6047,2645 5982,2637 5916,2629 5848,2620 5779,2611 5708,2603 5635,2594 5560,2585 5484,2576 5406,2567 5326,2558 5245,2548 5162,2539 5077,2530 4991,2520 4903,2511 4813,2501 4722,2491 4628,2481 4534,2471 4437,2461 4339,2451 4239,2441 4137,2431 4034,2421 3929,2410 3822,2400 3714,2389 3604,2378 3492,2367 3379,2357 3264,2346 3147,2335 3028,2323 2908,2312 2786,2301 2662,2290 2537,2278 2410,2266 2282,2255 2151,2243 2019,2231 1885,2219 1750,2207 1613,2195 1474,2183 1334,2171 1191,2159 1047,2146 902,2134 755,2121 606,2108" style="fill:none;stroke:#FF0000;stroke-width:5"></polyline><polyline points="6500,2700 6449,2698 6397,2693 6343,2686 6288,2678 6230,2670 6171,2662 6110,2654 6047,2645 5982,2637 5916,2629 5848,2620 5779,2611 5708,2603 5635,2594 5560,2585 5484,2576 5406,2567 5326,2558 5245,2548 5162,2539 5077,2530 4991,2520 4903,2511 4813,2501 4722,2491 4628,2481 4534,2471 4437,2461 4339,2451 4239,2441 4137,2431 4034,2421 3929,2410 3822,2400 3714,2389 3604,2378 3492,2367 3379,2357 3264,2346 3147,2335 3028,2323 2908,2312 2786,2301 2662,2290 2537,2278 2410,2266 2282,2255 2151,2243 2019,2231 1885,2219 1750,2207 1613,2195 1474,2183 1334,2171 1191,2159 1047,2146 902,2134 755,2121 606,2108" style="fill:none;stroke:#FF0000;stroke-width:5"></polyline><polyline points="6500,2700 6449,2698 6397,2693 6343,2686 6288,2678 6230,2670 6171,2662 6110,2654 6047,2645 5982,2637 5916,2629 5848,2620 5779,2611 5708,2603 5635,2594 5560,2585 5484,2576 5406,2567 5326,2558 5245,2548 5162,2539 5077,2530 4991,2520 4903,2511 4813,2501 4722,2491 4628,2481 4534,2471 4437,2461 4339,2451 4239,2441 4137,2431 4034,2421 3929,2410 3822,2400 3714,2389 3604,2378 3492,2367 3379,2357 3264,2346 3147,2335 3028,2323 2908,2312 2786,2301 2662,2290 2537,2278 2410,2266 2282,2255 2151,2243 2019,2231 1885,2219 1750,2207 1613,2195 1474,2183 1334,2171 1191,2159 1047,2146 902,2134 755,2121 606,2108" style="fill:none;stroke:#FF0000;stroke-width:5"></polyline><polyline points="6500,2700 6449,2698 6397,2693 6343,2686 6288,2678 6230,2670 6171,2662 6110,2654 6047,2645 5982,2637 5916,2629 5848,2620 5779,2611 5708,2603 5635,2594 5560,2585 5484,2576 5406,2567 5326,2558 5245,2548 5162,2539 5077,2530 4991,2520 4903,2511 4813,2501 4722,2491 4628,2481 4534,2471 4437,2461 4339,2451 4239,2441 4137,2431 4034,2421 3929,2410 3822,2400 3714,2389 3604,2378 3492,2367 3379,2357 3264,2346 3147,2335 3028,2323 2908,2312 2786,2301 2662,2290 2537,2278 2410,2266 2282,2255 2151,2243 2019,2231 1885,2219 1750,2207 1613,2195 1474,2183 1334,2171 1191,2159 1047,2146 902,2134 755,2121 606,2108" style="fill:none;stroke:#FF0000;stroke-width:5"></polyline><polyline points="6500,2700 6449,2698 6397,2693 6343,2686 6288,2678 6230,2670 6171,2662 6110,2654 6047,2645 5982,2637 5916,2629 5848,2620 5779,2611 5708,2603 5635,2594 5560,2585 5484,2576 5406,2567 5326,2558 5245,2548 5162,2539 5077,2530 4991,2520 4903,2511 4813,2501 4722,2491 4628,2481 4534,2471 4437,2461 4339,2451 4239,2441 4137,2431 4034,2421 3929,2410 3822,2400 3714,2389 3604,2378 3492,2367 3379,2357 3264,2346 3147,2335 3028,2323 2908,2312 2786,2301 2662,2290 2537,2278 2410,2266 2282,2255 2151,2243 2019,2231 1885,2219 1750,2207 1613,2195 1474,2183 1334,2171 1191,2159 1047,2146 902,2134 755,2121 606,2108" style="fill:none;stroke:#FF0000;stroke-width:5"></polyline><polyline points="6500,2700 6449,2698 6397,2693 6343,2686 6288,2678 6230,2670 6171,2662 6110,2654 6047,2645 5982,2637 5916,2629 5848,2620 5779,2611 5708,2603 5635,2594 5560,2585 5484,2576 5406,2567 5326,2558 5245,2548 5162,2539 5077,2530 4991,2520 4903,2511 4813,2501 4722,2491 4628,2481 4534,2471 4437,2461 4339,2451 4239,2441 4137,2431 4034,2421 3929,2410 3822,2400 3714,2389 3604,2378 3492,2367 3379,2357 3264,2346 3147,2335 3028,2323 2908,2312 2786,2301 2662,2290 2537,2278 2410,2266 2282,2255 2151,2243 2019,2231 1885,2219 1750,2207 1613,2195 1474,2183 1334,2171 1191,2159 1047,2146 902,2134 755,2121 606,2108" style="fill:none;stroke:#FF0000;stroke-width:5"></polyline><polyline points="6500,2700 6449,2698 6397,2693 6343,2686 6288,2678 6230,2670 6171,2662 6110,2654 6047,2645 5982,2637 5916,2629 5848,2620 5779,2611 5708,2603 5635,2594 5560,2585 5484,2576 5406,2567 5326,2558 5245,2548 5162,2539 5077,2530 4991,2520 4903,2511 4813,2501 4722,2491 4628,2481 4534,2471 4437,2461 4339,2451 4239,2441 4137,2431 4034,2421 3929,2410 3822,2400 3714,2389 3604,2378 3492,2367 3379,2357 3264,2346 3147,2335 3028,2323 2908,2312 2786,2301 2662,2290 2537,2278 2410,2266 2282,2255 2151,2243 2019,2231 1885,2219 1750,2207 1613,2195 1474,2183 1334,2171 1191,2159 1047,2146 902,2134 755,2121 606,2108" style="fill:none;stroke:#FF0000;stroke-width:5"></polyline><polyline points="6500,2700 6449,2698 6397,2693 6343,2686 6288,2678 6230,2670 6171,2662 6110,2654 6047,2645 5982,2637 5916,2629 5848,2620 5779,2611 5708,2603 5635,2594 5560,2585 5484,2576 5406,2567 5326,2558 5245,2548 5162,2539 5077,2530 4991,2520 4903,2511 4813,2501 4722,2491 4628,2481 4534,2471 4437,2461 4339,2451 4239,2441 4137,2431 4034,2421 3929,2410 3822,2400 3714,2389 3604,2378 3492,2367 3379,2357 3264,2346 3147,2335 3028,2323 2908,2312 2786,2301 2662,2290 2537,2278 2410,2266 2282,2255 2151,2243 2019,2231 1885,2219 1750,2207 1613,2195 1474,2183 1334,2171 1191,2159 1047,2146 902,2134 755,2121 606,2108" style="fill:none;stroke:#FF0000;stroke-width:5"></polyline><polyline points="6500,2700 6449,2698 6397,2693 6343,2686 6288,2678 6230,2670 6171,2662 6110,2654 6047,2645 5982,2637 5916,2629 5848,2620 5779,2611 5708,2603 5635,2594 5560,2585 5484,2576 5406,2567 5326,2558 5245,2548 5162,2539 5077,2530 4991,2520 4903,2511 4813,2501 4722,2491 4628,2481 4534,2471 4437,2461 4339,2451 4239,2441 4137,2431 4034,2421 3929,2410 3822,2400 3714,2389 3604,2378 3492,2367 3379,2357 3264,2346 3147,2335 3028,2323 2908,2312 2786,2301 2662,2290 2537,2278 2410,2266 2282,2255 2151,2243 2019,2231 1885,2219 1750,2207 1613,2195 1474,2183 1334,2171 1191,2159 1047,2146 902,2134 755,2121 606,2108" style="fill:none;stroke:#FF0000;stroke-width:5"></polyline><polyline points="6500,2700 6449,2698 6398,2693 6345,2685 6293,2673 6239,2660 6186,2645 6132,2628 6079,2607 6027,2585 5976,2559 5926,2531 5877,2499 5829,2466 5783,2429 5738,2389 5692,2346 5648,2300 5604,2250 5563,2198 5525,2142 5487,2084 5451,2021 5414,1956 5377,1886 5340,1812 5304,1735 5267,1655 5233,1570 5199,1482 5168,1391 5138,1296 5109,1197" style="fill:none;stroke:#FF0000;stroke-width:5"></polyline><polyline points="6500,2700 6449,2698 6397,2693 6343,2686 6288,2678 6230,2670 6171,2662 6110,2654 6047,2645 5982,2637 5916,2629 5848,2620 5779,2611 5708,2603 5635,2594 5560,2585 5484,2576 5406,2567 5326,2558 5245,2548 5162,2539 5077,2530 4991,2520 4903,2511 4813,2501 4722,2491 4628,2481 4534,2471 4437,2461 4339,2451 4239,2441 4137,2431 4034,2421 3929,2410 3822,2400 3714,2389 3604,2378 3492,2367 3379,2357 3264,2346 3147,2335 3028,2323 2908,2312 2786,2301 2662,2290 2537,2278 2410,2266 2282,2255 2151,2243 2019,2231 1885,2219 1750,2207 1613,2195 1474,2183 1334,2171 1191,2159 1047,2146 902,2134 755,2121 606,2108" style="fill:none;stroke:#FF0000;stroke-width:5"></polyline><polyline points="6500,2700 6449,2698 6397,2693 6343,2686 6288,2678 6230,2670 6171,2662 6110,2654 6047,2645 5982,2637 5916,2629 5848,2620 5779,2611 5708,2603 5635,2594 5560,2585 5484,2576 5406,2567 5326,2558 5245,2548 5162,2539 5077,2530 4991,2520 4903,2511 4813,2501 4722,2491 4628,2481 4534,2471 4437,2461 4339,2451 4239,2441 4137,2431 4034,2421 3929,2410 3822,2400 3714,2389 3604,2378 3492,2367 3379,2357 3264,2346 3147,2335 3028,2323 2908,2312 2786,2301 2662,2290 2537,2278 2410,2266 2282,2255 2151,2243 2019,2231 1885,2219 1750,2207 1613,2195 1474,2183 1334,2171 1191,2159 1047,2146 902,2134 755,2121 606,2108" style="fill:none;stroke:#FF0000;stroke-width:5"></polyline><polyline points="6500,2700 6449,2698 6397,2693 6343,2686 6288,2678 6230,2670 6171,2662 6110,2654 6047,2645 5982,2637 5916,2629 5848,2620 5779,2611 5708,2603 5635,2594 5560,2585 5484,2576 5406,2567 5326,2558 5245,2548 5162,2539 5077,2530 4991,2520 4903,2511 4813,2501 4722,2491 4628,2481 4534,2471 4437,2461 4339,2451 4239,2441 4137,2431 4034,2421 3929,2410 3822,2400 3714,2389 3604,2378 3492,2367 3379,2357 3264,2346 3147,2335 3028,2323 2908,2312 2786,2301 2662,2290 2537,2278 2410,2266 2282,2255 2151,2243 2019,2231 1885,2219 1750,2207 1613,2195 1474,2183 1334,2171 1191,2159 1047,2146 902,2134 755,2121 606,2108" style="fill:none;stroke:#FF0000;stroke-width:5"></polyline><polyline points="6500,2700 6449,2698 6397,2693 6343,2686 6288,2678 6230,2670 6171,2662 6110,2654 6047,2645 5982,2637 5916,2629 5848,2620 5779,2611 5708,2603 5635,2594 5560,2585 5484,2576 5406,2567 5326,2558 5245,2548 5162,2539 5077,2530 4991,2520 4903,2511 4813,2501 4722,2491 4628,2481 4534,2471 4437,2461 4339,2451 4239,2441 4137,2431 4034,2421 3929,2410 3822,2400 3714,2389 3604,2378 3492,2367 3379,2357 3264,2346 3147,2335 3028,2323 2908,2312 2786,2301 2662,2290 2537,2278 2410,2266 2282,2255 2151,2243 2019,2231 1885,2219 1750,2207 1613,2195 1474,2183 1334,2171 1191,2159 1047,2146 902,2134 755,2121 606,2108" style="fill:none;stroke:#FF0000;stroke-width:5"></polyline><polyline points="6500,2700 6449,2698 6397,2693 6343,2686 6288,2678 6230,2670 6171,2662 6110,2654 6047,2645 5982,2637 5916,2629 5848,2620 5779,2611 5708,2603 5635,2594 5560,2585 5484,2576 5406,2567 5326,2558 5245,2548 5162,2539 5077,2530 4991,2520 4903,2511 4813,2501 4722,2491 4628,2481 4534,2471 4437,2461 4339,2451 4239,2441 4137,2431 4034,2421 3929,2410 3822,2400 3714,2389 3604,2378 3492,2367 3379,2357 3264,2346 3147,2335 3028,2323 2908,2312 2786,2301 2662,2290 2537,2278 2410,2266 2282,2255 2151,2243 2019,2231 1885,2219 1750,2207 1613,2195 1474,2183 1334,2171 1191,2159 1047,2146 902,2134 755,2121 606,2108" style="fill:none;stroke:#FF0000;stroke-width:5"></polyline><polyline points="6500,2700 6449,2698 6397,2693 6343,2686 6288,2678 6230,2670 6171,2662 6110,2654 6047,2645 5982,2637 5916,2629 5848,2620 5779,2611 5708,2603 5635,2594 5560,2585 5484,2576 5406,2567 5326,2558 5245,2548 5162,2539 5077,2530 4991,2520 4903,2511 4813,2501 4722,2491 4628,2481 4534,2471 4437,2461 4339,2451 4239,2441 4137,2431 4034,2421 3929,2410 3822,2400 3714,2389 3604,2378 3492,2367 3379,2357 3264,2346 3147,2335 3028,2323 2908,2312 2786,2301 2662,2290 2537,2278 2410,2266 2282,2255 2151,2243 2019,2231 1885,2219 1750,2207 1613,2195 1474,2183 1334,2171 1191,2159 1047,2146 902,2134 755,2121 606,2108" style="fill:none;stroke:#FF0000;stroke-width:5"></polyline><polyline points="6500,2700 6449,2698 6397,2693 6343,2686 6288,2678 6230,2670 6171,2662 6110,2654 6047,2645 5982,2637 5916,2629 5848,2620 5779,2611 5708,2603 5635,2594 5560,2585 5484,2576 5406,2567 5326,2558 5245,2548 5162,2539 5077,2530 4991,2520 4903,2511 4813,2501 4722,2491 4628,2481 4534,2471 4437,2461 4339,2451 4239,2441 4137,2431 4034,2421 3929,2410 3822,2400 3714,2389 3604,2378 3492,2367 3379,2357 3264,2346 3147,2335 3028,2323 2908,2312 2786,2301 2662,2290 2537,2278 2410,2266 2282,2255 2151,2243 2019,2231 1885,2219 1750,2207 1613,2195 1474,2183 1334,2171 1191,2159 1047,2146 902,2134 755,2121 606,2108" style="fill:none;stroke:#FF0000;stroke-width:5"></polyline><polyline points="6500,2700 6449,2698 6397,2693 6343,2686 6288,2678 6230,2670 6171,2662 6110,2654 6047,2645 5982,2637 5916,2629 5848,2620 5779,2611 5708,2603 5635,2594 5560,2585 5484,2576 5406,2567 5326,2558 5245,2548 5162,2539 5077,2530 4991,2520 4903,2511 4813,2501 4722,2491 4628,2481 4534,2471 4437,2461 4339,2451 4239,2441 4137,2431 4034,2421 3929,2410 3822,2400 3714,2389 3604,2378 3492,2367 3379,2357 3264,2346 3147,2335 3028,2323 2908,2312 2786,2301 2662,2290 2537,2278 2410,2266 2282,2255 2151,2243 2019,2231 1885,2219 1750,2207 1613,2195 1474,2183 1334,2171 1191,2159 1047,2146 902,2134 755,2121 606,2108" style="fill:none;stroke:#FF0000;stroke-width:5"></polyline><polyline points="6500,2700 6449,2698 6397,2693 6343,2686 6288,2678 6230,2670 6171,2662 6110,2654 6047,2645 5982,2637 5916,2629 5848,2620 5779,2611 5708,2603 5635,2594 5560,2585 5484,2576 5406,2567 5326,2558 5245,2548 5162,2539 5077,2530 4991,2520 4903,2511 4813,2501 4722,2491 4628,2481 4534,2471 4437,2461 4339,2451 4239,2441 4137,2431 4034,2421 3929,2410 3822,2400 3714,2389 3604,2378 3492,2367 3379,2357 3264,2346 3147,2335 3028,2323 2908,2312 2786,2301 2662,2290 2537,2278 2410,2266 2282,2255 2151,2243 2019,2231 1885,2219 1750,2207 1613,2195 1474,2183 1334,2171 1191,2159 1047,2146 902,2134 755,2121 606,2108" style="fill:none;stroke:#FF0000;stroke-width:5"></polyline><polyline points="6500,2700 6449,2698 6397,2693 6343,2686 6288,2678 6230,2670 6171,2662 6110,2654 6047,2645 5982,2637 5916,2629 5848,2620 5779,2611 5708,2603 5635,2594 5560,2585 5484,2576 5406,2567 5326,2558 5245,2548 5162,2539 5077,2530 4991,2520 4903,2511 4813,2501 4722,2491 4628,2481 4534,2471 4437,2461 4339,2451 4239,2441 4137,2431 4034,2421 3929,2410 3822,2400 3714,2389 3604,2378 3492,2367 3379,2357 3264,2346 3147,2335 3028,2323 2908,2312 2786,2301 2662,2290 2537,2278 2410,2266 2282,2255 2151,2243 2019,2231 1885,2219 1750,2207 1613,2195 1474,2183 1334,2171 1191,2159 1047,2146 902,2134 755,2121 606,2108" style="fill:none;stroke:#FF0000;stroke-width:5"></polyline><polyline points="6500,2700 6449,2698 6397,2693 6343,2686 6288,2678 6230,2670 6171,2662 6110,2654 6047,2645 5982,2637 5916,2629 5848,2620 5779,2611 5708,2603 5635,2594 5560,2585 5484,2576 5406,2567 5326,2558 5245,2548 5162,2539 5077,2530 4991,2520 4903,2511 4813,2501 4722,2491 4628,2481 4534,2471 4437,2461 4339,2451 4239,2441 4137,2431 4034,2421 3929,2410 3822,2400 3714,2389 3604,2378 3492,2367 3379,2357 3264,2346 3147,2335 3028,2323 2908,2312 2786,2301 2662,2290 2537,2278 2410,2266 2282,2255 2151,2243 2019,2231 1885,2219 1750,2207 1613,2195 1474,2183 1334,2171 1191,2159 1047,2146 902,2134 755,2121 606,2108" style="fill:none;stroke:#FF0000;stroke-width:5"></polyline><polyline points="6500,2700 6449,2698 6397,2693 6343,2686 6288,2678 6230,2670 6171,2662 6110,2654 6047,2645 5982,2637 5916,2629 5848,2620 5779,2611 5708,2603 5635,2594 5560,2585 5484,2576 5406,2567 5326,2558 5245,2548 5162,2539 5077,2530 4991,2520 4903,2511 4813,2501 4722,2491 4628,2481 4534,2471 4437,2461 4339,2451 4239,2441 4137,2431 4034,2421 3929,2410 3822,2400 3714,2389 3604,2378 3492,2367 3379,2357 3264,2346 3147,2335 3028,2323 2908,2312 2786,2301 2662,2290 2537,2278 2410,2266 2282,2255 2151,2243 2019,2231 1885,2219 1750,2207 1613,2195 1474,2183 1334,2171 1191,2159 1047,2146 902,2134 755,2121 606,2108" style="fill:none;stroke:#FF0000;stroke-width:5"></polyline><polyline points="6500,2700 6449,2698 6397,2693 6343,2686 6288,2678 6230,2670 6171,2662 6110,2654 6047,2645 5982,2637 5916,2629 5848,2620 5779,2611 5708,2603 5635,2594 5560,2585 5484,2576 5406,2567 5326,2558 5245,2548 5162,2539 5077,2530 4991,2520 4903,2511 4813,2501 4722,2491 4628,2481 4534,2471 4437,2461 4339,2451 4239,2441 4137,2431 4034,2421 3929,2410 3822,2400 3714,2389 3604,2378 3492,2367 3379,2357 3264,2346 3147,2335 3028,2323 2908,2312 2786,2301 2662,2290 2537,2278 2410,2266 2282,2255 2151,2243 2019,2231 1885,2219 1750,2207 1613,2195 1474,2183 1334,2171 1191,2159 1047,2146 902,2134 755,2121 606,2108" style="fill:none;stroke:#FF0000;stroke-width:5"></polyline><polyline points="6500,2700 6449,2698 6397,2693 6343,2686 6288,2678 6230,2670 6171,2662 6110,2654 6047,2645 5982,2637 5916,2629 5848,2620 5779,2611 5708,2603 5635,2594 5560,2585 5484,2576 5406,2567 5326,2558 5245,2548 5162,2539 5077,2530 4991,2520 4903,2511 4813,2501 4722,2491 4628,2481 4534,2471 4437,2461 4339,2451 4239,2441 4137,2431 4034,2421 3929,2410 3822,2400 3714,2389 3604,2378 3492,2367 3379,2357 3264,2346 3147,2335 3028,2323 2908,2312 2786,2301 2662,2290 2537,2278 2410,2266 2282,2255 2151,2243 2019,2231 1885,2219 1750,2207 1613,2195 1474,2183 1334,2171 1191,2159 1047,2146 902,2134 755,2121 606,2108" style="fill:none;stroke:#FF0000;stroke-width:5"></polyline><polyline points="6500,2700 6449,2698 6397,2693 6343,2686 6288,2678 6230,2670 6171,2662 6110,2654 6047,2645 5982,2637 5916,2629 5848,2620 5779,2611 5708,2603 5635,2594 5560,2585 5484,2576 5406,2567 5326,2558 5245,2548 5162,2539 5077,2530 4991,2520 4903,2511 4813,2501 4722,2491 4628,2481 4534,2471 4437,2461 4339,2451 4239,2441 4137,2431 4034,2421 3929,2410 3822,2400 3714,2389 3604,2378 3492,2367 3379,2357 3264,2346 3147,2335 3028,2323 2908,2312 2786,2301 2662,2290 2537,2278 2410,2266 2282,2255 2151,2243 2019,2231 1885,2219 1750,2207 1613,2195 1474,2183 1334,2171 1191,2159 1047,2146 902,2134 755,2121 606,2108" style="fill:none;stroke:#FF0000;stroke-width:5"></polyline><polyline points="6500,2700 6449,2698 6397,2693 6343,2686 6288,2678 6230,2670 6171,2662 6110,2654 6047,2645 5982,2637 5916,2629 5848,2620 5779,2611 5708,2603 5635,2594 5560,2585 5484,2576 5406,2567 5326,2558 5245,2548 5162,2539 5077,2530 4991,2520 4903,2511 4813,2501 4722,2491 4628,2481 4534,2471 4437,2461 4339,2451 4239,2441 4137,2431 4034,2421 3929,2410 3822,2400 3714,2389 3604,2378 3492,2367 3379,2357 3264,2346 3147,2335 3028,2323 2908,2312 2786,2301 2662,2290 2537,2278 2410,2266 2282,2255 2151,2243 2019,2231 1885,2219 1750,2207 1613,2195 1474,2183 1334,2171 1191,2159 1047,2146 902,2134 755,2121 606,2108" style="fill:none;stroke:#FF0000;stroke-width:5"></polyline><polyline points="6500,2700 6449,2698 6397,2693 6343,2686 6288,2678 6230,2670 6171,2662 6110,2654 6047,2645 5982,2637 5916,2629 5848,2620 5779,2611 5708,2603 5635,2594 5560,2585 5484,2576 5406,2567 5326,2558 5245,2548 5162,2539 5077,2530 4991,2520 4903,2511 4813,2501 4722,2491 4628,2481 4534,2471 4437,2461 4339,2451 4239,2441 4137,2431 4034,2421 3929,2410 3822,2400 3714,2389 3604,2378 3492,2367 3379,2357 3264,2346 3147,2335 3028,2323 2908,2312 2786,2301 2662,2290 2537,2278 2410,2266 2282,2255 2151,2243 2019,2231 1885,2219 1750,2207 1613,2195 1474,2183 1334,2171 1191,2159 1047,2146 902,2134 755,2121 606,2108" style="fill:none;stroke:#FF0000;stroke-width:5"></polyline><polyline points="6500,2700 6449,2698 6397,2693 6343,2686 6288,2678 6230,2670 6171,2662 6110,2654 6047,2645 5982,2637 5916,2629 5848,2620 5779,2611 5708,2603 5635,2594 5560,2585 5484,2576 5406,2567 5326,2558 5245,2548 5162,2539 5077,2530 4991,2520 4903,2511 4813,2501 4722,2491 4628,2481 4534,2471 4437,2461 4339,2451 4239,2441 4137,2431 4034,2421 3929,2410 3822,2400 3714,2389 3604,2378 3492,2367 3379,2357 3264,2346 3147,2335 3028,2323 2908,2312 2786,2301 2662,2290 2537,2278 2410,2266 2282,2255 2151,2243 2019,2231 1885,2219 1750,2207 1613,2195 1474,2183 1334,2171 1191,2159 1047,2146 902,2134 755,2121 606,2108" style="fill:none;stroke:#FF0000;stroke-width:5"></polyline><polyline points="6500,2700 6449,2698 6397,2693 6343,2686 6288,2678 6230,2670 6171,2662 6110,2654 6047,2645 5982,2637 5916,2629 5848,2620 5779,2611 5708,2603 5635,2594 5560,2585 5484,2576 5406,2567 5326,2558 5245,2548 5162,2539 5077,2530 4991,2520 4903,2511 4813,2501 4722,2491 4628,2481 4534,2471 4437,2461 4339,2451 4239,2441 4137,2431 4034,2421 3929,2410 3822,2400 3714,2389 3604,2378 3492,2367 3379,2357 3264,2346 3147,2335 3028,2323 2908,2312 2786,2301 2662,2290 2537,2278 2410,2266 2282,2255 2151,2243 2019,2231 1885,2219 1750,2207 1613,2195 1474,2183 1334,2171 1191,2159 1047,2146 902,2134 755,2121 606,2108" style="fill:none;stroke:#FF0000;stroke-width:5"></polyline><polyline points="6500,2700 6449,2698 6397,2693 6343,2686 6288,2678 6230,2670 6171,2662 6110,2654 6047,2645 5982,2637 5916,2629 5848,2620 5779,2611 5708,2603 5635,2594 5560,2585 5484,2576 5406,2567 5326,2558 5245,2548 5162,2539 5077,2530 4991,2520 4903,2511 4813,2501 4722,2491 4628,2481 4534,2471 4437,2461 4339,2451 4239,2441 4137,2431 4034,2421 3929,2410 3822,2400 3714,2389 3604,2378 3492,2367 3379,2357 3264,2346 3147,2335 3028,2323 2908,2312 2786,2301 2662,2290 2537,2278 2410,2266 2282,2255 2151,2243 2019,2231 1885,2219 1750,2207 1613,2195 1474,2183 1334,2171 1191,2159 1047,2146 902,2134 755,2121 606,2108" style="fill:none;stroke:#FF0000;stroke-width:5"></polyline><polyline points="6500,2700 6449,2698 6397,2693 6343,2686 6288,2678 6230,2670 6171,2662 6110,2654 6047,2645 5982,2637 5916,2629 5848,2620 5779,2611 5708,2603 5635,2594 5560,2585 5484,2576 5406,2567 5326,2558 5245,2548 5162,2539 5077,2530 4991,2520 4903,2511 4813,2501 4722,2491 4628,2481 4534,2471 4437,2461 4339,2451 4239,2441 4137,2431 4034,2421 3929,2410 3822,2400 3714,2389 3604,2378 3492,2367 3379,2357 3264,2346 3147,2335 3028,2323 2908,2312 2786,2301 2662,2290 2537,2278 2410,2266 2282,2255 2151,2243 2019,2231 1885,2219 1750,2207 1613,2195 1474,2183 1334,2171 1191,2159 1047,2146 902,2134 755,2121 606,2108" style="fill:none;stroke:#FF0000;stroke-width:5"></polyline><circle cx="6500" cy="2700" r="20" style="fill:blue"></circle><text x="0" y="0" font-size="16em" transform="scale(1,-1)">G1 C100 200</text></svg>
