<svg xmlns="http://www.w3.org/2000/svg" style="display: block; transform: scale(1,-1); background: white;" viewBox="0 0 7000 3000"><polyline points="0,1000 300,1500" style="fill:none;stroke:#000000;stroke-width:5"></polyline><polyline points="300,1500 350,1400" style="fill:none;stroke:#000000;stroke-width:5"></polyline><polyline points="350,1400 500,2100" style="fill:none;stroke:#000000;stroke-width:5"></polyline><polyline points="500,2100 1500,2100" style="fill:none;stroke:#000000;stroke-width:5"></polyline><polyline points="1500,2100 2000,200" style="fill:none;stroke:#000000;stroke-width:5"></polyline><polyline points="2000,200 2500,500" style="fill:none;stroke:#000000;stroke-width:5"></polyline><polyline points="2500,500 2900,300" style="fill:none;stroke:#000000;stroke-width:5"></polyline><polyline points="2900,300 3000,200" style="fill:none;stroke:#000000;stroke-width:5"></polyline><polyline points="3000,200 3200,1000" style="fill:none;stroke:#000000;stroke-width:5"></polyline><polyline points="3200,1000 3500,500" style="fill:none;stroke:#000000;stroke-width:5"></polyline><polyline points="3500,500 3800,800" style="fill:none;stroke:#000000;stroke-width:5"></polyline><polyline points="3800,800 4000,200" style="fill:none;stroke:#000000;stroke-width:5"></polyline><polyline points="4000,200 4200,800" style="fill:none;stroke:#000000;stroke-width:5"></polyline><polyline points="4200,800 4800,600" style="fill:none;stroke:#000000;stroke-width:5"></polyline><polyline points="4800,600 5000,1200" style="fill:none;stroke:#000000;stroke-width:5"></polyline><polyline points="5000,1200 5500,900" style="fill:none;stroke:#000000;stroke-width:5"></polyline><polyline points="5500,900 6000,500" style="fill:none;stroke:#000000;stroke-width:5"></polyline><polyline points="6000,500 6500,300" style="fill:none;stroke:#000000;stroke-width:5"></polyline><polyline points="6500,300 6999,500" style="fill:none;stroke:#000000;stroke-width:5"></polyline><polyline points="6500,2700 6449,2698 6397,2693 6343,2686 6288,2678 6229,2670 6169,2661 6107,2652 6043,2643 5979,2634 5913,2625 5846,2617 5779,2608 5712,2600 5643,2592 5573,2584 5502,2576 5430,2568 5358,2561 5283,2553 5208,2546 5130,2538 5053,2530 4974,2523 4894,2516 4814,2509 4732,2502 4650,2496 4568,2489 4487,2483 4405,2477 4322,2472 4239,2466 4155,2461 4071,2456 3986,2452 3903,2447 3820,2443 3738,2439 3658,2434 3580,2430 3503,2426 3427,2421 3352,2417 3277,2413 3202,2410 3128,2406 3054,2403 2981,2400 2908,2397 2838,2395 2768,2392 2699,2389 2633,2386 2569,2383 2508,2378 2451,2372 2395,2366 2342,2359 2291,2351 2243,2343 2197,2335 2152,2326 2110,2317 2069,2309 2030,2299 1994,2289 1960,2279 1928,2268 1897,2258 1869,2247 1842,2235 1817,2224 1792,2214 1767,2203 1743,2193 1719,2183 1696,2173 1673,2163 1649,2154 1625,2145 1601,2136 1577,2127 1552,2119 1527,2111 1502,2103" style="fill:none;stroke:#FF0000;stroke-width:5"></polyline><polyline points="6500,2700 6449,2698 6397,2693 6343,2686 6288,2678 6229,2670 6169,2661 6107,2652 6043,2643 5979,2634 5913,2625 5846,2616 5779,2608 5711,2600 5643,2592 5572,2584 5501,2576 5429,2568 5356,2560 5282,2553 5206,2545 5129,2537 5051,2530 4972,2523 4893,2515 4812,2508 4730,2501 4648,2495 4566,2488 4485,2482 4403,2476 4320,2471 4236,2465 4152,2460 4068,2455 3983,2450 3900,2446 3817,2441 3736,2437 3655,2433 3577,2429 3500,2424 3424,2420 3349,2416 3274,2412 3199,2408 3125,2405 3051,2402 2978,2399 2906,2396 2835,2393 2765,2390 2697,2388 2630,2385 2566,2381 2506,2376 2448,2370 2393,2364 2339,2357 2289,2350 2241,2341 2194,2333 2150,2324 2107,2315 2066,2307 2027,2297 1991,2287 1957,2277 1925,2266 1895,2255 1866,2244 1840,2233 1814,2222 1789,2211 1764,2201 1740,2191 1716,2180 1693,2171 1670,2161 1646,2152 1622,2143 1598,2134 1573,2125 1548,2117 1523,2109 1498,2101" style="fill:none;stroke:#FF0000;stroke-width:5"></polyline><polyline points="6500,2700 6449,2698 6397,2693 6343,2686 6288,2678 6229,2670 6169,2661 6107,2652 6043,2643 5979,2634 5913,2625 5846,2616 5779,2608 5712,2600 5643,2592 5573,2584 5502,2576 5430,2568 5357,2560 5283,2553 5208,2545 5130,2538 5052,2530 4974,2523 4894,2516 4814,2509 4732,2502 4650,2495 4568,2489 4487,2483 4405,2477 4322,2471 4239,2466 4155,2461 4071,2456 3987,2451 3904,2446 3821,2442 3739,2438 3659,2434 3581,2429 3504,2425 3429,2420 3353,2416 3278,2412 3204,2409 3130,2405 3056,2402 2983,2399 2911,2397 2840,2394 2771,2391 2702,2389 2636,2386 2572,2382 2512,2377 2454,2371 2399,2365 2346,2358 2295,2351 2247,2342 2201,2334 2157,2325 2114,2316 2074,2308 2035,2298 1999,2289 1965,2278 1933,2267 1903,2257 1875,2246 1848,2234 1823,2223 1798,2213 1773,2202 1749,2192 1725,2182 1702,2172 1679,2162 1656,2153 1632,2144 1608,2135 1583,2127 1558,2118 1533,2110 1507,2102" style="fill:none;stroke:#FF0000;stroke-width:5"></polyline><polyline points="6500,2700 6449,2698 6397,2693 6343,2686 6288,2678 6229,2670 6169,2661 6107,2652 6043,2643 5979,2634 5913,2625 5846,2617 5779,2608 5712,2600 5643,2592 5573,2584 5503,2576 5431,2569 5358,2561 5284,2553 5208,2546 5131,2538 5053,2531 4975,2524 4895,2516 4815,2509 4733,2503 4651,2496 4570,2490 4488,2484 4407,2478 4324,2472 4240,2467 4157,2462 4072,2457 3988,2452 3905,2448 3822,2443 3741,2439 3661,2435 3582,2431 3506,2426 3430,2422 3355,2418 3280,2414 3206,2410 3132,2407 3058,2404 2985,2401 2913,2398 2843,2395 2773,2393 2705,2390 2639,2387 2575,2383 2515,2379 2457,2373 2402,2366 2349,2359 2299,2352 2251,2343 2205,2335 2161,2326 2118,2318 2078,2309 2039,2300 2003,2290 1969,2279 1938,2268 1908,2258 1879,2247 1853,2236 1828,2225 1803,2214 1778,2203 1754,2193 1731,2183 1708,2173 1685,2163 1661,2154 1638,2145 1613,2136 1588,2127 1563,2119 1538,2111 1512,2103" style="fill:none;stroke:#FF0000;stroke-width:5"></polyline><polyline points="6500,2700 6449,2698 6397,2693 6343,2686 6288,2678 6229,2670 6169,2661 6107,2652 6043,2643 5979,2634 5913,2625 5846,2617 5779,2608 5712,2600 5643,2592 5573,2584 5503,2576 5431,2569 5358,2561 5284,2553 5208,2546 5131,2538 5053,2531 4975,2524 4895,2516 4815,2509 4733,2503 4651,2496 4570,2490 4488,2484 4407,2478 4324,2472 4240,2467 4156,2462 4072,2457 3988,2452 3905,2448 3822,2443 3740,2439 3660,2435 3582,2431 3505,2426 3429,2422 3354,2418 3279,2414 3205,2410 3131,2407 3057,2404 2984,2401 2912,2398 2842,2395 2772,2392 2704,2390 2638,2387 2574,2383 2513,2378 2456,2372 2401,2366 2347,2359 2297,2351 2249,2343 2203,2335 2159,2326 2116,2317 2075,2308 2037,2299 2001,2289 1967,2279 1935,2268 1905,2257 1877,2246 1850,2235 1825,2224 1800,2213 1775,2203 1751,2192 1728,2182 1705,2172 1682,2163 1658,2153 1634,2144 1610,2136 1585,2127 1560,2119 1534,2111 1509,2103" style="fill:none;stroke:#FF0000;stroke-width:5"></polyline><polyline points="6500,2700 6449,2698 6397,2693 6343,2686 6288,2678 6229,2670 6169,2661 6107,2652 6043,2643 5979,2634 5913,2625 5846,2617 5779,2608 5712,2600 5643,2592 5573,2584 5502,2576 5430,2568 5358,2561 5283,2553 5208,2546 5130,2538 5053,2530 4974,2523 4894,2516 4814,2509 4732,2502 4650,2496 4569,2489 4488,2483 4406,2477 4323,2472 4240,2466 4156,2461 4072,2456 3988,2451 3905,2447 3822,2443 3741,2438 3661,2434 3583,2430 3506,2425 3430,2421 3355,2417 3280,2413 3206,2409 3132,2406 3058,2403 2985,2400 2913,2397 2842,2394 2773,2392 2705,2389 2639,2386 2575,2383 2514,2378 2457,2372 2402,2365 2348,2359 2298,2351 2250,2343 2204,2334 2160,2326 2117,2317 2077,2308 2038,2299 2002,2289 1968,2278 1936,2268 1906,2257 1878,2246 1852,2235 1826,2224 1801,2213 1777,2203 1753,2192 1729,2182 1706,2172 1683,2163 1659,2153 1636,2144 1611,2136 1586,2127 1561,2119 1536,2111 1510,2103" style="fill:none;stroke:#FF0000;stroke-width:5"></polyline><polyline points="6500,2700 6449,2698 6397,2693 6343,2686 6288,2678 6229,2670 6169,2661 6107,2652 6043,2643 5979,2634 5913,2625 5846,2617 5779,2608 5712,2600 5643,2592 5573,2584 5503,2576 5431,2569 5358,2561 5284,2553 5208,2546 5131,2538 5053,2531 4975,2524 4895,2516 4815,2509 4733,2503 4651,2496 4570,2490 4488,2484 4407,2478 4324,2472 4240,2467 4156,2462 4072,2457 3988,2452 3905,2448 3822,2443 3740,2439 3660,2435 3582,2431 3505,2426 3429,2422 3354,2418 3279,2414 3204,2410 3130,2407 3056,2404 2983,2401 2911,2398 2840,2396 2770,2393 2702,2390 2636,2387 2572,2384 2511,2379 2454,2373 2398,2367 2345,2360 2294,2353 2247,2344 2200,2336 2156,2327 2113,2319 2072,2310 2034,2301 1997,2291 1963,2280 1932,2270 1901,2259 1873,2248 1846,2237 1821,2226 1796,2215 1771,2205 1747,2194 1724,2184 1701,2174 1678,2165 1654,2155 1630,2146 1606,2138 1581,2129 1555,2121 1530,2113 1505,2105" style="fill:none;stroke:#FF0000;stroke-width:5"></polyline><polyline points="6500,2700 6449,2698 6397,2693 6343,2686 6288,2678 6229,2670 6169,2661 6107,2652 6043,2643 5979,2634 5913,2625 5846,2617 5779,2608 5712,2600 5643,2592 5573,2584 5503,2576 5431,2569 5358,2561 5284,2553 5208,2546 5131,2538 5053,2531 4975,2524 4895,2516 4815,2509 4733,2503 4651,2496 4570,2490 4488,2484 4407,2478 4324,2472 4240,2467 4156,2462 4072,2457 3988,2452 3905,2448 3822,2443 3740,2439 3660,2435 3582,2431 3505,2426 3429,2422 3354,2418 3279,2414 3204,2410 3130,2407 3056,2404 2983,2401 2911,2398 2840,2396 2770,2393 2702,2390 2636,2387 2572,2384 2511,2379 2454,2373 2398,2367 2345,2360 2294,2353 2247,2344 2200,2336 2156,2327 2113,2319 2072,2310 2034,2301 1997,2291 1963,2280 1932,2270 1901,2259 1873,2248 1846,2237 1821,2226 1796,2215 1771,2205 1747,2194 1723,2184 1700,2175 1677,2165 1653,2156 1629,2147 1605,2138 1580,2129 1554,2121 1529,2113 1503,2105" style="fill:none;stroke:#FF0000;stroke-width:5"></polyline><polyline points="6500,2700 6449,2698 6397,2693 6343,2686 6288,2678 6229,2670 6169,2661 6107,2652 6043,2643 5979,2634 5913,2625 5846,2617 5779,2608 5712,2600 5643,2592 5573,2584 5503,2576 5431,2569 5358,2561 5284,2553 5208,2546 5131,2538 5053,2531 4975,2524 4895,2516 4815,2509 4733,2503 4651,2496 4570,2490 4488,2484 4407,2478 4324,2472 4240,2467 4156,2462 4072,2457 3988,2452 3905,2448 3822,2443 3740,2439 3660,2435 3582,2431 3505,2426 3429,2422 3354,2418 3279,2414 3205,2410 3131,2407 3057,2404 2984,2401 2912,2398 2842,2395 2772,2392 2704,2390 2638,2387 2574,2383 2513,2378 2456,2372 2401,2366 2347,2359 2297,2351 2249,2343 2203,2335 2159,2326 2116,2317 2075,2308 2037,2299 2001,2289 1967,2279 1935,2268 1905,2257 1877,2246 1850,2235 1825,2224 1800,2213 1775,2203 1751,2192 1728,2182 1705,2172 1682,2163 1658,2153 1634,2144 1610,2136 1585,2127 1560,2119 1535,2110 1510,2103" style="fill:none;stroke:#FF0000;stroke-width:5"></polyline><polyline points="6500,2700 6449,2698 6397,2693 6343,2686 6288,2678 6229,2670 6169,2661 6107,2652 6043,2643 5979,2634 5913,2625 5846,2617 5779,2608 5712,2600 5643,2592 5573,2584 5502,2576 5430,2568 5358,2561 5283,2553 5208,2546 5130,2538 5053,2530 4974,2523 4894,2516 4814,2509 4732,2502 4650,2496 4568,2489 4487,2483 4405,2477 4322,2472 4239,2466 4155,2461 4071,2456 3986,2452 3903,2447 3820,2443 3738,2439 3658,2434 3580,2430 3503,2425 3427,2421 3352,2417 3277,2413 3203,2409 3129,2406 3055,2403 2982,2400 2910,2397 2839,2394 2769,2391 2701,2389 2635,2386 2571,2382 2510,2377 2453,2371 2397,2365 2344,2358 2294,2350 2246,2342 2200,2334 2155,2325 2113,2316 2072,2307 2033,2298 1997,2288 1963,2277 1931,2267 1901,2256 1873,2245 1846,2234 1821,2223 1796,2212 1771,2201 1747,2191 1723,2181 1700,2171 1677,2161 1654,2152 1630,2143 1605,2134 1580,2125 1555,2117 1529,2109 1504,2101" style="fill:none;stroke:#FF0000;stroke-width:5"></polyline><polyline points="6500,2700 6449,2698 6397,2693 6343,2686 6288,2678 6229,2670 6169,2661 6107,2652 6043,2643 5979,2634 5913,2625 5845,2616 5777,2607 5708,2599 5638,2590 5567,2582 5494,2573 5421,2565 5346,2557 5271,2549 5193,2541 5115,2533 5035,2525 4955,2517 4874,2509 4792,2502 4708,2494 4625,2487 4542,2480 4459,2474 4375,2468 4291,2461 4206,2455 4120,2450 4035,2444 3949,2439 3864,2434 3780,2429 3697,2425 3615,2420 3535,2415 3457,2410 3380,2405 3303,2401 3226,2396 3150,2392 3075,2388 2999,2385 2925,2381 2851,2378 2779,2375 2707,2372 2638,2369 2570,2365 2504,2361 2442,2356 2383,2350 2326,2343 2271,2335 2219,2327 2170,2318 2122,2310 2076,2300 2032,2291 1990,2282 1949,2272 1912,2262 1876,2251 1843,2240 1811,2228 1781,2217 1753,2205 1726,2194 1700,2183 1673,2172 1648,2161 1622,2150 1598,2140 1573,2130 1548,2120 1523,2111 1498,2101" style="fill:none;stroke:#FF0000;stroke-width:5"></polyline><polyline points="6500,2700 6449,2698 6397,2693 6343,2686 6288,2678 6229,2670 6169,2661 6107,2652 6043,2643 5979,2634 5913,2625 5846,2617 5779,2608 5712,2600 5643,2592 5573,2584 5503,2576 5431,2569 5358,2561 5284,2553 5208,2546 5131,2538 5053,2531 4975,2524 4895,2516 4815,2509 4733,2503 4651,2496 4570,2490 4488,2484 4407,2478 4324,2472 4240,2467 4156,2462 4072,2457 3988,2452 3905,2448 3822,2443 3740,2439 3660,2435 3582,2431 3505,2426 3429,2422 3354,2418 3279,2414 3204,2410 3130,2407 3056,2404 2983,2401 2911,2398 2840,2396 2770,2393 2702,2390 2636,2387 2572,2384 2511,2379 2454,2373 2398,2367 2345,2360 2294,2353 2247,2344 2200,2336 2156,2327 2113,2319 2072,2310 2034,2301 1997,2291 1963,2280 1932,2270 1901,2259 1873,2248 1847,2237 1821,2226 1796,2215 1771,2205 1747,2194 1724,2184 1701,2174 1677,2165 1654,2155 1630,2146 1605,2137 1580,2129 1555,2121 1529,2113 1504,2105" style="fill:none;stroke:#FF0000;stroke-width:5"></polyline><polyline points="6500,2700 6449,2698 6397,2693 6343,2686 6288,2678 6229,2670 6169,2661 6107,2652 6043,2643 5979,2634 5913,2625 5846,2617 5779,2608 5712,2600 5643,2592 5573,2584 5503,2576 5431,2569 5358,2561 5284,2553 5208,2546 5131,2538 5053,2531 4975,2524 4895,2516 4815,2509 4733,2503 4651,2496 4570,2490 4488,2484 4407,2478 4324,2472 4240,2467 4156,2462 4072,2457 3988,2452 3905,2448 3822,2443 3740,2439 3660,2435 3582,2431 3505,2426 3429,2422 3354,2418 3279,2414 3204,2410 3130,2407 3056,2404 2983,2401 2911,2398 2840,2396 2770,2393 2702,2390 2636,2387 2572,2384 2511,2379 2454,2373 2398,2367 2345,2360 2294,2353 2247,2344 2200,2336 2156,2327 2113,2319 2072,2310 2034,2301 1997,2291 1963,2280 1932,2270 1901,2259 1873,2248 1846,2237 1821,2226 1796,2215 1771,2205 1747,2194 1723,2184 1700,2175 1677,2165 1653,2156 1629,2147 1605,2138 1579,2129 1554,2121 1528,2113 1503,2105" style="fill:none;stroke:#FF0000;stroke-width:5"></polyline><polyline points="6500,2700 6449,2698 6397,2693 6343,2686 6288,2678 6229,2670 6169,2661 6107,2652 6043,2643 5979,2634 5913,2625 5845,2616 5776,2607 5707,2598 5636,2589 5563,2580 5490,2572 5415,2563 5339,2555 5263,2546 5184,2538 5104,2529 5023,2521 4942,2512 4860,2504 4776,2496 4692,2489 4607,2481 4523,2474 4439,2467 4354,2460 4269,2454 4182,2447 4096,2441 4009,2435 3922,2430 3836,2424 3751,2419 3666,2414 3584,2409 3502,2404 3423,2399 3345,2393 3267,2388 3189,2383 3112,2379 3035,2375 2958,2371 2882,2367 2808,2363 2734,2360 2662,2356 2591,2352 2522,2348 2456,2344 2392,2338 2332,2331 2274,2324 2219,2316 2165,2308 2115,2299 2066,2289 2019,2280 1974,2270 1931,2260 1889,2250 1850,2239 1814,2228 1780,2216 1747,2204 1716,2192 1687,2180 1659,2168 1631,2157 1604,2145 1577,2134 1551,2123 1526,2112 1500,2101" style="fill:none;stroke:#FF0000;stroke-width:5"></polyline><polyline points="6500,2700 6449,2698 6397,2693 6343,2686 6288,2678 6229,2670 6169,2661 6107,2652 6043,2643 5979,2634 5913,2625 5845,2616 5776,2607 5707,2598 5636,2589 5563,2580 5490,2572 5415,2563 5339,2555 5263,2546 5184,2538 5104,2529 5023,2521 4942,2512 4860,2504 4776,2496 4692,2489 4607,2481 4523,2474 4439,2467 4354,2460 4268,2454 4181,2447 4094,2441 4005,2435 3917,2429 3829,2423 3741,2418 3651,2413 3562,2408 3474,2403 3386,2398 3298,2394 3211,2390 3123,2386 3037,2383 2950,2380 2864,2377 2778,2374 2694,2371 2611,2368 2529,2366 2448,2363 2370,2360 2294,2357 2221,2352 2152,2346 2084,2339 2019,2332 1957,2325 1897,2316 1839,2308 1783,2299 1728,2290 1675,2281 1624,2272 1576,2262 1531,2251 1487,2240 1445,2229 1404,2218 1366,2207 1329,2195 1291,2185 1255,2174 1219,2163 1183,2153 1148,2143 1113,2133 1078,2124 1042,2115 1007,2106" style="fill:none;stroke:#FF0000;stroke-width:5"></polyline><polyline points="6500,2700 6449,2698 6397,2693 6343,2686 6288,2678 6229,2670 6169,2661 6107,2652 6043,2643 5979,2634 5913,2625 5846,2617 5779,2608 5712,2600 5643,2592 5573,2584 5503,2576 5431,2569 5358,2561 5284,2553 5208,2546 5131,2538 5053,2531 4975,2524 4895,2516 4815,2509 4733,2503 4651,2496 4570,2490 4488,2484 4407,2478 4324,2472 4240,2467 4156,2462 4072,2457 3988,2452 3905,2448 3822,2443 3740,2439 3660,2435 3582,2431 3505,2426 3429,2422 3354,2418 3279,2414 3204,2410 3130,2407 3056,2404 2983,2401 2911,2398 2840,2396 2770,2393 2702,2390 2636,2387 2572,2384 2511,2379 2454,2373 2398,2367 2345,2360 2294,2353 2247,2344 2200,2336 2156,2327 2113,2319 2072,2310 2034,2301 1997,2291 1963,2280 1932,2270 1901,2259 1873,2248 1846,2237 1821,2226 1796,2215 1771,2205 1747,2194 1723,2184 1700,2175 1677,2165 1653,2156 1629,2147 1605,2138 1579,2129 1554,2121 1528,2113 1503,2105" style="fill:none;stroke:#FF0000;stroke-width:5"></polyline><polyline points="6500,2700 6449,2698 6397,2693 6343,2686 6288,2678 6229,2670 6169,2661 6107,2652 6043,2643 5979,2634 5913,2625 5846,2617 5779,2608 5712,2600 5643,2592 5573,2584 5502,2576 5430,2568 5358,2561 5283,2553 5208,2546 5130,2538 5053,2530 4974,2523 4894,2516 4814,2509 4732,2502 4650,2496 4568,2489 4487,2483 4405,2477 4322,2472 4239,2466 4155,2461 4071,2456 3986,2452 3903,2447 3820,2443 3738,2439 3658,2434 3580,2430 3503,2426 3427,2421 3352,2417 3277,2413 3202,2410 3128,2406 3054,2403 2981,2400 2908,2397 2838,2395 2768,2392 2699,2389 2633,2386 2569,2383 2508,2378 2451,2372 2395,2366 2342,2359 2291,2351 2243,2343 2197,2335 2152,2326 2110,2317 2069,2309 2030,2299 1994,2289 1960,2279 1928,2268 1897,2258 1869,2247 1842,2235 1817,2224 1791,2214 1767,2203 1742,2193 1719,2183 1695,2173 1672,2163 1649,2154 1625,2145 1600,2136 1575,2128 1549,2119 1524,2111 1498,2104" style="fill:none;stroke:#FF0000;stroke-width:5"></polyline><polyline points="6500,2700 6449,2698 6397,2693 6343,2686 6288,2678 6229,2670 6169,2661 6107,2652 6043,2643 5979,2634 5913,2625 5846,2617 5779,2608 5712,2600 5643,2592 5573,2584 5503,2576 5431,2569 5358,2561 5284,2553 5208,2546 5131,2538 5053,2531 4975,2524 4895,2516 4815,2509 4733,2503 4651,2496 4570,2490 4488,2484 4407,2478 4324,2472 4240,2467 4156,2462 4072,2457 3988,2452 3905,2448 3822,2443 3740,2439 3660,2435 3582,2431 3505,2426 3429,2422 3354,2418 3279,2414 3204,2410 3130,2407 3056,2404 2983,2401 2911,2398 2840,2396 2770,2393 2702,2390 2636,2387 2572,2384 2511,2379 2454,2373 2398,2367 2345,2360 2294,2353 2247,2344 2200,2336 2156,2327 2113,2319 2072,2310 2034,2301 1997,2291 1963,2280 1932,2270 1901,2259 1873,2248 1846,2237 1821,2226 1796,2215 1771,2205 1747,2194 1723,2184 1700,2175 1677,2165 1653,2156 1629,2147 1605,2138 1579,2129 1554,2121 1528,2113 1503,2105" style="fill:none;stroke:#FF0000;stroke-width:5"></polyline><polyline points="6500,2700 6449,2698 6397,2693 6343,2686 6288,2678 6229,2670 6169,2661 6107,2652 6043,2643 5979,2634 5913,2625 5846,2617 5779,2608 5712,2600 5643,2592 5573,2584 5502,2576 5430,2568 5358,2561 5283,2553 5208,2546 5130,2538 5053,2530 4974,2523 4894,2516 4814,2509 4732,2502 4650,2496 4568,2489 4487,2483 4405,2477 4322,2472 4239,2466 4155,2461 4071,2456 3986,2452 3903,2447 3820,2443 3738,2439 3658,2434 3580,2430 3503,2426 3427,2421 3352,2417 3277,2413 3202,2410 3128,2406 3054,2403 2981,2400 2908,2397 2838,2395 2768,2392 2699,2389 2633,2386 2569,2383 2508,2378 2451,2372 2395,2366 2342,2359 2291,2351 2243,2343 2197,2335 2152,2326 2110,2317 2069,2309 2030,2299 1994,2289 1960,2279 1928,2268 1897,2258 1869,2247 1842,2235 1817,2224 1792,2214 1767,2203 1743,2193 1719,2183 1696,2173 1673,2163 1649,2154 1625,2145 1601,2136 1576,2127 1550,2119 1525,2111 1499,2103" style="fill:none;stroke:#FF0000;stroke-width:5"></polyline><polyline points="6500,2700 6449,2698 6397,2693 6343,2686 6288,2678 6229,2670 6169,2661 6107,2652 6043,2643 5979,2634 5913,2625 5846,2617 5779,2608 5712,2600 5643,2592 5573,2584 5503,2576 5431,2569 5358,2561 5284,2553 5208,2546 5131,2538 5053,2531 4975,2524 4895,2516 4815,2509 4733,2503 4651,2496 4570,2490 4488,2484 4407,2478 4324,2472 4240,2467 4157,2462 4072,2457 3988,2452 3905,2448 3822,2443 3741,2439 3661,2435 3582,2431 3506,2426 3430,2422 3355,2418 3280,2414 3206,2410 3132,2407 3058,2404 2985,2401 2913,2398 2843,2395 2773,2393 2705,2390 2639,2387 2575,2383 2515,2379 2457,2373 2402,2366 2349,2359 2299,2352 2251,2343 2205,2335 2161,2326 2118,2318 2078,2309 2039,2300 2003,2290 1969,2279 1938,2268 1908,2258 1879,2247 1853,2236 1828,2225 1803,2214 1778,2203 1754,2193 1731,2183 1708,2173 1685,2163 1661,2154 1638,2145 1613,2136 1588,2127 1563,2119 1538,2111 1512,2103" style="fill:none;stroke:#FF0000;stroke-width:5"></polyline><polyline points="6500,2700 6449,2698 6397,2693 6343,2686 6288,2678 6229,2670 6169,2661 6107,2652 6043,2643 5979,2634 5913,2625 5846,2616 5778,2608 5710,2599 5640,2591 5570,2583 5498,2575 5426,2567 5352,2559 5277,2551 5201,2543 5123,2535 5045,2528 4965,2520 4885,2513 4804,2506 4721,2498 4639,2492 4557,2485 4475,2479 4392,2473 4309,2467 4224,2461 4140,2456 4055,2451 3970,2446 3886,2441 3803,2436 3721,2432 3640,2428 3561,2423 3484,2418 3407,2414 3332,2410 3256,2406 3181,2402 3106,2398 3032,2395 2958,2392 2885,2389 2814,2386 2743,2383 2675,2380 2608,2377 2543,2373 2482,2368 2424,2362 2368,2355 2314,2348 2263,2341 2214,2332 2168,2323 2123,2315 2079,2306 2038,2297 1998,2287 1962,2277 1927,2266 1895,2256 1864,2245 1835,2233 1808,2222 1782,2211 1756,2200 1731,2189 1706,2179 1682,2168 1658,2158 1634,2149 1610,2139 1586,2130 1561,2121 1536,2112 1510,2104" style="fill:none;stroke:#FF0000;stroke-width:5"></polyline><polyline points="6500,2700 6449,2698 6397,2693 6343,2686 6288,2678 6229,2670 6169,2661 6107,2652 6043,2643 5979,2634 5913,2625 5845,2616 5776,2607 5707,2598 5636,2589 5563,2580 5490,2572 5415,2563 5339,2555 5263,2546 5184,2538 5104,2529 5023,2521 4942,2512 4860,2504 4776,2496 4692,2489 4607,2481 4523,2474 4439,2467 4354,2460 4269,2454 4182,2447 4096,2441 4009,2435 3922,2430 3836,2424 3751,2419 3666,2414 3584,2409 3502,2404 3423,2399 3345,2393 3267,2388 3189,2383 3112,2379 3035,2375 2958,2371 2882,2367 2808,2363 2734,2360 2662,2356 2591,2352 2522,2348 2456,2344 2392,2338 2332,2331 2274,2324 2219,2316 2165,2308 2115,2299 2066,2289 2019,2280 1974,2270 1931,2260 1889,2250 1850,2239 1814,2228 1780,2216 1747,2204 1716,2192 1687,2180 1659,2168 1631,2157 1604,2145 1577,2134 1551,2123 1526,2112 1500,2101" style="fill:none;stroke:#FF0000;stroke-width:5"></polyline><polyline points="6500,2700 6449,2698 6397,2693 6343,2686 6288,2678 6229,2670 6169,2661 6107,2652 6043,2643 5979,2634 5913,2625 5846,2617 5779,2608 5712,2600 5643,2592 5573,2584 5503,2576 5431,2569 5358,2561 5284,2553 5208,2546 5131,2538 5053,2531 4975,2524 4895,2516 4815,2509 4733,2503 4651,2496 4570,2490 4488,2484 4407,2478 4324,2472 4240,2467 4156,2462 4072,2457 3988,2452 3905,2448 3822,2443 3740,2439 3660,2435 3582,2431 3505,2426 3429,2422 3354,2418 3279,2414 3204,2410 3130,2407 3056,2404 2983,2401 2911,2398 2840,2396 2770,2393 2702,2390 2636,2387 2572,2384 2511,2379 2454,2373 2398,2367 2345,2360 2294,2353 2247,2344 2200,2336 2156,2327 2113,2319 2072,2310 2034,2301 1997,2291 1963,2280 1932,2270 1901,2259 1873,2248 1846,2237 1821,2226 1796,2215 1771,2205 1747,2194 1723,2184 1700,2175 1677,2165 1653,2156 1629,2147 1605,2138 1579,2129 1554,2121 1528,2113 1503,2105" style="fill:none;stroke:#FF0000;stroke-width:5"></polyline><polyline points="6500,2700 6449,2698 6397,2693 6343,2686 6288,2678 6229,2670 6169,2661 6107,2652 6043,2643 5979,2634 5913,2625 5846,2617 5779,2608 5712,2600 5643,2592 5573,2584 5503,2576 5431,2569 5358,2561 5284,2553 5208,2546 5131,2538 5053,2531 4975,2524 4895,2516 4815,2509 4733,2503 4651,2496 4570,2490 4488,2484 4407,2478 4324,2472 4240,2467 4156,2462 4072,2457 3988,2452 3905,2448 3822,2443 3741,2439 3661,2435 3583,2430 3506,2426 3431,2421 3356,2417 3281,2413 3207,2409 3132,2406 3057,2403 2983,2400 2911,2397 2839,2394 2768,2391 2699,2388 2632,2385 2568,2382 2506,2377 2448,2371 2392,2364 2338,2357 2287,2350 2238,2341 2191,2333 2146,2324 2102,2315 2061,2306 2021,2297 1984,2287 1950,2276 1917,2265 1886,2255 1857,2243 1830,2232 1804,2221 1778,2210 1752,2199 1728,2189 1703,2179 1679,2169 1655,2159 1631,2150 1607,2140 1581,2131 1556,2123 1529,2114 1503,2106" style="fill:none;stroke:#FF0000;stroke-width:5"></polyline><polyline points="6500,2700 6449,2698 6397,2693 6343,2686 6288,2678 6229,2670 6169,2661 6107,2652 6043,2643 5979,2634 5913,2625 5846,2617 5779,2608 5712,2600 5643,2592 5573,2584 5502,2576 5430,2568 5358,2561 5283,2553 5208,2546 5130,2538 5053,2530 4974,2523 4894,2516 4814,2509 4732,2502 4650,2496 4568,2489 4487,2483 4405,2477 4322,2472 4238,2466 4153,2461 4067,2455 3982,2450 3897,2446 3810,2441 3723,2437 3637,2433 3551,2429 3465,2426 3380,2422 3295,2419 3210,2416 3126,2414 3042,2411 2958,2409 2875,2407 2793,2405 2712,2404 2633,2402 2555,2400 2479,2398 2405,2396 2335,2392 2267,2387 2202,2381 2139,2376 2079,2369 2021,2362 1965,2354 1911,2347 1859,2339 1808,2331 1759,2323 1713,2314 1670,2304 1628,2295 1588,2285 1550,2275 1514,2265 1478,2255 1443,2245 1409,2235 1375,2226 1341,2217 1309,2208 1276,2199 1243,2191 1209,2183 1175,2175 1141,2167 1106,2160 1071,2153 1036,2146 1001,2140 965,2133 929,2127 892,2122 853,2116 812,2109 771,2103" style="fill:none;stroke:#FF0000;stroke-width:5"></polyline><polyline points="6500,2700 6449,2698 6397,2693 6343,2686 6288,2678 6229,2670 6169,2661 6107,2652 6043,2643 5979,2634 5913,2625 5846,2617 5779,2608 5712,2600 5643,2592 5573,2584 5503,2576 5431,2569 5358,2561 5284,2553 5208,2546 5131,2538 5053,2531 4975,2524 4895,2516 4815,2509 4733,2503 4651,2496 4570,2490 4488,2484 4407,2478 4324,2472 4240,2467 4157,2462 4072,2457 3988,2452 3905,2448 3822,2443 3741,2439 3661,2435 3582,2431 3506,2426 3430,2422 3355,2418 3280,2414 3206,2410 3132,2407 3058,2404 2985,2401 2913,2398 2843,2395 2773,2393 2705,2390 2639,2387 2575,2383 2515,2379 2457,2373 2402,2366 2349,2359 2299,2352 2251,2343 2205,2335 2161,2326 2118,2318 2078,2309 2039,2300 2003,2290 1969,2279 1938,2268 1908,2258 1879,2247 1853,2236 1828,2225 1803,2214 1778,2203 1754,2193 1731,2183 1708,2173 1685,2163 1661,2154 1638,2145 1613,2136 1588,2127 1563,2119 1538,2111 1512,2103" style="fill:none;stroke:#FF0000;stroke-width:5"></polyline><polyline points="6500,2700 6449,2698 6397,2693 6343,2686 6288,2678 6229,2670 6169,2661 6107,2652 6043,2643 5979,2634 5913,2625 5846,2617 5779,2608 5712,2600 5643,2592 5573,2584 5502,2576 5430,2568 5358,2561 5283,2553 5208,2546 5130,2538 5053,2530 4974,2523 4894,2516 4814,2509 4732,2502 4650,2496 4568,2489 4487,2483 4405,2477 4322,2472 4239,2466 4155,2461 4071,2456 3986,2452 3903,2447 3820,2443 3738,2439 3658,2434 3580,2430 3503,2426 3427,2421 3352,2417 3277,2413 3202,2410 3128,2406 3054,2403 2981,2400 2908,2397 2838,2395 2768,2392 2699,2389 2633,2386 2569,2383 2508,2378 2451,2372 2395,2366 2342,2359 2291,2351 2243,2343 2197,2335 2152,2326 2110,2317 2069,2309 2030,2299 1994,2289 1960,2279 1928,2268 1897,2258 1869,2247 1842,2235 1817,2224 1791,2214 1767,2203 1742,2193 1719,2183 1695,2173 1672,2163 1649,2154 1625,2145 1600,2136 1575,2128 1549,2119 1524,2111 1498,2104" style="fill:none;stroke:#FF0000;stroke-width:5"></polyline><polyline points="6500,2700 6449,2698 6397,2693 6343,2686 6288,2678 6229,2670 6169,2661 6107,2652 6043,2643 5979,2634 5913,2625 5845,2616 5776,2607 5707,2598 5636,2589 5563,2580 5490,2572 5415,2563 5339,2555 5263,2546 5184,2538 5104,2529 5023,2521 4942,2512 4860,2504 4776,2496 4692,2489 4607,2481 4523,2474 4439,2467 4354,2460 4269,2454 4182,2447 4096,2441 4009,2435 3922,2430 3836,2424 3751,2419 3666,2414 3584,2409 3502,2404 3423,2399 3345,2393 3267,2388 3189,2383 3112,2379 3035,2375 2958,2371 2883,2367 2808,2363 2735,2359 2662,2356 2591,2352 2523,2348 2456,2344 2393,2338 2333,2331 2275,2324 2220,2316 2167,2308 2116,2298 2067,2289 2021,2280 1975,2270 1931,2260 1888,2251 1846,2241 1806,2232 1767,2222 1731,2212 1696,2202 1662,2192 1630,2182 1599,2172 1567,2163 1537,2154 1506,2144 1477,2136 1447,2127 1417,2119 1387,2111 1356,2103" style="fill:none;stroke:#FF0000;stroke-width:5"></polyline><polyline points="6500,2700 6449,2698 6397,2693 6343,2686 6288,2678 6229,2670 6169,2661 6107,2652 6043,2643 5979,2634 5913,2625 5846,2617 5779,2608 5712,2600 5643,2592 5573,2584 5503,2576 5431,2569 5358,2561 5284,2553 5208,2546 5131,2538 5053,2531 4975,2524 4895,2516 4815,2509 4733,2503 4651,2496 4570,2490 4488,2484 4407,2478 4324,2472 4240,2467 4156,2462 4072,2457 3988,2452 3905,2448 3822,2443 3740,2439 3660,2435 3582,2431 3505,2426 3429,2422 3354,2418 3279,2414 3204,2410 3130,2407 3056,2404 2983,2401 2911,2398 2840,2396 2770,2393 2702,2390 2636,2387 2572,2384 2511,2379 2454,2373 2398,2367 2345,2360 2294,2353 2247,2344 2200,2336 2156,2327 2113,2319 2072,2310 2034,2301 1997,2291 1963,2280 1932,2270 1901,2259 1873,2248 1846,2237 1821,2226 1796,2215 1771,2205 1747,2194 1723,2184 1700,2175 1677,2165 1653,2156 1629,2147 1605,2138 1579,2129 1554,2121 1528,2113 1503,2105" style="fill:none;stroke:#FF0000;stroke-width:5"></polyline><polyline points="6500,2700 6449,2698 6397,2693 6343,2686 6288,2678 6229,2670 6169,2661 6107,2652 6043,2643 5979,2634 5913,2625 5846,2617 5779,2608 5712,2600 5643,2592 5573,2584 5503,2576 5431,2569 5358,2561 5284,2553 5208,2546 5131,2538 5053,2531 4975,2524 4895,2516 4815,2509 4733,2503 4651,2496 4570,2490 4488,2484 4407,2478 4324,2472 4240,2467 4157,2462 4072,2457 3988,2452 3905,2448 3822,2443 3741,2439 3661,2435 3582,2431 3506,2426 3430,2422 3355,2418 3280,2414 3206,2410 3132,2407 3058,2404 2985,2401 2913,2398 2843,2395 2773,2393 2705,2390 2639,2387 2575,2383 2515,2379 2457,2373 2402,2366 2349,2359 2299,2352 2251,2343 2205,2335 2161,2326 2118,2318 2078,2309 2039,2300 2003,2290 1969,2279 1938,2268 1908,2258 1879,2247 1853,2236 1828,2225 1803,2214 1778,2203 1754,2193 1731,2183 1708,2173 1685,2163 1661,2154 1638,2145 1613,2136 1588,2127 1563,2119 1538,2111 1512,2103" style="fill:none;stroke:#FF0000;stroke-width:5"></polyline><polyline points="6500,2700 6449,2698 6397,2693 6343,2686 6288,2678 6229,2670 6169,2661 6107,2652 6043,2643 5979,2634 5913,2625 5845,2616 5777,2607 5708,2599 5638,2590 5567,2582 5494,2573 5421,2565 5346,2557 5271,2549 5193,2541 5115,2533 5035,2525 4955,2517 4874,2509 4792,2502 4708,2494 4625,2487 4542,2480 4459,2474 4375,2468 4291,2461 4206,2455 4120,2450 4035,2444 3949,2439 3864,2434 3780,2429 3697,2425 3615,2420 3535,2415 3457,2410 3380,2405 3303,2401 3226,2396 3150,2392 3075,2388 2999,2385 2925,2381 2851,2378 2779,2375 2707,2372 2638,2369 2570,2365 2504,2361 2442,2356 2383,2350 2326,2343 2271,2335 2219,2327 2170,2318 2122,2310 2076,2300 2032,2291 1990,2282 1949,2272 1912,2262 1876,2251 1843,2240 1811,2228 1781,2217 1753,2205 1726,2194 1700,2183 1673,2172 1648,2161 1622,2150 1598,2140 1573,2130 1548,2120 1523,2111 1498,2101" style="fill:none;stroke:#FF0000;stroke-width:5"></polyline><polyline points="6500,2700 6449,2698 6397,2693 6343,2686 6288,2678 6229,2670 6169,2661 6107,2652 6043,2643 5979,2634 5913,2625 5846,2617 5779,2608 5712,2600 5643,2592 5573,2584 5503,2576 5431,2569 5358,2561 5284,2553 5208,2546 5131,2538 5053,2531 4975,2524 4895,2516 4815,2509 4733,2503 4651,2496 4570,2490 4488,2484 4407,2478 4324,2472 4240,2467 4157,2462 4072,2457 3988,2452 3905,2448 3822,2443 3741,2439 3661,2435 3582,2431 3506,2426 3430,2422 3355,2418 3280,2414 3206,2410 3132,2407 3058,2404 2985,2401 2913,2398 2843,2395 2773,2393 2705,2390 2639,2387 2575,2383 2515,2379 2457,2373 2402,2366 2349,2359 2299,2352 2251,2343 2205,2335 2161,2326 2118,2318 2078,2309 2039,2300 2003,2290 1969,2279 1938,2268 1908,2258 1879,2247 1853,2236 1828,2225 1803,2214 1778,2203 1754,2193 1731,2183 1708,2173 1685,2163 1661,2154 1638,2145 1613,2136 1588,2127 1563,2119 1538,2111 1512,2103" style="fill:none;stroke:#FF0000;stroke-width:5"></polyline><polyline points="6500,2700 6449,2698 6397,2693 6343,2686 6288,2678 6229,2670 6169,2661 6107,2652 6043,2643 5979,2634 5913,2625 5846,2617 5779,2608 5712,2600 5643,2592 5573,2584 5503,2576 5431,2569 5358,2561 5284,2553 5208,2546 5131,2538 5053,2531 4975,2524 4895,2516 4815,2509 4733,2503 4651,2496 4570,2490 4488,2484 4407,2478 4324,2472 4240,2467 4157,2462 4072,2457 3988,2452 3905,2448 3822,2443 3741,2439 3661,2435 3582,2431 3506,2426 3430,2422 3355,2418 3280,2414 3206,2410 3132,2407 3058,2404 2985,2401 2913,2398 2843,2395 2773,2393 2705,2390 2639,2387 2575,2383 2515,2379 2457,2373 2402,2366 2349,2359 2299,2352 2251,2343 2205,2335 2161,2326 2118,2318 2078,2309 2039,2300 2003,2290 1969,2279 1938,2268 1908,2258 1879,2247 1853,2236 1828,2225 1803,2214 1778,2203 1754,2193 1731,2183 1708,2173 1685,2163 1661,2154 1638,2145 1613,2136 1588,2127 1563,2119 1538,2111 1512,2103" style="fill:none;stroke:#FF0000;stroke-width:5"></polyline><polyline points="6500,2700 6449,2698 6397,2693 6343,2686 6288,2678 6229,2670 6169,2661 6107,2652 6043,2643 5979,2634 5913,2625 5845,2616 5777,2607 5708,2599 5638,2590 5567,2582 5494,2573 5421,2565 5346,2557 5271,2549 5193,2541 5115,2533 5035,2525 4955,2517 4874,2509 4792,2502 4708,2494 4625,2487 4542,2480 4459,2474 4375,2468 4291,2461 4206,2455 4120,2450 4034,2444 3948,2439 3864,2434 3779,2429 3696,2425 3615,2420 3534,2415 3456,2410 3379,2405 3302,2401 3225,2396 3149,2392 3073,2388 2998,2385 2923,2381 2849,2378 2777,2375 2705,2372 2636,2368 2568,2365 2502,2361 2440,2356 2381,2349 2324,2342 2269,2335 2217,2327 2168,2318 2120,2309 2074,2300 2030,2290 1988,2281 1947,2271 1909,2261 1874,2250 1841,2238 1809,2227 1779,2216 1751,2204 1724,2192 1698,2181 1671,2170 1646,2159 1621,2148 1596,2138 1571,2128 1547,2118 1522,2108" style="fill:none;stroke:#FF0000;stroke-width:5"></polyline><polyline points="6500,2700 6449,2698 6397,2693 6343,2686 6288,2678 6229,2670 6169,2661 6107,2652 6043,2643 5979,2634 5913,2625 5846,2617 5779,2608 5712,2600 5643,2592 5573,2584 5503,2576 5431,2569 5358,2561 5284,2553 5208,2546 5131,2538 5053,2531 4975,2524 4895,2516 4815,2509 4733,2503 4651,2496 4570,2490 4488,2484 4407,2478 4324,2472 4240,2467 4157,2462 4072,2457 3988,2452 3905,2448 3822,2443 3741,2439 3661,2435 3582,2431 3506,2426 3430,2422 3355,2418 3280,2414 3206,2410 3132,2407 3058,2404 2985,2401 2913,2398 2843,2395 2773,2393 2705,2390 2639,2387 2575,2383 2515,2379 2457,2373 2402,2366 2349,2359 2299,2352 2251,2343 2205,2335 2161,2326 2118,2318 2078,2309 2039,2300 2003,2290 1969,2279 1938,2268 1908,2258 1879,2247 1853,2236 1828,2225 1803,2214 1778,2203 1754,2193 1731,2183 1708,2173 1685,2163 1661,2154 1638,2145 1613,2136 1588,2127 1563,2119 1538,2111 1512,2103" style="fill:none;stroke:#FF0000;stroke-width:5"></polyline><polyline points="6500,2700 6449,2698 6397,2693 6343,2686 6288,2678 6229,2670 6169,2661 6107,2652 6043,2643 5979,2634 5913,2625 5846,2617 5779,2608 5712,2600 5643,2592 5573,2584 5503,2576 5431,2569 5358,2561 5284,2553 5208,2546 5131,2538 5053,2531 4975,2524 4895,2516 4815,2509 4733,2503 4651,2496 4570,2490 4488,2484 4407,2478 4324,2472 4240,2467 4157,2462 4072,2457 3988,2452 3905,2448 3822,2443 3741,2439 3661,2435 3582,2431 3506,2426 3430,2422 3355,2418 3280,2414 3206,2410 3132,2407 3058,2404 2985,2401 2913,2398 2843,2395 2773,2393 2705,2390 2639,2387 2575,2383 2515,2379 2457,2373 2402,2366 2349,2359 2299,2352 2251,2343 2205,2335 2161,2326 2118,2318 2078,2309 2039,2300 2003,2290 1969,2279 1938,2268 1908,2258 1879,2247 1853,2236 1828,2225 1803,2214 1778,2203 1754,2193 1731,2183 1708,2173 1685,2163 1661,2154 1638,2145 1613,2136 1588,2127 1563,2119 1538,2111 1512,2103" style="fill:none;stroke:#FF0000;stroke-width:5"></polyline><polyline points="6500,2700 6449,2698 6397,2693 6343,2686 6288,2678 6229,2670 6169,2661 6107,2652 6043,2643 5979,2634 5913,2625 5846,2617 5779,2608 5712,2600 5643,2592 5573,2584 5503,2576 5431,2569 5358,2561 5284,2553 5208,2546 5131,2538 5053,2531 4975,2524 4895,2516 4815,2509 4733,2503 4651,2496 4570,2490 4488,2484 4407,2478 4324,2472 4240,2467 4157,2462 4072,2457 3988,2452 3905,2448 3822,2443 3741,2439 3661,2435 3582,2431 3506,2426 3430,2422 3355,2418 3280,2414 3206,2410 3132,2407 3058,2404 2985,2401 2913,2398 2843,2395 2773,2393 2705,2390 2639,2387 2575,2383 2515,2379 2457,2373 2402,2366 2349,2359 2299,2352 2251,2343 2205,2335 2161,2326 2118,2318 2078,2309 2039,2300 2003,2290 1969,2279 1938,2268 1908,2258 1879,2247 1853,2236 1828,2225 1803,2214 1778,2203 1754,2193 1731,2183 1708,2173 1685,2163 1661,2154 1638,2145 1613,2136 1588,2127 1563,2119 1538,2111 1512,2103" style="fill:none;stroke:#FF0000;stroke-width:5"></polyline><polyline points="6500,2700 6449,2698 6397,2693 6343,2686 6288,2678 6229,2670 6169,2661 6107,2652 6043,2643 5979,2634 5913,2625 5846,2616 5779,2608 5711,2600 5642,2592 5571,2583 5500,2575 5429,2568 5355,2560 5281,2552 5205,2545 5127,2537 5049,2529 4971,2522 4891,2515 4810,2507 4728,2501 4646,2494 4564,2487 4482,2481 4400,2475 4317,2470 4233,2464 4149,2459 4065,2454 3980,2449 3897,2444 3814,2440 3732,2436 3652,2431 3573,2427 3496,2423 3420,2418 3345,2414 3269,2410 3195,2406 3120,2403 3046,2400 2973,2397 2901,2394 2830,2391 2760,2388 2691,2385 2625,2382 2561,2379 2500,2374 2442,2368 2386,2361 2333,2355 2282,2347 2234,2339 2188,2330 2143,2321 2100,2313 2059,2304 2020,2294 1984,2284 1950,2274 1918,2263 1887,2252 1859,2241 1832,2230 1806,2219 1781,2208 1756,2197 1731,2187 1708,2177 1684,2167 1661,2157 1637,2148 1614,2139 1589,2130 1564,2121 1539,2113 1514,2105" style="fill:none;stroke:#FF0000;stroke-width:5"></polyline><polyline points="6500,2700 6449,2698 6397,2693 6343,2686 6288,2678 6229,2670 6169,2661 6107,2652 6043,2643 5979,2634 5913,2625 5846,2616 5779,2608 5711,2600 5643,2592 5572,2584 5501,2576 5429,2568 5356,2560 5282,2553 5206,2545 5129,2537 5051,2530 4972,2523 4893,2515 4812,2508 4730,2501 4648,2495 4566,2488 4485,2482 4403,2476 4320,2471 4236,2465 4152,2460 4067,2455 3983,2450 3900,2446 3817,2441 3735,2437 3655,2433 3576,2428 3499,2424 3423,2420 3348,2415 3273,2412 3198,2408 3124,2404 3050,2401 2977,2398 2904,2395 2833,2393 2763,2390 2695,2387 2629,2384 2565,2381 2504,2376 2446,2370 2391,2364 2337,2357 2287,2349 2238,2341 2192,2332 2148,2324 2105,2315 2064,2306 2025,2297 1988,2287 1955,2276 1923,2266 1892,2255 1864,2244 1837,2233 1811,2222 1786,2211 1761,2200 1737,2190 1713,2180 1690,2170 1666,2160 1643,2151 1619,2142 1594,2133 1569,2124 1543,2116 1517,2108 1492,2100" style="fill:none;stroke:#FF0000;stroke-width:5"></polyline><polyline points="6500,2700 6449,2698 6397,2693 6343,2686 6288,2678 6229,2670 6169,2661 6107,2652 6043,2643 5979,2634 5913,2625 5846,2617 5779,2608 5712,2600 5643,2592 5573,2584 5502,2576 5430,2568 5358,2561 5283,2553 5208,2546 5130,2538 5053,2530 4974,2523 4894,2516 4814,2509 4732,2502 4650,2496 4568,2489 4487,2483 4405,2477 4322,2472 4239,2466 4155,2461 4071,2456 3986,2452 3903,2447 3820,2443 3738,2439 3658,2434 3580,2430 3503,2426 3427,2421 3352,2417 3277,2413 3202,2410 3128,2406 3054,2403 2981,2400 2908,2397 2838,2395 2768,2392 2699,2389 2633,2386 2569,2383 2508,2378 2451,2372 2395,2366 2342,2359 2291,2351 2243,2343 2197,2335 2152,2326 2110,2317 2069,2309 2030,2299 1994,2289 1960,2279 1928,2268 1897,2258 1869,2247 1842,2235 1817,2224 1791,2214 1767,2203 1742,2193 1719,2183 1695,2173 1672,2163 1649,2154 1625,2145 1600,2136 1575,2128 1549,2119 1524,2111 1498,2104" style="fill:none;stroke:#FF0000;stroke-width:5"></polyline><polyline points="6500,2700 6449,2698 6397,2693 6343,2686 6288,2678 6229,2670 6169,2661 6107,2652 6043,2643 5979,2634 5913,2625 5846,2617 5779,2608 5712,2600 5643,2592 5573,2584 5502,2576 5430,2568 5358,2561 5283,2553 5208,2546 5130,2538 5053,2530 4974,2523 4894,2516 4814,2509 4732,2502 4650,2496 4568,2489 4487,2483 4405,2477 4322,2472 4239,2466 4155,2461 4071,2456 3986,2452 3903,2447 3820,2443 3738,2439 3658,2434 3580,2430 3503,2426 3427,2421 3352,2417 3277,2413 3202,2410 3128,2406 3054,2403 2981,2400 2908,2397 2838,2395 2768,2392 2699,2389 2633,2386 2569,2383 2508,2378 2451,2372 2395,2366 2342,2359 2291,2351 2243,2343 2197,2335 2152,2326 2110,2317 2069,2309 2030,2299 1994,2289 1960,2279 1928,2268 1897,2258 1869,2247 1842,2235 1817,2224 1792,2214 1767,2203 1743,2193 1719,2183 1696,2173 1673,2163 1649,2154 1625,2145 1601,2136 1577,2127 1552,2119 1527,2111 1502,2103" style="fill:none;stroke:#FF0000;stroke-width:5"></polyline><polyline points="6500,2700 6449,2698 6397,2693 6343,2686 6288,2678 6229,2670 6169,2661 6107,2652 6043,2643 5979,2634 5913,2625 5846,2617 5779,2608 5712,2600 5643,2592 5573,2584 5502,2576 5430,2568 5358,2561 5283,2553 5208,2546 5130,2538 5053,2530 4974,2523 4894,2516 4814,2509 4732,2502 4650,2496 4568,2489 4487,2483 4405,2477 4322,2472 4239,2466 4155,2461 4071,2456 3986,2452 3903,2447 3820,2443 3738,2439 3658,2434 3580,2430 3503,2426 3427,2421 3352,2417 3277,2413 3202,2410 3128,2406 3054,2403 2981,2400 2908,2397 2838,2395 2768,2392 2699,2389 2633,2386 2569,2383 2508,2378 2451,2372 2395,2366 2342,2359 2291,2351 2243,2343 2197,2335 2152,2326 2110,2317 2069,2309 2030,2299 1994,2289 1960,2279 1928,2268 1897,2258 1869,2247 1842,2235 1817,2224 1792,2214 1767,2203 1743,2193 1719,2183 1696,2173 1673,2163 1649,2154 1625,2145 1601,2136 1577,2127 1552,2119 1527,2111 1502,2103" style="fill:none;stroke:#FF0000;stroke-width:5"></polyline><polyline points="6500,2700 6449,2698 6397,2693 6343,2686 6288,2678 6229,2670 6169,2661 6107,2652 6043,2643 5979,2634 5913,2625 5845,2616 5776,2607 5707,2598 5636,2589 5563,2580 5490,2572 5415,2563 5339,2555 5263,2546 5184,2538 5104,2529 5023,2521 4942,2512 4860,2504 4776,2496 4692,2489 4607,2481 4523,2474 4439,2467 4354,2460 4269,2454 4182,2447 4096,2441 4009,2435 3922,2430 3836,2424 3751,2419 3666,2414 3584,2409 3502,2404 3423,2399 3345,2393 3267,2388 3189,2383 3112,2379 3035,2375 2958,2371 2883,2367 2808,2363 2735,2359 2662,2356 2591,2352 2523,2348 2456,2344 2393,2338 2333,2331 2275,2324 2220,2316 2167,2308 2116,2298 2067,2289 2021,2280 1975,2270 1932,2260 1891,2250 1852,2239 1816,2228 1782,2216 1749,2204 1718,2192 1689,2180 1661,2168 1633,2156 1606,2145 1580,2134 1554,2123 1528,2112 1502,2101" style="fill:none;stroke:#FF0000;stroke-width:5"></polyline><polyline points="6500,2700 6449,2698 6397,2693 6343,2686 6288,2678 6229,2670 6169,2661 6107,2652 6043,2643 5979,2634 5913,2625 5846,2617 5779,2608 5712,2600 5643,2592 5573,2584 5502,2576 5430,2568 5358,2561 5283,2553 5208,2546 5130,2538 5053,2530 4974,2523 4894,2516 4814,2509 4732,2502 4650,2496 4568,2489 4487,2483 4405,2477 4322,2472 4239,2466 4155,2461 4071,2456 3986,2452 3903,2447 3820,2443 3738,2439 3658,2434 3580,2430 3503,2426 3427,2421 3352,2417 3277,2413 3202,2410 3128,2406 3054,2403 2981,2400 2908,2397 2838,2395 2768,2392 2699,2389 2633,2386 2569,2383 2508,2378 2451,2372 2395,2366 2342,2359 2291,2351 2243,2343 2197,2335 2152,2326 2110,2317 2069,2309 2030,2299 1994,2289 1960,2279 1928,2268 1897,2258 1869,2247 1842,2235 1817,2224 1792,2214 1767,2203 1743,2193 1719,2183 1696,2173 1673,2163 1649,2154 1625,2145 1601,2136 1577,2127 1552,2119 1527,2111 1502,2103" style="fill:none;stroke:#FF0000;stroke-width:5"></polyline><polyline points="6500,2700 6449,2698 6397,2693 6343,2686 6288,2678 6229,2670 6169,2661 6107,2652 6043,2643 5979,2634 5913,2625 5845,2616 5776,2607 5707,2598 5636,2589 5563,2580 5490,2572 5415,2563 5339,2555 5263,2546 5184,2538 5104,2529 5023,2521 4942,2512 4860,2504 4776,2496 4692,2489 4607,2481 4523,2474 4439,2467 4354,2460 4269,2454 4182,2447 4096,2441 4009,2435 3922,2430 3836,2424 3751,2419 3666,2414 3584,2409 3502,2404 3423,2399 3345,2393 3267,2388 3189,2383 3112,2379 3035,2375 2958,2371 2883,2367 2808,2363 2735,2359 2662,2356 2591,2352 2523,2348 2456,2344 2393,2338 2333,2331 2275,2324 2220,2316 2167,2308 2116,2298 2067,2289 2021,2280 1975,2270 1931,2260 1888,2251 1846,2241 1806,2232 1767,2222 1731,2212 1696,2202 1662,2192 1630,2182 1599,2172 1567,2163 1537,2154 1506,2144 1477,2136 1447,2127 1417,2119 1387,2111 1356,2103" style="fill:none;stroke:#FF0000;stroke-width:5"></polyline><polyline points="6500,2700 6449,2698 6397,2693 6343,2686 6288,2678 6229,2670 6169,2661 6107,2652 6043,2643 5979,2634 5913,2625 5846,2617 5779,2608 5712,2600 5643,2592 5573,2584 5502,2576 5430,2568 5358,2561 5283,2553 5208,2546 5130,2538 5053,2530 4974,2523 4894,2516 4814,2509 4732,2502 4650,2496 4568,2489 4487,2483 4405,2477 4322,2472 4239,2466 4155,2461 4070,2456 3984,2451 3899,2447 3814,2442 3730,2438 3646,2434 3564,2430 3484,2426 3404,2422 3325,2418 3246,2415 3168,2412 3090,2409 3012,2406 2935,2403 2859,2401 2784,2398 2711,2396 2639,2394 2568,2391 2501,2388 2436,2384 2375,2378 2315,2372 2258,2366 2204,2359 2152,2351 2102,2343 2054,2334 2007,2326 1962,2317 1920,2309 1880,2299 1842,2289 1806,2279 1772,2268 1740,2258 1709,2247 1680,2236 1651,2226 1622,2216 1594,2206 1567,2196 1540,2187 1513,2177 1485,2168 1457,2160 1429,2151 1400,2143 1371,2135 1341,2128 1312,2120 1282,2113 1252,2106" style="fill:none;stroke:#FF0000;stroke-width:5"></polyline><polyline points="6500,2700 6449,2698 6397,2693 6343,2686 6288,2678 6229,2670 6169,2661 6107,2652 6043,2643 5979,2634 5913,2625 5846,2617 5779,2608 5712,2600 5643,2592 5573,2584 5502,2576 5430,2568 5358,2561 5283,2553 5208,2546 5130,2538 5053,2530 4974,2523 4894,2516 4814,2509 4732,2502 4650,2496 4568,2489 4487,2483 4405,2477 4322,2472 4239,2466 4155,2461 4071,2456 3986,2452 3903,2447 3820,2443 3738,2439 3658,2434 3580,2430 3503,2426 3427,2421 3352,2417 3277,2413 3202,2410 3128,2406 3054,2403 2981,2400 2908,2397 2838,2395 2768,2392 2699,2389 2633,2386 2569,2383 2508,2378 2451,2372 2395,2366 2342,2359 2291,2351 2243,2343 2197,2335 2152,2326 2110,2317 2069,2309 2030,2299 1994,2289 1960,2279 1928,2268 1897,2258 1869,2247 1842,2235 1817,2224 1792,2214 1767,2203 1743,2193 1719,2183 1696,2173 1673,2163 1649,2154 1625,2145 1601,2136 1577,2127 1552,2119 1527,2111 1502,2103" style="fill:none;stroke:#FF0000;stroke-width:5"></polyline><polyline points="6500,2700 6449,2698 6397,2693 6343,2686 6288,2678 6229,2670 6169,2661 6107,2652 6043,2643 5979,2634 5913,2625 5845,2616 5776,2607 5707,2598 5636,2589 5563,2580 5490,2572 5415,2563 5339,2555 5263,2546 5184,2538 5104,2529 5023,2521 4942,2512 4860,2504 4776,2496 4692,2489 4607,2481 4523,2474 4439,2467 4354,2460 4269,2454 4182,2447 4096,2441 4009,2435 3922,2430 3836,2424 3751,2419 3666,2414 3584,2409 3502,2404 3423,2399 3345,2393 3267,2388 3189,2383 3112,2379 3035,2375 2958,2371 2882,2367 2808,2363 2734,2360 2662,2356 2591,2352 2522,2348 2456,2344 2392,2338 2332,2331 2274,2324 2219,2316 2165,2308 2115,2299 2066,2289 2019,2280 1974,2270 1931,2260 1889,2250 1850,2239 1814,2228 1780,2216 1747,2204 1716,2192 1687,2180 1659,2168 1631,2157 1604,2145 1577,2134 1551,2123 1526,2112 1500,2101" style="fill:none;stroke:#FF0000;stroke-width:5"></polyline><polyline points="6500,2700 6449,2698 6397,2693 6343,2686 6288,2678 6229,2670 6169,2661 6107,2652 6043,2643 5979,2634 5913,2625 5846,2617 5779,2608 5712,2600 5643,2592 5573,2584 5502,2576 5430,2568 5358,2561 5283,2553 5208,2546 5130,2538 5053,2530 4974,2523 4894,2516 4814,2509 4732,2502 4650,2496 4568,2489 4487,2483 4405,2477 4322,2472 4239,2466 4155,2461 4071,2456 3986,2452 3903,2447 3820,2443 3738,2439 3658,2434 3580,2430 3503,2426 3427,2421 3352,2417 3277,2413 3202,2410 3128,2406 3054,2403 2981,2400 2908,2397 2838,2395 2768,2392 2699,2389 2633,2386 2569,2383 2508,2378 2451,2372 2395,2366 2342,2359 2291,2351 2243,2343 2197,2335 2152,2326 2110,2317 2069,2309 2030,2299 1994,2289 1960,2279 1928,2268 1897,2258 1869,2247 1842,2235 1817,2224 1792,2214 1767,2203 1743,2193 1719,2183 1696,2173 1673,2163 1649,2154 1625,2145 1601,2136 1577,2127 1552,2119 1527,2111 1502,2103" style="fill:none;stroke:#FF0000;stroke-width:5"></polyline><polyline points="6500,2700 6449,2698 6397,2693 6343,2686 6288,2678 6229,2670 6169,2661 6107,2652 6043,2643 5979,2634 5913,2625 5846,2617 5779,2608 5712,2600 5643,2592 5573,2584 5502,2576 5430,2568 5358,2561 5283,2553 5208,2546 5130,2538 5053,2530 4974,2523 4894,2516 4814,2509 4732,2502 4650,2496 4568,2489 4487,2483 4405,2477 4322,2472 4239,2466 4155,2461 4071,2456 3986,2452 3903,2447 3820,2443 3738,2439 3658,2434 3580,2430 3503,2426 3427,2421 3352,2417 3277,2413 3202,2410 3128,2406 3054,2403 2981,2400 2908,2397 2838,2395 2768,2392 2699,2389 2633,2386 2569,2383 2508,2378 2451,2372 2395,2366 2342,2359 2291,2351 2243,2343 2197,2335 2152,2326 2110,2317 2069,2309 2030,2299 1994,2289 1960,2279 1928,2268 1897,2258 1869,2247 1842,2235 1817,2224 1792,2214 1767,2203 1743,2193 1719,2183 1696,2173 1673,2163 1649,2154 1625,2145 1601,2136 1577,2127 1552,2119 1527,2111 1502,2103" style="fill:none;stroke:#FF0000;stroke-width:5"></polyline><polyline points="6500,2700 6449,2698 6397,2693 6343,2686 6288,2678 6229,2670 6169,2661 6107,2652 6043,2643 5979,2634 5913,2625 5845,2616 5777,2607 5708,2599 5637,2590 5565,2581 5493,2573 5419,2564 5344,2556 5268,2548 5190,2540 5111,2531 5031,2523 4951,2516 4869,2508 4786,2500 4703,2493 4619,2485 4536,2478 4453,2472 4369,2465 4284,2459 4199,2453 4113,2447 4027,2441 3941,2436 3856,2431 3772,2426 3688,2421 3606,2416 3526,2411 3447,2406 3370,2401 3292,2396 3216,2392 3139,2388 3063,2384 2987,2380 2912,2376 2838,2373 2765,2369 2693,2366 2623,2363 2555,2359 2489,2355 2426,2350 2367,2343 2309,2336 2254,2328 2202,2320 2152,2311 2104,2302 2057,2293 2013,2283 1970,2274 1929,2264 1891,2253 1855,2242 1822,2231 1790,2219 1759,2208 1731,2196 1704,2184 1677,2173 1650,2161 1624,2150 1598,2140 1573,2129 1548,2119 1523,2109" style="fill:none;stroke:#FF0000;stroke-width:5"></polyline><polyline points="6500,2700 6449,2698 6397,2693 6343,2686 6288,2678 6229,2670 6169,2661 6107,2652 6043,2643 5979,2634 5913,2625 5846,2617 5779,2608 5712,2600 5643,2592 5573,2584 5502,2576 5430,2568 5358,2561 5283,2553 5208,2546 5130,2538 5053,2530 4974,2523 4894,2516 4814,2509 4732,2502 4650,2496 4568,2489 4487,2483 4405,2477 4322,2472 4239,2466 4155,2461 4071,2456 3986,2452 3903,2447 3820,2443 3738,2439 3658,2434 3580,2430 3503,2426 3427,2421 3352,2417 3277,2413 3202,2410 3128,2406 3054,2403 2981,2400 2908,2397 2838,2395 2768,2392 2699,2389 2633,2386 2569,2383 2508,2378 2451,2372 2395,2366 2342,2359 2291,2351 2243,2343 2197,2335 2152,2326 2110,2317 2069,2309 2030,2299 1994,2289 1960,2279 1928,2268 1897,2258 1869,2247 1842,2235 1817,2224 1792,2214 1767,2203 1743,2193 1719,2183 1696,2173 1673,2163 1649,2154 1625,2145 1601,2136 1577,2127 1552,2119 1527,2111 1502,2103" style="fill:none;stroke:#FF0000;stroke-width:5"></polyline><polyline points="6500,2700 6449,2698 6397,2693 6343,2686 6288,2678 6229,2670 6169,2661 6107,2652 6043,2643 5979,2634 5913,2625 5846,2617 5779,2608 5712,2600 5643,2592 5573,2584 5502,2576 5430,2568 5358,2561 5283,2553 5208,2546 5130,2538 5053,2530 4974,2523 4894,2516 4814,2509 4732,2502 4650,2496 4568,2489 4487,2483 4405,2477 4322,2472 4239,2466 4155,2461 4071,2456 3986,2452 3903,2447 3820,2443 3738,2439 3658,2434 3580,2430 3503,2426 3427,2421 3352,2417 3277,2413 3202,2410 3128,2406 3054,2403 2981,2400 2908,2397 2838,2395 2768,2392 2699,2389 2633,2386 2569,2383 2508,2378 2451,2372 2395,2366 2342,2359 2291,2351 2243,2343 2197,2335 2152,2326 2110,2317 2069,2309 2030,2299 1994,2289 1960,2279 1928,2268 1897,2258 1869,2247 1842,2235 1817,2224 1792,2214 1767,2203 1743,2193 1719,2183 1696,2173 1673,2163 1649,2154 1625,2145 1601,2136 1577,2127 1552,2119 1527,2111 1502,2103" style="fill:none;stroke:#FF0000;stroke-width:5"></polyline><polyline points="6500,2700 6449,2698 6397,2693 6343,2686 6288,2678 6229,2670 6169,2661 6107,2652 6043,2643 5979,2634 5913,2625 5846,2617 5779,2608 5712,2600 5643,2592 5573,2584 5502,2576 5430,2568 5358,2561 5283,2553 5208,2546 5130,2538 5053,2530 4974,2523 4894,2516 4814,2509 4732,2502 4650,2496 4568,2489 4487,2483 4405,2477 4322,2472 4239,2466 4155,2461 4071,2456 3986,2452 3903,2447 3820,2443 3738,2439 3658,2434 3580,2430 3503,2426 3427,2421 3352,2417 3277,2413 3202,2410 3128,2406 3054,2403 2981,2400 2908,2397 2838,2395 2768,2392 2699,2389 2633,2386 2569,2383 2508,2378 2451,2372 2395,2366 2342,2359 2291,2351 2243,2343 2197,2335 2152,2326 2110,2317 2069,2309 2030,2299 1994,2289 1960,2279 1928,2268 1897,2258 1869,2247 1842,2235 1817,2224 1792,2214 1767,2203 1743,2193 1719,2183 1696,2173 1673,2163 1649,2154 1625,2145 1601,2136 1577,2127 1552,2119 1527,2111 1502,2103" style="fill:none;stroke:#FF0000;stroke-width:5"></polyline><polyline points="6500,2700 6449,2698 6397,2693 6343,2686 6288,2678 6229,2670 6169,2661 6107,2652 6043,2643 5979,2634 5913,2625 5845,2616 5777,2607 5709,2599 5639,2591 5568,2582 5496,2574 5423,2566 5349,2558 5273,2550 5197,2542 5118,2534 5039,2526 4959,2518 4879,2511 4797,2503 4714,2496 4631,2489 4548,2482 4465,2476 4382,2470 4298,2464 4214,2458 4129,2452 4043,2447 3958,2442 3873,2437 3790,2432 3707,2428 3626,2423 3546,2418 3468,2414 3391,2409 3315,2404 3239,2400 3163,2396 3088,2393 3013,2389 2939,2386 2866,2383 2794,2379 2723,2376 2654,2373 2586,2370 2521,2366 2460,2361 2401,2355 2344,2348 2290,2342 2238,2334 2188,2326 2141,2317 2095,2309 2051,2300 2008,2291 1968,2282 1931,2272 1895,2261 1862,2250 1831,2239 1801,2228 1773,2217 1746,2206 1720,2195 1694,2185 1668,2174 1643,2164 1619,2154 1594,2145 1569,2135 1544,2126 1519,2117 1493,2109 1466,2100" style="fill:none;stroke:#FF0000;stroke-width:5"></polyline><polyline points="6500,2700 6449,2698 6397,2693 6343,2686 6288,2678 6229,2670 6169,2661 6107,2652 6043,2643 5979,2634 5913,2625 5846,2617 5779,2608 5712,2600 5643,2592 5573,2584 5502,2576 5430,2568 5358,2561 5283,2553 5208,2546 5130,2538 5053,2530 4974,2523 4894,2516 4814,2509 4732,2502 4650,2496 4568,2489 4487,2483 4405,2477 4322,2472 4239,2466 4155,2461 4071,2456 3986,2452 3903,2447 3820,2443 3738,2439 3658,2434 3580,2430 3503,2426 3427,2421 3352,2417 3277,2413 3202,2410 3128,2406 3054,2403 2981,2400 2908,2397 2838,2395 2768,2392 2699,2389 2633,2386 2569,2383 2508,2378 2451,2372 2395,2366 2342,2359 2291,2351 2243,2343 2197,2335 2152,2326 2110,2317 2069,2309 2030,2299 1994,2289 1960,2279 1928,2268 1897,2258 1869,2247 1842,2235 1817,2224 1792,2214 1767,2203 1743,2193 1719,2183 1696,2173 1673,2163 1649,2154 1625,2145 1601,2136 1577,2127 1552,2119 1527,2111 1502,2103" style="fill:none;stroke:#FF0000;stroke-width:5"></polyline><polyline points="6500,2700 6449,2698 6397,2693 6343,2686 6288,2678 6229,2670 6169,2661 6107,2652 6043,2643 5979,2634 5913,2625 5846,2617 5779,2608 5712,2600 5643,2592 5573,2584 5502,2576 5430,2568 5358,2561 5283,2553 5208,2546 5130,2538 5053,2530 4974,2523 4894,2516 4814,2509 4732,2502 4650,2496 4568,2489 4487,2483 4405,2477 4322,2472 4239,2466 4155,2461 4071,2456 3986,2452 3903,2447 3820,2443 3738,2439 3658,2434 3580,2430 3503,2426 3427,2421 3352,2417 3277,2413 3202,2410 3128,2406 3054,2403 2981,2400 2908,2397 2838,2395 2768,2392 2699,2389 2633,2386 2569,2383 2508,2378 2451,2372 2395,2366 2342,2359 2291,2351 2243,2343 2197,2335 2152,2326 2110,2317 2069,2309 2030,2299 1994,2289 1960,2279 1928,2268 1897,2258 1869,2247 1842,2235 1817,2224 1792,2214 1767,2203 1743,2193 1719,2183 1696,2173 1673,2163 1649,2154 1625,2145 1601,2136 1577,2127 1552,2119 1527,2111 1502,2103" style="fill:none;stroke:#FF0000;stroke-width:5"></polyline><polyline points="6500,2700 6449,2698 6397,2693 6343,2686 6288,2678 6229,2670 6169,2661 6107,2652 6043,2643 5979,2634 5913,2625 5846,2617 5779,2608 5712,2600 5643,2592 5573,2584 5502,2576 5430,2568 5358,2561 5283,2553 5208,2546 5130,2538 5053,2530 4974,2523 4894,2516 4814,2509 4732,2502 4650,2496 4568,2489 4487,2483 4405,2477 4322,2472 4239,2466 4155,2461 4071,2456 3986,2452 3903,2447 3820,2443 3738,2439 3658,2434 3580,2430 3503,2426 3427,2421 3352,2417 3277,2413 3202,2410 3128,2406 3054,2403 2981,2400 2908,2397 2838,2395 2768,2392 2699,2389 2633,2386 2569,2383 2508,2378 2451,2372 2395,2366 2342,2359 2291,2351 2243,2343 2197,2335 2152,2326 2110,2317 2069,2309 2030,2299 1994,2289 1960,2279 1928,2268 1897,2258 1869,2247 1842,2235 1817,2224 1792,2214 1767,2203 1743,2193 1719,2183 1696,2173 1673,2163 1649,2154 1625,2145 1601,2136 1577,2127 1552,2119 1527,2111 1502,2103" style="fill:none;stroke:#FF0000;stroke-width:5"></polyline><polyline points="6500,2700 6449,2698 6397,2693 6343,2686 6288,2678 6229,2670 6169,2661 6107,2652 6043,2643 5979,2634 5913,2625 5846,2617 5779,2608 5712,2600 5643,2592 5573,2584 5502,2576 5430,2568 5358,2561 5283,2553 5208,2546 5130,2538 5053,2530 4974,2523 4894,2516 4814,2509 4732,2502 4650,2496 4568,2489 4487,2483 4405,2477 4322,2472 4239,2466 4155,2461 4071,2456 3986,2452 3903,2447 3820,2443 3738,2439 3658,2434 3580,2430 3503,2426 3427,2421 3352,2417 3277,2413 3202,2410 3128,2406 3054,2403 2981,2400 2908,2397 2838,2395 2768,2392 2699,2389 2633,2386 2569,2383 2508,2378 2451,2372 2395,2366 2342,2359 2291,2351 2243,2343 2197,2335 2152,2326 2110,2317 2069,2309 2030,2299 1994,2289 1960,2279 1928,2268 1897,2258 1869,2247 1842,2235 1817,2224 1792,2214 1767,2203 1743,2193 1719,2183 1696,2173 1673,2163 1649,2154 1625,2145 1601,2136 1577,2127 1552,2119 1527,2111 1502,2103" style="fill:none;stroke:#FF0000;stroke-width:5"></polyline><polyline points="6500,2700 6449,2698 6397,2693 6343,2686 6288,2678 6229,2670 6169,2661 6107,2652 6043,2643 5979,2634 5913,2625 5846,2617 5779,2608 5712,2600 5643,2592 5573,2584 5502,2576 5430,2568 5358,2561 5283,2553 5208,2546 5130,2538 5053,2530 4974,2523 4894,2516 4814,2509 4732,2502 4650,2496 4568,2489 4487,2483 4405,2477 4322,2472 4239,2466 4155,2461 4071,2456 3986,2452 3903,2447 3820,2443 3738,2439 3658,2434 3580,2430 3503,2426 3427,2421 3352,2417 3277,2413 3202,2410 3128,2406 3054,2403 2981,2400 2908,2397 2838,2395 2768,2392 2699,2389 2633,2386 2569,2383 2508,2378 2451,2372 2395,2366 2342,2359 2291,2351 2243,2343 2197,2335 2152,2326 2110,2317 2069,2309 2030,2299 1994,2289 1960,2279 1928,2268 1897,2258 1869,2247 1842,2235 1817,2224 1792,2214 1767,2203 1743,2193 1719,2183 1696,2173 1673,2163 1649,2154 1625,2145 1601,2136 1577,2127 1552,2119 1527,2111 1502,2103" style="fill:none;stroke:#FF0000;stroke-width:5"></polyline><polyline points="6500,2700 6449,2698 6397,2693 6343,2686 6288,2678 6229,2670 6169,2661 6107,2652 6043,2643 5979,2634 5913,2625 5846,2617 5779,2608 5712,2600 5643,2592 5573,2584 5502,2576 5430,2568 5358,2561 5283,2553 5208,2546 5130,2538 5053,2530 4974,2523 4894,2516 4814,2509 4732,2502 4650,2496 4568,2489 4487,2483 4405,2477 4322,2472 4239,2466 4155,2461 4071,2456 3986,2452 3903,2447 3820,2443 3738,2439 3658,2434 3580,2430 3503,2426 3427,2421 3352,2417 3277,2413 3202,2410 3128,2406 3054,2403 2981,2400 2908,2397 2838,2395 2768,2392 2699,2389 2633,2386 2569,2383 2508,2378 2451,2372 2395,2366 2342,2359 2291,2351 2243,2343 2197,2335 2152,2326 2110,2317 2069,2309 2030,2299 1994,2289 1960,2279 1928,2268 1897,2258 1869,2247 1842,2235 1817,2224 1792,2214 1767,2203 1743,2193 1719,2183 1696,2173 1673,2163 1649,2154 1625,2145 1601,2136 1577,2127 1552,2119 1527,2111 1502,2103" style="fill:none;stroke:#FF0000;stroke-width:5"></polyline><polyline points="6500,2700 6449,2698 6397,2693 6343,2686 6288,2678 6229,2670 6169,2661 6107,2652 6043,2643 5979,2634 5913,2625 5846,2617 5779,2608 5712,2600 5643,2592 5573,2584 5502,2576 5430,2568 5358,2561 5283,2553 5208,2546 5130,2538 5053,2530 4974,2523 4894,2516 4814,2509 4732,2502 4650,2496 4568,2489 4487,2483 4405,2477 4322,2472 4239,2466 4155,2461 4071,2456 3986,2452 3903,2447 3820,2443 3738,2439 3658,2434 3580,2430 3503,2426 3427,2421 3352,2417 3277,2413 3202,2410 3128,2406 3054,2403 2981,2400 2908,2397 2838,2395 2768,2392 2699,2389 2633,2386 2569,2383 2508,2378 2451,2372 2395,2366 2342,2359 2291,2351 2243,2343 2197,2335 2152,2326 2110,2317 2069,2309 2030,2299 1994,2289 1960,2279 1928,2268 1897,2258 1869,2247 1842,2235 1817,2224 1792,2214 1767,2203 1743,2193 1719,2183 1696,2173 1673,2163 1649,2154 1625,2145 1601,2136 1577,2127 1552,2119 1527,2111 1502,2103" style="fill:none;stroke:#FF0000;stroke-width:5"></polyline><polyline points="6500,2700 6449,2698 6397,2693 6343,2686 6288,2678 6229,2670 6169,2661 6107,2652 6043,2643 5979,2634 5913,2625 5846,2617 5779,2608 5712,2600 5643,2592 5573,2584 5502,2576 5430,2568 5358,2561 5283,2553 5208,2546 5130,2538 5053,2530 4974,2523 4894,2516 4814,2509 4732,2502 4650,2496 4568,2489 4487,2483 4405,2477 4322,2472 4239,2466 4155,2461 4071,2456 3986,2452 3903,2447 3820,2443 3738,2439 3658,2434 3580,2430 3503,2426 3427,2421 3352,2417 3277,2413 3202,2410 3128,2406 3054,2403 2981,2400 2908,2397 2838,2395 2768,2392 2699,2389 2633,2386 2569,2383 2508,2378 2451,2372 2395,2366 2342,2359 2291,2351 2243,2343 2197,2335 2152,2326 2110,2317 2069,2309 2030,2299 1994,2289 1960,2279 1928,2268 1897,2258 1869,2247 1842,2235 1817,2224 1792,2214 1767,2203 1743,2193 1719,2183 1696,2173 1673,2163 1649,2154 1625,2145 1601,2136 1577,2127 1552,2119 1527,2111 1502,2103" style="fill:none;stroke:#FF0000;stroke-width:5"></polyline><polyline points="6500,2700 6449,2698 6397,2693 6343,2686 6288,2678 6229,2670 6169,2661 6107,2652 6043,2643 5979,2634 5913,2625 5846,2617 5779,2608 5712,2600 5643,2592 5573,2584 5502,2576 5430,2568 5358,2561 5283,2553 5208,2546 5130,2538 5053,2530 4974,2523 4894,2516 4814,2509 4732,2502 4650,2496 4568,2489 4487,2483 4405,2477 4322,2472 4239,2466 4155,2461 4071,2456 3986,2452 3903,2447 3820,2443 3738,2439 3658,2434 3580,2430 3503,2426 3427,2421 3352,2417 3277,2413 3202,2410 3128,2406 3054,2403 2981,2400 2908,2397 2838,2395 2768,2392 2699,2389 2633,2386 2569,2383 2508,2378 2451,2372 2395,2366 2342,2359 2291,2351 2243,2343 2197,2335 2152,2326 2110,2317 2069,2309 2030,2299 1994,2289 1960,2279 1928,2268 1897,2258 1869,2247 1842,2235 1817,2224 1792,2214 1767,2203 1743,2193 1719,2183 1696,2173 1673,2163 1649,2154 1625,2145 1601,2136 1577,2127 1552,2119 1527,2111 1502,2103" style="fill:none;stroke:#FF0000;stroke-width:5"></polyline><polyline points="6500,2700 6449,2698 6397,2693 6343,2686 6288,2678 6229,2670 6169,2661 6107,2652 6043,2643 5979,2634 5913,2625 5846,2617 5779,2608 5712,2600 5643,2592 5573,2584 5502,2576 5430,2568 5358,2561 5283,2553 5208,2546 5130,2538 5053,2530 4974,2523 4894,2516 4814,2509 4732,2502 4650,2496 4568,2489 4487,2483 4405,2477 4322,2472 4239,2466 4155,2461 4071,2456 3986,2452 3903,2447 3820,2443 3738,2439 3658,2434 3580,2430 3503,2426 3427,2421 3352,2417 3277,2413 3202,2410 3128,2406 3054,2403 2981,2400 2908,2397 2838,2395 2768,2392 2699,2389 2633,2386 2569,2383 2508,2378 2451,2372 2395,2366 2342,2359 2291,2351 2243,2343 2197,2335 2152,2326 2110,2317 2069,2309 2030,2299 1994,2289 1960,2279 1928,2268 1897,2258 1869,2247 1842,2235 1817,2224 1792,2214 1767,2203 1743,2193 1719,2183 1696,2173 1673,2163 1649,2154 1625,2145 1601,2136 1577,2127 1552,2119 1527,2111 1502,2103" style="fill:none;stroke:#FF0000;stroke-width:5"></polyline><polyline points="6500,2700 6449,2698 6397,2693 6343,2686 6288,2678 6229,2670 6169,2661 6107,2652 6043,2643 5979,2634 5913,2625 5846,2617 5779,2608 5712,2600 5643,2592 5573,2584 5502,2576 5430,2568 5358,2561 5283,2553 5208,2546 5130,2538 5053,2530 4974,2523 4894,2516 4814,2509 4732,2502 4650,2496 4568,2489 4487,2483 4405,2477 4322,2472 4239,2466 4155,2461 4071,2456 3986,2452 3903,2447 3820,2443 3738,2439 3658,2434 3580,2430 3503,2426 3427,2421 3352,2417 3277,2413 3202,2410 3128,2406 3054,2403 2981,2400 2908,2397 2838,2395 2768,2392 2699,2389 2633,2386 2569,2383 2508,2378 2451,2372 2395,2366 2342,2359 2291,2351 2243,2343 2197,2335 2152,2326 2110,2317 2069,2309 2030,2299 1994,2289 1960,2279 1928,2268 1897,2258 1869,2247 1842,2235 1817,2224 1792,2214 1767,2203 1743,2193 1719,2183 1696,2173 1673,2163 1649,2154 1625,2145 1601,2136 1577,2127 1552,2119 1527,2111 1502,2103" style="fill:none;stroke:#FF0000;stroke-width:5"></polyline><polyline points="6500,2700 6449,2698 6397,2693 6343,2686 6288,2678 6229,2670 6169,2661 6107,2652 6043,2643 5979,2634 5913,2625 5846,2617 5779,2608 5712,2600 5643,2592 5573,2584 5502,2576 5430,2568 5358,2561 5283,2553 5208,2546 5130,2538 5053,2530 4974,2523 4894,2516 4814,2509 4732,2502 4650,2496 4568,2489 4487,2483 4405,2477 4322,2472 4239,2466 4155,2461 4071,2456 3986,2452 3903,2447 3820,2443 3738,2439 3658,2434 3580,2430 3503,2426 3427,2421 3352,2417 3277,2413 3202,2410 3128,2406 3054,2403 2981,2400 2908,2397 2838,2395 2768,2392 2699,2389 2633,2386 2569,2383 2508,2378 2451,2372 2395,2366 2342,2359 2291,2351 2243,2343 2197,2335 2152,2326 2110,2317 2069,2309 2030,2299 1994,2289 1960,2279 1928,2268 1897,2258 1869,2247 1842,2235 1817,2224 1792,2214 1767,2203 1743,2193 1719,2183 1696,2173 1673,2163 1649,2154 1625,2145 1601,2136 1577,2127 1552,2119 1527,2111 1502,2103" style="fill:none;stroke:#FF0000;stroke-width:5"></polyline><polyline points="6500,2700 6449,2698 6397,2693 6343,2686 6288,2678 6229,2670 6169,2661 6107,2652 6043,2643 5979,2634 5913,2625 5846,2617 5779,2608 5712,2600 5643,2592 5573,2584 5502,2576 5430,2568 5358,2561 5283,2553 5208,2546 5130,2538 5053,2530 4974,2523 4894,2516 4814,2509 4732,2502 4650,2496 4568,2489 4487,2483 4405,2477 4322,2472 4239,2466 4155,2461 4071,2456 3986,2452 3903,2447 3820,2443 3738,2439 3658,2434 3580,2430 3503,2426 3427,2421 3352,2417 3277,2413 3202,2410 3128,2406 3054,2403 2981,2400 2908,2397 2838,2395 2768,2392 2699,2389 2633,2386 2569,2383 2508,2378 2451,2372 2395,2366 2342,2359 2291,2351 2243,2343 2197,2335 2152,2326 2110,2317 2069,2309 2030,2299 1994,2289 1960,2279 1928,2268 1897,2258 1869,2247 1842,2235 1817,2224 1792,2214 1767,2203 1743,2193 1719,2183 1696,2173 1673,2163 1649,2154 1625,2145 1601,2136 1577,2127 1552,2119 1527,2111 1502,2103" style="fill:none;stroke:#FF0000;stroke-width:5"></polyline><polyline points="6500,2700 6449,2698 6397,2693 6343,2686 6288,2678 6229,2670 6169,2661 6107,2652 6043,2643 5979,2634 5913,2625 5846,2617 5779,2608 5712,2600 5643,2592 5573,2584 5502,2576 5430,2568 5358,2561 5283,2553 5208,2546 5130,2538 5053,2530 4974,2523 4894,2516 4814,2509 4732,2502 4650,2496 4568,2489 4487,2483 4405,2477 4322,2472 4239,2466 4155,2461 4071,2456 3986,2452 3903,2447 3820,2443 3738,2439 3658,2434 3580,2430 3503,2426 3427,2421 3352,2417 3277,2413 3202,2410 3128,2406 3054,2403 2981,2400 2908,2397 2838,2395 2768,2392 2699,2389 2633,2386 2569,2383 2508,2378 2451,2372 2395,2366 2342,2359 2291,2351 2243,2343 2197,2335 2152,2326 2110,2317 2069,2309 2030,2299 1994,2289 1960,2279 1928,2268 1897,2258 1869,2247 1842,2235 1817,2224 1792,2214 1767,2203 1743,2193 1719,2183 1696,2173 1673,2163 1649,2154 1625,2145 1601,2136 1577,2127 1552,2119 1527,2111 1502,2103" style="fill:none;stroke:#FF0000;stroke-width:5"></polyline><polyline points="6500,2700 6449,2698 6397,2693 6343,2686 6288,2678 6229,2670 6169,2661 6107,2652 6043,2643 5979,2634 5913,2625 5846,2617 5779,2608 5712,2600 5643,2592 5573,2584 5502,2576 5430,2568 5358,2561 5283,2553 5208,2546 5130,2538 5053,2530 4974,2523 4894,2516 4814,2509 4732,2502 4650,2496 4568,2489 4487,2483 4405,2477 4322,2472 4239,2466 4155,2461 4071,2456 3986,2452 3903,2447 3820,2443 3738,2439 3658,2434 3580,2430 3503,2426 3427,2421 3352,2417 3277,2413 3202,2410 3128,2406 3054,2403 2981,2400 2908,2397 2838,2395 2768,2392 2699,2389 2633,2386 2569,2383 2508,2378 2451,2372 2395,2366 2342,2359 2291,2351 2243,2343 2197,2335 2152,2326 2110,2317 2069,2309 2030,2299 1994,2289 1960,2279 1928,2268 1897,2258 1869,2247 1842,2235 1817,2224 1792,2214 1767,2203 1743,2193 1719,2183 1696,2173 1673,2163 1649,2154 1625,2145 1601,2136 1577,2127 1552,2119 1527,2111 1502,2103" style="fill:none;stroke:#FF0000;stroke-width:5"></polyline><polyline points="6500,2700 6449,2698 6397,2693 6343,2686 6288,2678 6229,2670 6169,2661 6107,2652 6043,2643 5979,2634 5913,2625 5846,2617 5779,2608 5712,2600 5643,2592 5573,2584 5502,2576 5430,2568 5358,2561 5283,2553 5208,2546 5130,2538 5053,2530 4974,2523 4894,2516 4814,2509 4732,2502 4650,2496 4568,2489 4487,2483 4405,2477 4322,2472 4239,2466 4155,2461 4071,2456 3986,2452 3903,2447 3820,2443 3738,2439 3658,2434 3580,2430 3503,2426 3427,2421 3352,2417 3277,2413 3202,2410 3128,2406 3054,2403 2981,2400 2908,2397 2838,2395 2768,2392 2699,2389 2633,2386 2569,2383 2508,2378 2451,2372 2395,2366 2342,2359 2291,2351 2243,2343 2197,2335 2152,2326 2110,2317 2069,2309 2030,2299 1994,2289 1960,2279 1928,2268 1897,2258 1869,2247 1842,2235 1817,2224 1792,2214 1767,2203 1743,2193 1719,2183 1696,2173 1673,2163 1649,2154 1625,2145 1601,2136 1577,2127 1552,2119 1527,2111 1502,2103" style="fill:none;stroke:#FF0000;stroke-width:5"></polyline><polyline points="6500,2700 6449,2698 6397,2693 6343,2686 6288,2678 6229,2670 6169,2661 6107,2652 6043,2643 5979,2634 5913,2625 5846,2617 5779,2608 5712,2600 5643,2592 5573,2584 5502,2576 5430,2568 5358,2561 5283,2553 5208,2546 5130,2538 5053,2530 4974,2523 4894,2516 4814,2509 4732,2502 4650,2496 4568,2489 4487,2483 4405,2477 4322,2472 4239,2466 4155,2461 4071,2456 3986,2452 3903,2447 3820,2443 3738,2439 3658,2434 3580,2430 3503,2426 3427,2421 3352,2417 3277,2413 3202,2410 3128,2406 3054,2403 2981,2400 2908,2397 2838,2395 2768,2392 2699,2389 2633,2386 2569,2383 2508,2378 2451,2372 2395,2366 2342,2359 2291,2351 2243,2343 2197,2335 2152,2326 2110,2317 2069,2309 2030,2299 1994,2289 1960,2279 1928,2268 1897,2258 1869,2247 1842,2235 1817,2224 1792,2214 1767,2203 1743,2193 1719,2183 1696,2173 1673,2163 1649,2154 1625,2145 1601,2136 1577,2127 1552,2119 1527,2111 1502,2103" style="fill:none;stroke:#FF0000;stroke-width:5"></polyline><polyline points="6500,2700 6449,2698 6397,2693 6343,2686 6288,2678 6229,2670 6169,2661 6107,2652 6043,2643 5979,2634 5913,2625 5846,2617 5779,2608 5712,2600 5643,2592 5573,2584 5502,2576 5430,2568 5358,2561 5283,2553 5208,2546 5130,2538 5053,2530 4974,2523 4894,2516 4814,2509 4732,2502 4650,2496 4568,2489 4487,2483 4405,2477 4322,2472 4239,2466 4155,2461 4071,2456 3986,2452 3903,2447 3820,2443 3738,2439 3658,2434 3580,2430 3503,2426 3427,2421 3352,2417 3277,2413 3202,2410 3128,2406 3054,2403 2981,2400 2908,2397 2838,2395 2768,2392 2699,2389 2633,2386 2569,2383 2508,2378 2451,2372 2395,2366 2342,2359 2291,2351 2243,2343 2197,2335 2152,2326 2110,2317 2069,2309 2030,2299 1994,2289 1960,2279 1928,2268 1897,2258 1869,2247 1842,2235 1817,2224 1792,2214 1767,2203 1743,2193 1719,2183 1696,2173 1673,2163 1649,2154 1625,2145 1601,2136 1577,2127 1552,2119 1527,2111 1502,2103" style="fill:none;stroke:#FF0000;stroke-width:5"></polyline><polyline points="6500,2700 6449,2698 6397,2693 6343,2686 6288,2678 6229,2670 6169,2661 6107,2652 6043,2643 5979,2634 5913,2625 5846,2617 5779,2608 5712,2600 5643,2592 5573,2584 5502,2576 5430,2568 5358,2561 5283,2553 5208,2546 5130,2538 5053,2530 4974,2523 4894,2516 4814,2509 4732,2502 4650,2496 4568,2489 4487,2483 4405,2477 4322,2472 4239,2466 4155,2461 4071,2456 3986,2452 3903,2447 3820,2443 3738,2439 3658,2434 3580,2430 3503,2426 3427,2421 3352,2417 3277,2413 3202,2410 3128,2406 3054,2403 2981,2400 2908,2397 2838,2395 2768,2392 2699,2389 2633,2386 2569,2383 2508,2378 2451,2372 2395,2366 2342,2359 2291,2351 2243,2343 2197,2335 2152,2326 2110,2317 2069,2309 2030,2299 1994,2289 1960,2279 1928,2268 1897,2258 1869,2247 1842,2235 1817,2224 1792,2214 1767,2203 1743,2193 1719,2183 1696,2173 1673,2163 1649,2154 1625,2145 1601,2136 1577,2127 1552,2119 1527,2111 1502,2103" style="fill:none;stroke:#FF0000;stroke-width:5"></polyline><polyline points="6500,2700 6449,2698 6397,2693 6343,2686 6288,2678 6229,2670 6169,2661 6107,2652 6043,2643 5979,2634 5913,2625 5846,2617 5779,2608 5712,2600 5643,2592 5573,2584 5502,2576 5430,2568 5358,2561 5283,2553 5208,2546 5130,2538 5053,2530 4974,2523 4894,2516 4814,2509 4732,2502 4650,2496 4568,2489 4487,2483 4405,2477 4322,2472 4239,2466 4155,2461 4071,2456 3986,2452 3903,2447 3820,2443 3738,2439 3658,2434 3580,2430 3503,2426 3427,2421 3352,2417 3277,2413 3202,2410 3128,2406 3054,2403 2981,2400 2908,2397 2838,2395 2768,2392 2699,2389 2633,2386 2569,2383 2508,2378 2451,2372 2395,2366 2342,2359 2291,2351 2243,2343 2197,2335 2152,2326 2110,2317 2069,2309 2030,2299 1994,2289 1960,2279 1928,2268 1897,2258 1869,2247 1842,2235 1817,2224 1792,2214 1767,2203 1743,2193 1719,2183 1696,2173 1673,2163 1649,2154 1625,2145 1601,2136 1577,2127 1552,2119 1527,2111 1502,2103" style="fill:none;stroke:#FF0000;stroke-width:5"></polyline><polyline points="6500,2700 6449,2698 6397,2693 6343,2686 6288,2678 6229,2670 6169,2661 6107,2652 6043,2643 5979,2634 5913,2625 5846,2617 5779,2608 5712,2600 5643,2592 5573,2584 5502,2576 5430,2568 5358,2561 5283,2553 5208,2546 5130,2538 5053,2530 4974,2523 4894,2516 4814,2509 4732,2502 4650,2496 4568,2489 4487,2483 4405,2477 4322,2472 4239,2466 4155,2461 4071,2456 3986,2452 3903,2447 3820,2443 3738,2439 3658,2434 3580,2430 3503,2426 3427,2421 3352,2417 3277,2413 3202,2410 3128,2406 3054,2403 2981,2400 2908,2397 2838,2395 2768,2392 2699,2389 2633,2386 2569,2383 2508,2378 2451,2372 2395,2366 2342,2359 2291,2351 2243,2343 2197,2335 2152,2326 2110,2317 2069,2309 2030,2299 1994,2289 1960,2279 1928,2268 1897,2258 1869,2247 1842,2235 1817,2224 1792,2214 1767,2203 1743,2193 1719,2183 1696,2173 1673,2163 1649,2154 1625,2145 1601,2136 1577,2127 1552,2119 1527,2111 1502,2103" style="fill:none;stroke:#FF0000;stroke-width:5"></polyline><polyline points="6500,2700 6449,2698 6397,2693 6343,2686 6288,2678 6229,2670 6169,2661 6107,2652 6043,2643 5979,2634 5913,2625 5846,2617 5779,2608 5712,2600 5643,2592 5573,2584 5502,2576 5430,2568 5358,2561 5283,2553 5208,2546 5130,2538 5053,2530 4974,2523 4894,2516 4814,2509 4732,2502 4650,2496 4568,2489 4487,2483 4405,2477 4322,2472 4239,2466 4155,2461 4071,2456 3986,2452 3903,2447 3820,2443 3738,2439 3658,2434 3580,2430 3503,2426 3427,2421 3352,2417 3277,2413 3202,2410 3128,2406 3054,2403 2981,2400 2908,2397 2838,2395 2768,2392 2699,2389 2633,2386 2569,2383 2508,2378 2451,2372 2395,2366 2342,2359 2291,2351 2243,2343 2197,2335 2152,2326 2110,2317 2069,2309 2030,2299 1994,2289 1960,2279 1928,2268 1897,2258 1869,2247 1842,2235 1817,2224 1792,2214 1767,2203 1743,2193 1719,2183 1696,2173 1673,2163 1649,2154 1625,2145 1601,2136 1577,2127 1552,2119 1527,2111 1502,2103" style="fill:none;stroke:#FF0000;stroke-width:5"></polyline><polyline points="6500,2700 6449,2698 6397,2693 6343,2686 6288,2678 6229,2670 6169,2661 6107,2652 6043,2643 5979,2634 5913,2625 5846,2617 5779,2608 5712,2600 5643,2592 5573,2584 5502,2576 5430,2568 5358,2561 5283,2553 5208,2546 5130,2538 5053,2530 4974,2523 4894,2516 4814,2509 4732,2502 4650,2496 4568,2489 4487,2483 4405,2477 4322,2472 4239,2466 4155,2461 4071,2456 3986,2452 3903,2447 3820,2443 3738,2439 3658,2434 3580,2430 3503,2426 3427,2421 3352,2417 3277,2413 3202,2410 3128,2406 3054,2403 2981,2400 2908,2397 2838,2395 2768,2392 2699,2389 2633,2386 2569,2383 2508,2378 2451,2372 2395,2366 2342,2359 2291,2351 2243,2343 2197,2335 2152,2326 2110,2317 2069,2309 2030,2299 1994,2289 1960,2279 1928,2268 1897,2258 1869,2247 1842,2235 1817,2224 1792,2214 1767,2203 1743,2193 1719,2183 1696,2173 1673,2163 1649,2154 1625,2145 1601,2136 1577,2127 1552,2119 1527,2111 1502,2103" style="fill:none;stroke:#FF0000;stroke-width:5"></polyline><polyline points="6500,2700 6449,2698 6397,2693 6343,2686 6288,2678 6229,2670 6169,2661 6107,2652 6043,2643 5979,2634 5913,2625 5846,2617 5779,2608 5712,2600 5643,2592 5573,2584 5502,2576 5430,2568 5358,2561 5283,2553 5208,2546 5130,2538 5053,2530 4974,2523 4894,2516 4814,2509 4732,2502 4650,2496 4568,2489 4487,2483 4405,2477 4322,2472 4239,2466 4155,2461 4071,2456 3986,2452 3903,2447 3820,2443 3738,2439 3658,2434 3580,2430 3503,2426 3427,2421 3352,2417 3277,2413 3202,2410 3128,2406 3054,2403 2981,2400 2908,2397 2838,2395 2768,2392 2699,2389 2633,2386 2569,2383 2508,2378 2451,2372 2395,2366 2342,2359 2291,2351 2243,2343 2197,2335 2152,2326 2110,2317 2069,2309 2030,2299 1994,2289 1960,2279 1928,2268 1897,2258 1869,2247 1842,2235 1817,2224 1792,2214 1767,2203 1743,2193 1719,2183 1696,2173 1673,2163 1649,2154 1625,2145 1601,2136 1577,2127 1552,2119 1527,2111 1502,2103" style="fill:none;stroke:#FF0000;stroke-width:5"></polyline><polyline points="6500,2700 6449,2698 6397,2693 6343,2686 6288,2678 6229,2670 6169,2661 6107,2652 6043,2643 5979,2634 5913,2625 5846,2617 5779,2608 5712,2600 5643,2592 5573,2584 5502,2576 5430,2568 5358,2561 5283,2553 5208,2546 5130,2538 5053,2530 4974,2523 4894,2516 4814,2509 4732,2502 4650,2496 4568,2489 4487,2483 4405,2477 4322,2472 4239,2466 4155,2461 4071,2456 3986,2452 3903,2447 3820,2443 3738,2439 3658,2434 3580,2430 3503,2426 3427,2421 3352,2417 3277,2413 3202,2410 3128,2406 3054,2403 2981,2400 2908,2397 2838,2395 2768,2392 2699,2389 2633,2386 2569,2383 2508,2378 2451,2372 2395,2366 2342,2359 2291,2351 2243,2343 2197,2335 2152,2326 2110,2317 2069,2309 2030,2299 1994,2289 1960,2279 1928,2268 1897,2258 1869,2247 1842,2235 1817,2224 1792,2214 1767,2203 1743,2193 1719,2183 1696,2173 1673,2163 1649,2154 1625,2145 1601,2136 1577,2127 1552,2119 1527,2111 1502,2103" style="fill:none;stroke:#FF0000;stroke-width:5"></polyline><polyline points="6500,2700 6449,2698 6397,2693 6343,2686 6288,2678 6229,2670 6169,2661 6107,2652 6043,2643 5979,2634 5913,2625 5846,2617 5779,2608 5712,2600 5643,2592 5573,2584 5502,2576 5430,2568 5358,2561 5283,2553 5208,2546 5130,2538 5053,2530 4974,2523 4894,2516 4814,2509 4732,2502 4650,2496 4568,2489 4487,2483 4405,2477 4322,2472 4239,2466 4155,2461 4071,2456 3986,2452 3903,2447 3820,2443 3738,2439 3658,2434 3580,2430 3503,2426 3427,2421 3352,2417 3277,2413 3202,2410 3128,2406 3054,2403 2981,2400 2908,2397 2838,2395 2768,2392 2699,2389 2633,2386 2569,2383 2508,2378 2451,2372 2395,2366 2342,2359 2291,2351 2243,2343 2197,2335 2152,2326 2110,2317 2069,2309 2030,2299 1994,2289 1960,2279 1928,2268 1897,2258 1869,2247 1842,2235 1817,2224 1792,2214 1767,2203 1743,2193 1719,2183 1696,2173 1673,2163 1649,2154 1625,2145 1601,2136 1577,2127 1552,2119 1527,2111 1502,2103" style="fill:none;stroke:#FF0000;stroke-width:5"></polyline><polyline points="6500,2700 6449,2698 6397,2693 6343,2686 6288,2678 6229,2670 6169,2661 6107,2652 6043,2643 5979,2634 5913,2625 5846,2617 5779,2608 5712,2600 5643,2592 5573,2584 5502,2576 5430,2568 5358,2561 5283,2553 5208,2546 5130,2538 5053,2530 4974,2523 4894,2516 4814,2509 4732,2502 4650,2496 4568,2489 4487,2483 4405,2477 4322,2472 4239,2466 4155,2461 4071,2456 3986,2452 3903,2447 3820,2443 3738,2439 3658,2434 3580,2430 3503,2426 3427,2421 3352,2417 3277,2413 3202,2410 3128,2406 3054,2403 2981,2400 2908,2397 2838,2395 2768,2392 2699,2389 2633,2386 2569,2383 2508,2378 2451,2372 2395,2366 2342,2359 2291,2351 2243,2343 2197,2335 2152,2326 2110,2317 2069,2309 2030,2299 1994,2289 1960,2279 1928,2268 1897,2258 1869,2247 1842,2235 1817,2224 1792,2214 1767,2203 1743,2193 1719,2183 1696,2173 1673,2163 1649,2154 1625,2145 1601,2136 1577,2127 1552,2119 1527,2111 1502,2103" style="fill:none;stroke:#FF0000;stroke-width:5"></polyline><polyline points="6500,2700 6449,2698 6397,2693 6343,2686 6288,2678 6229,2670 6169,2661 6107,2652 6043,2643 5979,2634 5913,2625 5846,2617 5779,2608 5712,2600 5643,2592 5573,2584 5502,2576 5430,2568 5358,2561 5283,2553 5208,2546 5130,2538 5053,2530 4974,2523 4894,2516 4814,2509 4732,2502 4650,2496 4568,2489 4487,2483 4405,2477 4322,2472 4239,2466 4155,2461 4071,2456 3986,2452 3903,2447 3820,2443 3738,2439 3658,2434 3580,2430 3503,2426 3427,2421 3352,2417 3277,2413 3202,2410 3128,2406 3054,2403 2981,2400 2908,2397 2838,2395 2768,2392 2699,2389 2633,2386 2569,2383 2508,2378 2451,2372 2395,2366 2342,2359 2291,2351 2243,2343 2197,2335 2152,2326 2110,2317 2069,2309 2030,2299 1994,2289 1960,2279 1928,2268 1897,2258 1869,2247 1842,2235 1817,2224 1792,2214 1767,2203 1743,2193 1719,2183 1696,2173 1673,2163 1649,2154 1625,2145 1601,2136 1577,2127 1552,2119 1527,2111 1502,2103" style="fill:none;stroke:#FF0000;stroke-width:5"></polyline><polyline points="6500,2700 6449,2698 6397,2693 6343,2686 6288,2678 6229,2670 6169,2661 6107,2652 6043,2643 5979,2634 5913,2625 5846,2617 5779,2608 5712,2600 5643,2592 5573,2584 5502,2576 5430,2568 5358,2561 5283,2553 5208,2546 5130,2538 5053,2530 4974,2523 4894,2516 4814,2509 4732,2502 4650,2496 4568,2489 4487,2483 4405,2477 4322,2472 4239,2466 4155,2461 4071,2456 3986,2452 3903,2447 3820,2443 3738,2439 3658,2434 3580,2430 3503,2426 3427,2421 3352,2417 3277,2413 3202,2410 3128,2406 3054,2403 2981,2400 2908,2397 2838,2395 2768,2392 2699,2389 2633,2386 2569,2383 2508,2378 2451,2372 2395,2366 2342,2359 2291,2351 2243,2343 2197,2335 2152,2326 2110,2317 2069,2309 2030,2299 1994,2289 1960,2279 1928,2268 1897,2258 1869,2247 1842,2235 1817,2224 1792,2214 1767,2203 1743,2193 1719,2183 1696,2173 1673,2163 1649,2154 1625,2145 1601,2136 1577,2127 1552,2119 1527,2111 1502,2103" style="fill:none;stroke:#FF0000;stroke-width:5"></polyline><polyline points="6500,2700 6449,2698 6397,2693 6343,2686 6288,2678 6229,2670 6169,2661 6107,2652 6043,2643 5979,2634 5913,2625 5846,2617 5779,2608 5712,2600 5643,2592 5573,2584 5502,2576 5430,2568 5358,2561 5283,2553 5208,2546 5130,2538 5053,2530 4974,2523 4894,2516 4814,2509 4732,2502 4650,2496 4568,2489 4487,2483 4405,2477 4322,2472 4239,2466 4155,2461 4071,2456 3986,2452 3903,2447 3820,2443 3738,2439 3658,2434 3580,2430 3503,2426 3427,2421 3352,2417 3277,2413 3202,2410 3128,2406 3054,2403 2981,2400 2908,2397 2838,2395 2768,2392 2699,2389 2633,2386 2569,2383 2508,2378 2451,2372 2395,2366 2342,2359 2291,2351 2243,2343 2197,2335 2152,2326 2110,2317 2069,2309 2030,2299 1994,2289 1960,2279 1928,2268 1897,2258 1869,2247 1842,2235 1817,2224 1792,2214 1767,2203 1743,2193 1719,2183 1696,2173 1673,2163 1649,2154 1625,2145 1601,2136 1577,2127 1552,2119 1527,2111 1502,2103" style="fill:none;stroke:#FF0000;stroke-width:5"></polyline><polyline points="6500,2700 6449,2698 6397,2693 6343,2686 6288,2678 6229,2670 6169,2661 6107,2652 6043,2643 5979,2634 5913,2625 5846,2617 5779,2608 5712,2600 5643,2592 5573,2584 5502,2576 5430,2568 5358,2561 5283,2553 5208,2546 5130,2538 5053,2530 4974,2523 4894,2516 4814,2509 4732,2502 4650,2496 4568,2489 4487,2483 4405,2477 4322,2472 4239,2466 4155,2461 4071,2456 3986,2452 3903,2447 3820,2443 3738,2439 3658,2434 3580,2430 3503,2426 3427,2421 3352,2417 3277,2413 3202,2410 3128,2406 3054,2403 2981,2400 2908,2397 2838,2395 2768,2392 2699,2389 2633,2386 2569,2383 2508,2378 2451,2372 2395,2366 2342,2359 2291,2351 2243,2343 2197,2335 2152,2326 2110,2317 2069,2309 2030,2299 1994,2289 1960,2279 1928,2268 1897,2258 1869,2247 1842,2235 1817,2224 1792,2214 1767,2203 1743,2193 1719,2183 1696,2173 1673,2163 1649,2154 1625,2145 1601,2136 1577,2127 1552,2119 1527,2111 1502,2103" style="fill:none;stroke:#FF0000;stroke-width:5"></polyline><polyline points="6500,2700 6449,2698 6397,2693 6343,2686 6288,2678 6229,2670 6169,2661 6107,2652 6043,2643 5979,2634 5913,2625 5846,2617 5779,2608 5712,2600 5643,2592 5573,2584 5502,2576 5430,2568 5358,2561 5283,2553 5208,2546 5130,2538 5053,2530 4974,2523 4894,2516 4814,2509 4732,2502 4650,2496 4568,2489 4487,2483 4405,2477 4322,2472 4239,2466 4155,2461 4071,2456 3986,2452 3903,2447 3820,2443 3738,2439 3658,2434 3580,2430 3503,2426 3427,2421 3352,2417 3277,2413 3202,2410 3128,2406 3054,2403 2981,2400 2908,2397 2838,2395 2768,2392 2699,2389 2633,2386 2569,2383 2508,2378 2451,2372 2395,2366 2342,2359 2291,2351 2243,2343 2197,2335 2152,2326 2110,2317 2069,2309 2030,2299 1994,2289 1960,2279 1928,2268 1897,2258 1869,2247 1842,2235 1817,2224 1792,2214 1767,2203 1743,2193 1719,2183 1696,2173 1673,2163 1649,2154 1625,2145 1601,2136 1577,2127 1552,2119 1527,2111 1502,2103" style="fill:none;stroke:#FF0000;stroke-width:5"></polyline><polyline points="6500,2700 6449,2698 6397,2693 6343,2686 6288,2678 6229,2670 6169,2661 6107,2652 6043,2643 5979,2634 5913,2625 5846,2617 5779,2608 5712,2600 5643,2592 5573,2584 5502,2576 5430,2568 5358,2561 5283,2553 5208,2546 5130,2538 5053,2530 4974,2523 4894,2516 4814,2509 4732,2502 4650,2496 4568,2489 4487,2483 4405,2477 4322,2472 4239,2466 4155,2461 4071,2456 3986,2452 3903,2447 3820,2443 3738,2439 3658,2434 3580,2430 3503,2426 3427,2421 3352,2417 3277,2413 3202,2410 3128,2406 3054,2403 2981,2400 2908,2397 2838,2395 2768,2392 2699,2389 2633,2386 2569,2383 2508,2378 2451,2372 2395,2366 2342,2359 2291,2351 2243,2343 2197,2335 2152,2326 2110,2317 2069,2309 2030,2299 1994,2289 1960,2279 1928,2268 1897,2258 1869,2247 1842,2235 1817,2224 1792,2214 1767,2203 1743,2193 1719,2183 1696,2173 1673,2163 1649,2154 1625,2145 1601,2136 1577,2127 1552,2119 1527,2111 1502,2103" style="fill:none;stroke:#FF0000;stroke-width:5"></polyline><polyline points="6500,2700 6449,2698 6397,2693 6343,2686 6288,2678 6229,2670 6169,2661 6107,2652 6043,2643 5979,2634 5913,2625 5846,2617 5779,2608 5712,2600 5643,2592 5573,2584 5502,2576 5430,2568 5358,2561 5283,2553 5208,2546 5130,2538 5053,2530 4974,2523 4894,2516 4814,2509 4732,2502 4650,2496 4568,2489 4487,2483 4405,2477 4322,2472 4239,2466 4155,2461 4071,2456 3986,2452 3903,2447 3820,2443 3738,2439 3658,2434 3580,2430 3503,2426 3427,2421 3352,2417 3277,2413 3202,2410 3128,2406 3054,2403 2981,2400 2908,2397 2838,2395 2768,2392 2699,2389 2633,2386 2569,2383 2508,2378 2451,2372 2395,2366 2342,2359 2291,2351 2243,2343 2197,2335 2152,2326 2110,2317 2069,2309 2030,2299 1994,2289 1960,2279 1928,2268 1897,2258 1869,2247 1842,2235 1817,2224 1792,2214 1767,2203 1743,2193 1719,2183 1696,2173 1673,2163 1649,2154 1625,2145 1601,2136 1577,2127 1552,2119 1527,2111 1502,2103" style="fill:none;stroke:#FF0000;stroke-width:5"></polyline><polyline points="6500,2700 6449,2698 6397,2693 6343,2686 6288,2678 6229,2670 6169,2661 6107,2652 6043,2643 5979,2634 5913,2625 5846,2617 5779,2608 5712,2600 5643,2592 5573,2584 5502,2576 5430,2568 5358,2561 5283,2553 5208,2546 5130,2538 5053,2530 4974,2523 4894,2516 4814,2509 4732,2502 4650,2496 4568,2489 4487,2483 4405,2477 4322,2472 4239,2466 4155,2461 4071,2456 3986,2452 3903,2447 3820,2443 3738,2439 3658,2434 3580,2430 3503,2426 3427,2421 3352,2417 3277,2413 3202,2410 3128,2406 3054,2403 2981,2400 2908,2397 2838,2395 2768,2392 2699,2389 2633,2386 2569,2383 2508,2378 2451,2372 2395,2366 2342,2359 2291,2351 2243,2343 2197,2335 2152,2326 2110,2317 2069,2309 2030,2299 1994,2289 1960,2279 1928,2268 1897,2258 1869,2247 1842,2235 1817,2224 1792,2214 1767,2203 1743,2193 1719,2183 1696,2173 1673,2163 1649,2154 1625,2145 1601,2136 1577,2127 1552,2119 1527,2111 1502,2103" style="fill:none;stroke:#FF0000;stroke-width:5"></polyline><polyline points="6500,2700 6449,2698 6397,2693 6343,2686 6288,2678 6229,2670 6169,2661 6107,2652 6043,2643 5979,2634 5913,2625 5846,2617 5779,2608 5712,2600 5643,2592 5573,2584 5502,2576 5430,2568 5358,2561 5283,2553 5208,2546 5130,2538 5053,2530 4974,2523 4894,2516 4814,2509 4732,2502 4650,2496 4568,2489 4487,2483 4405,2477 4322,2472 4239,2466 4155,2461 4071,2456 3986,2452 3903,2447 3820,2443 3738,2439 3658,2434 3580,2430 3503,2426 3427,2421 3352,2417 3277,2413 3202,2410 3128,2406 3054,2403 2981,2400 2908,2397 2838,2395 2768,2392 2699,2389 2633,2386 2569,2383 2508,2378 2451,2372 2395,2366 2342,2359 2291,2351 2243,2343 2197,2335 2152,2326 2110,2317 2069,2309 2030,2299 1994,2289 1960,2279 1928,2268 1897,2258 1869,2247 1842,2235 1817,2224 1792,2214 1767,2203 1743,2193 1719,2183 1696,2173 1673,2163 1649,2154 1625,2145 1601,2136 1577,2127 1552,2119 1527,2111 1502,2103" style="fill:none;stroke:#FF0000;stroke-width:5"></polyline><polyline points="6500,2700 6449,2698 6397,2693 6343,2686 6288,2678 6229,2670 6169,2661 6107,2652 6043,2643 5979,2634 5913,2625 5846,2617 5779,2608 5712,2600 5643,2592 5573,2584 5502,2576 5430,2568 5358,2561 5283,2553 5208,2546 5130,2538 5053,2530 4974,2523 4894,2516 4814,2509 4732,2502 4650,2496 4568,2489 4487,2483 4405,2477 4322,2472 4239,2466 4155,2461 4071,2456 3986,2452 3903,2447 3820,2443 3738,2439 3658,2434 3580,2430 3503,2426 3427,2421 3352,2417 3277,2413 3202,2410 3128,2406 3054,2403 2981,2400 2908,2397 2838,2395 2768,2392 2699,2389 2633,2386 2569,2383 2508,2378 2451,2372 2395,2366 2342,2359 2291,2351 2243,2343 2197,2335 2152,2326 2110,2317 2069,2309 2030,2299 1994,2289 1960,2279 1928,2268 1897,2258 1869,2247 1842,2235 1817,2224 1792,2214 1767,2203 1743,2193 1719,2183 1696,2173 1673,2163 1649,2154 1625,2145 1601,2136 1577,2127 1552,2119 1527,2111 1502,2103" style="fill:none;stroke:#FF0000;stroke-width:5"></polyline><polyline points="6500,2700 6449,2698 6397,2693 6343,2686 6288,2678 6229,2670 6169,2661 6107,2652 6043,2643 5979,2634 5913,2625 5846,2617 5779,2608 5712,2600 5643,2592 5573,2584 5502,2576 5430,2568 5358,2561 5283,2553 5208,2546 5130,2538 5053,2530 4974,2523 4894,2516 4814,2509 4732,2502 4650,2496 4568,2489 4487,2483 4405,2477 4322,2472 4239,2466 4155,2461 4071,2456 3986,2452 3903,2447 3820,2443 3738,2439 3658,2434 3580,2430 3503,2426 3427,2421 3352,2417 3277,2413 3202,2410 3128,2406 3054,2403 2981,2400 2908,2397 2838,2395 2768,2392 2699,2389 2633,2386 2569,2383 2508,2378 2451,2372 2395,2366 2342,2359 2291,2351 2243,2343 2197,2335 2152,2326 2110,2317 2069,2309 2030,2299 1994,2289 1960,2279 1928,2268 1897,2258 1869,2247 1842,2235 1817,2224 1792,2214 1767,2203 1743,2193 1719,2183 1696,2173 1673,2163 1649,2154 1625,2145 1601,2136 1577,2127 1552,2119 1527,2111 1502,2103" style="fill:none;stroke:#FF0000;stroke-width:5"></polyline><polyline points="6500,2700 6449,2698 6397,2693 6343,2686 6288,2678 6229,2670 6169,2661 6107,2652 6043,2643 5979,2634 5913,2625 5846,2617 5779,2608 5712,2600 5643,2592 5573,2584 5502,2576 5430,2568 5358,2561 5283,2553 5208,2546 5130,2538 5053,2530 4974,2523 4894,2516 4814,2509 4732,2502 4650,2496 4568,2489 4487,2483 4405,2477 4322,2472 4239,2466 4155,2461 4071,2456 3986,2452 3903,2447 3820,2443 3738,2439 3658,2434 3580,2430 3503,2426 3427,2421 3352,2417 3277,2413 3202,2410 3128,2406 3054,2403 2981,2400 2908,2397 2838,2395 2768,2392 2699,2389 2633,2386 2569,2383 2508,2378 2451,2372 2395,2366 2342,2359 2291,2351 2243,2343 2197,2335 2152,2326 2110,2317 2069,2309 2030,2299 1994,2289 1960,2279 1928,2268 1897,2258 1869,2247 1842,2235 1817,2224 1792,2214 1767,2203 1743,2193 1719,2183 1696,2173 1673,2163 1649,2154 1625,2145 1601,2136 1577,2127 1552,2119 1527,2111 1502,2103" style="fill:none;stroke:#FF0000;stroke-width:5"></polyline><polyline points="6500,2700 6449,2698 6397,2693 6343,2686 6288,2678 6229,2670 6169,2661 6107,2652 6043,2643 5979,2634 5913,2625 5846,2617 5779,2608 5712,2600 5643,2592 5573,2584 5502,2576 5430,2568 5358,2561 5283,2553 5208,2546 5130,2538 5053,2530 4974,2523 4894,2516 4814,2509 4732,2502 4650,2496 4568,2489 4487,2483 4405,2477 4322,2472 4239,2466 4155,2461 4071,2456 3986,2452 3903,2447 3820,2443 3738,2439 3658,2434 3580,2430 3503,2426 3427,2421 3352,2417 3277,2413 3202,2410 3128,2406 3054,2403 2981,2400 2908,2397 2838,2395 2768,2392 2699,2389 2633,2386 2569,2383 2508,2378 2451,2372 2395,2366 2342,2359 2291,2351 2243,2343 2197,2335 2152,2326 2110,2317 2069,2309 2030,2299 1994,2289 1960,2279 1928,2268 1897,2258 1869,2247 1842,2235 1817,2224 1792,2214 1767,2203 1743,2193 1719,2183 1696,2173 1673,2163 1649,2154 1625,2145 1601,2136 1577,2127 1552,2119 1527,2111 1502,2103" style="fill:none;stroke:#FF0000;stroke-width:5"></polyline><polyline points="6500,2700 6449,2698 6397,2693 6343,2686 6288,2678 6229,2670 6169,2661 6107,2652 6043,2643 5979,2634 5913,2625 5846,2617 5779,2608 5712,2600 5643,2592 5573,2584 5502,2576 5430,2568 5358,2561 5283,2553 5208,2546 5130,2538 5053,2530 4974,2523 4894,2516 4814,2509 4732,2502 4650,2496 4568,2489 4487,2483 4405,2477 4322,2472 4239,2466 4155,2461 4071,2456 3986,2452 3903,2447 3820,2443 3738,2439 3658,2434 3580,2430 3503,2426 3427,2421 3352,2417 3277,2413 3202,2410 3128,2406 3054,2403 2981,2400 2908,2397 2838,2395 2768,2392 2699,2389 2633,2386 2569,2383 2508,2378 2451,2372 2395,2366 2342,2359 2291,2351 2243,2343 2197,2335 2152,2326 2110,2317 2069,2309 2030,2299 1994,2289 1960,2279 1928,2268 1897,2258 1869,2247 1842,2235 1817,2224 1792,2214 1767,2203 1743,2193 1719,2183 1696,2173 1673,2163 1649,2154 1625,2145 1601,2136 1577,2127 1552,2119 1527,2111 1502,2103" style="fill:none;stroke:#FF0000;stroke-width:5"></polyline><polyline points="6500,2700 6449,2698 6397,2693 6343,2686 6288,2678 6229,2670 6169,2661 6107,2652 6043,2643 5979,2634 5913,2625 5846,2617 5779,2608 5712,2600 5643,2592 5573,2584 5502,2576 5430,2568 5358,2561 5283,2553 5208,2546 5130,2538 5053,2530 4974,2523 4894,2516 4814,2509 4732,2502 4650,2496 4568,2489 4487,2483 4405,2477 4322,2472 4239,2466 4155,2461 4071,2456 3986,2452 3903,2447 3820,2443 3738,2439 3658,2434 3580,2430 3503,2426 3427,2421 3352,2417 3277,2413 3202,2410 3128,2406 3054,2403 2981,2400 2908,2397 2838,2395 2768,2392 2699,2389 2633,2386 2569,2383 2508,2378 2451,2372 2395,2366 2342,2359 2291,2351 2243,2343 2197,2335 2152,2326 2110,2317 2069,2309 2030,2299 1994,2289 1960,2279 1928,2268 1897,2258 1869,2247 1842,2235 1817,2224 1792,2214 1767,2203 1743,2193 1719,2183 1696,2173 1673,2163 1649,2154 1625,2145 1601,2136 1577,2127 1552,2119 1527,2111 1502,2103" style="fill:none;stroke:#FF0000;stroke-width:5"></polyline><polyline points="6500,2700 6449,2698 6397,2693 6343,2686 6288,2678 6229,2670 6169,2661 6107,2652 6043,2643 5979,2634 5913,2625 5846,2617 5779,2608 5712,2600 5643,2592 5573,2584 5502,2576 5430,2568 5358,2561 5283,2553 5208,2546 5130,2538 5053,2530 4974,2523 4894,2516 4814,2509 4732,2502 4650,2496 4568,2489 4487,2483 4405,2477 4322,2472 4239,2466 4155,2461 4071,2456 3986,2452 3903,2447 3820,2443 3738,2439 3658,2434 3580,2430 3503,2426 3427,2421 3352,2417 3277,2413 3202,2410 3128,2406 3054,2403 2981,2400 2908,2397 2838,2395 2768,2392 2699,2389 2633,2386 2569,2383 2508,2378 2451,2372 2395,2366 2342,2359 2291,2351 2243,2343 2197,2335 2152,2326 2110,2317 2069,2309 2030,2299 1994,2289 1960,2279 1928,2268 1897,2258 1869,2247 1842,2235 1817,2224 1792,2214 1767,2203 1743,2193 1719,2183 1696,2173 1673,2163 1649,2154 1625,2145 1601,2136 1577,2127 1552,2119 1527,2111 1502,2103" style="fill:none;stroke:#FF0000;stroke-width:5"></polyline><polyline points="6500,2700 6449,2698 6397,2693 6343,2686 6288,2678 6229,2670 6169,2661 6107,2652 6043,2643 5979,2634 5913,2625 5846,2617 5779,2608 5712,2600 5643,2592 5573,2584 5502,2576 5430,2568 5358,2561 5283,2553 5208,2546 5130,2538 5053,2530 4974,2523 4894,2516 4814,2509 4732,2502 4650,2496 4568,2489 4487,2483 4405,2477 4322,2472 4239,2466 4155,2461 4071,2456 3986,2452 3903,2447 3820,2443 3738,2439 3658,2434 3580,2430 3503,2426 3427,2421 3352,2417 3277,2413 3202,2410 3128,2406 3054,2403 2981,2400 2908,2397 2838,2395 2768,2392 2699,2389 2633,2386 2569,2383 2508,2378 2451,2372 2395,2366 2342,2359 2291,2351 2243,2343 2197,2335 2152,2326 2110,2317 2069,2309 2030,2299 1994,2289 1960,2279 1928,2268 1897,2258 1869,2247 1842,2235 1817,2224 1792,2214 1767,2203 1743,2193 1719,2183 1696,2173 1673,2163 1649,2154 1625,2145 1601,2136 1577,2127 1552,2119 1527,2111 1502,2103" style="fill:none;stroke:#FF0000;stroke-width:5"></polyline><polyline points="6500,2700 6449,2698 6397,2693 6343,2686 6288,2678 6229,2670 6169,2661 6107,2652 6043,2643 5979,2634 5913,2625 5846,2617 5779,2608 5712,2600 5643,2592 5573,2584 5502,2576 5430,2568 5358,2561 5283,2553 5208,2546 5130,2538 5053,2530 4974,2523 4894,2516 4814,2509 4732,2502 4650,2496 4568,2489 4487,2483 4405,2477 4322,2472 4239,2466 4155,2461 4071,2456 3986,2452 3903,2447 3820,2443 3738,2439 3658,2434 3580,2430 3503,2426 3427,2421 3352,2417 3277,2413 3202,2410 3128,2406 3054,2403 2981,2400 2908,2397 2838,2395 2768,2392 2699,2389 2633,2386 2569,2383 2508,2378 2451,2372 2395,2366 2342,2359 2291,2351 2243,2343 2197,2335 2152,2326 2110,2317 2069,2309 2030,2299 1994,2289 1960,2279 1928,2268 1897,2258 1869,2247 1842,2235 1817,2224 1792,2214 1767,2203 1743,2193 1719,2183 1696,2173 1673,2163 1649,2154 1625,2145 1601,2136 1577,2127 1552,2119 1527,2111 1502,2103" style="fill:none;stroke:#FF0000;stroke-width:5"></polyline><circle cx="6500" cy="2700" r="20" style="fill:blue"></circle><text x="0" y="0" font-size="16em" transform="scale(1,-1)">G154 C100 200</text></svg>
