<svg xmlns="http://www.w3.org/2000/svg" style="display: block; transform: scale(1,-1); background: white;" viewBox="0 0 7000 3000"><polyline points="0,1000 300,1500" style="fill:none;stroke:#000000;stroke-width:5"></polyline><polyline points="300,1500 350,1400" style="fill:none;stroke:#000000;stroke-width:5"></polyline><polyline points="350,1400 500,2100" style="fill:none;stroke:#000000;stroke-width:5"></polyline><polyline points="500,2100 1500,2100" style="fill:none;stroke:#000000;stroke-width:5"></polyline><polyline points="1500,2100 2000,200" style="fill:none;stroke:#000000;stroke-width:5"></polyline><polyline points="2000,200 2500,500" style="fill:none;stroke:#000000;stroke-width:5"></polyline><polyline points="2500,500 2900,300" style="fill:none;stroke:#000000;stroke-width:5"></polyline><polyline points="2900,300 3000,200" style="fill:none;stroke:#000000;stroke-width:5"></polyline><polyline points="3000,200 3200,1000" style="fill:none;stroke:#000000;stroke-width:5"></polyline><polyline points="3200,1000 3500,500" style="fill:none;stroke:#000000;stroke-width:5"></polyline><polyline points="3500,500 3800,800" style="fill:none;stroke:#000000;stroke-width:5"></polyline><polyline points="3800,800 4000,200" style="fill:none;stroke:#000000;stroke-width:5"></polyline><polyline points="4000,200 4200,800" style="fill:none;stroke:#000000;stroke-width:5"></polyline><polyline points="4200,800 4800,600" style="fill:none;stroke:#000000;stroke-width:5"></polyline><polyline points="4800,600 5000,1200" style="fill:none;stroke:#000000;stroke-width:5"></polyline><polyline points="5000,1200 5500,900" style="fill:none;stroke:#000000;stroke-width:5"></polyline><polyline points="5500,900 6000,500" style="fill:none;stroke:#000000;stroke-width:5"></polyline><polyline points="6000,500 6500,300" style="fill:none;stroke:#000000;stroke-width:5"></polyline><polyline points="6500,300 6999,500" style="fill:none;stroke:#000000;stroke-width:5"></polyline><polyline points="6500,2700 6450,2698 6400,2692 6350,2683 6300,2670 6250,2653 6200,2633 6150,2609 6100,2581 6050,2549 6000,2514 5950,2475 5900,2432 5850,2386 5800,2336 5750,2282 5700,2224 5650,2163 5600,2098 5550,2030 5500,1957 5450,1881 5400,1801 5350,1718 5300,1631 5250,1540 5200,1445 5150,1347 5100,1245" style="fill:none;stroke:#FF0000;stroke-width:5"></polyline><polyline points="6500,2700 6449,2698 6398,2692 6345,2683 6292,2670 6237,2653 6182,2633 6125,2609 6068,2582 6009,2551 5950,2516 5889,2478 5828,2437 5765,2392 5702,2343 5638,2291 5572,2235 5506,2176 5439,2114 5370,2048 5301,1979 5231,1906 5160,1830 5088,1751 5015,1668 4942,1582 4867,1493 4791,1400 4715,1305 4637,1206 4559,1103 4480,998 4400,889 4319,777" style="fill:none;stroke:#FF0000;stroke-width:5"></polyline><polyline points="6500,2700 6449,2698 6397,2692 6343,2683 6287,2670 6229,2654 6169,2634 6107,2610 6043,2583 5977,2553 5909,2519 5839,2482 5767,2441 5694,2397 5618,2350 5540,2300 5460,2246 5379,2189 5295,2129 5210,2066 5123,2000 5033,1931 4942,1859 4849,1784 4755,1706 4658,1625 4560,1541 4459,1454 4357,1364 4254,1272 4148,1177 4041,1079 3932,979 3821,875 3709,770 3595,661 3479,550" style="fill:none;stroke:#FF0000;stroke-width:5"></polyline><polyline points="6500,2700 6449,2698 6397,2692 6343,2683 6285,2670 6225,2654 6161,2634 6095,2611 6025,2584 5953,2554 5877,2521 5799,2485 5718,2445 5633,2403 5546,2357 5456,2308 5363,2257 5267,2202 5169,2145 5067,2084 4962,2021 4855,1956 4745,1887 4632,1816 4517,1743 4398,1667 4277,1588 4153,1507 4027,1424 3897,1338 3766,1250 3631,1160 3494,1068 3355,973" style="fill:none;stroke:#FF0000;stroke-width:5"></polyline><polyline points="6500,2700 6449,2698 6397,2692 6343,2683 6285,2670 6223,2654 6157,2634 6087,2611 6013,2585 5935,2556 5853,2523 5767,2488 5677,2449 5584,2408 5486,2363 5385,2316 5279,2267 5170,2214 5057,2159 4940,2102 4820,2042 4695,1979 4567,1915 4435,1848 4300,1779 4161,1708 4018,1634 3871,1559 3721,1482 3568,1403 3411,1322 3250,1240 3086,1155 2919,1070 2748,982 2574,893 2396,803 2215,711 2031,618" style="fill:none;stroke:#FF0000;stroke-width:5"></polyline><polyline points="6500,2700 6450,2698 6400,2692 6350,2683 6300,2670 6250,2653 6200,2633 6150,2609 6100,2581 6050,2549 6000,2514 5950,2475 5900,2432 5850,2386 5800,2336 5750,2282 5700,2224 5650,2163 5600,2098 5550,2030 5500,1957 5450,1881 5400,1801 5350,1718 5300,1631 5250,1540 5200,1445 5150,1347 5100,1245" style="fill:none;stroke:#FF0000;stroke-width:5"></polyline><polyline points="6500,2700 6449,2698 6398,2693 6345,2685 6293,2673 6239,2660 6186,2643 6133,2624 6080,2601 6028,2576 5977,2548 5926,2517 5877,2482 5828,2443 5781,2400 5734,2354 5689,2304 5644,2251 5601,2193 5558,2132 5517,2067 5476,1999 5437,1927 5398,1851 5361,1771 5324,1688 5289,1601 5254,1510 5221,1416 5188,1318 5157,1216" style="fill:none;stroke:#FF0000;stroke-width:5"></polyline><polyline points="6500,2700 6449,2698 6397,2693 6344,2686 6289,2676 6234,2665 6178,2652 6123,2637 6068,2620 6015,2601 5963,2580 5913,2556 5865,2528 5819,2497 5775,2461 5733,2423 5693,2380 5655,2334 5619,2284 5585,2230 5553,2173 5523,2111 5495,2047 5469,1978 5445,1906 5422,1830 5402,1750 5384,1667 5368,1579 5354,1489 5342,1394 5332,1296 5324,1194 5318,1088" style="fill:none;stroke:#FF0000;stroke-width:5"></polyline><polyline points="6500,2700 6449,2698 6397,2693 6343,2686 6288,2678 6231,2668 6174,2658 6117,2648 6062,2636 6008,2623 5957,2608 5908,2590 5862,2569 5820,2545 5780,2516 5743,2484 5709,2448 5679,2409 5651,2366 5626,2319 5605,2268 5586,2214 5570,2156 5558,2094 5548,2029 5541,1960 5537,1887 5537,1810 5539,1730 5544,1646 5553,1558 5564,1467 5578,1372 5596,1273 5616,1170 5639,1064 5665,954 5695,840 5727,723" style="fill:none;stroke:#FF0000;stroke-width:5"></polyline><polyline points="6500,2700 6449,2698 6397,2693 6343,2686 6288,2678 6230,2670 6172,2663 6115,2655 6059,2647 6006,2639 5956,2630 5909,2618 5866,2604 5828,2585 5793,2563 5762,2537 5736,2507 5713,2474 5694,2437 5680,2396 5669,2352 5662,2304 5660,2252 5661,2196 5666,2137 5676,2074 5689,2007 5706,1937 5728,1863 5753,1785 5782,1703 5816,1618 5853,1529 5894,1436 5940,1340 5989,1240 6042,1136 6100,1028 6161,917 6226,802 6296,683 6369,561 6446,435" style="fill:none;stroke:#FF0000;stroke-width:5"></polyline><polyline points="6500,2700 6450,2698 6400,2692 6350,2683 6300,2670 6250,2653 6200,2633 6150,2609 6100,2581 6050,2549 6000,2514 5950,2475 5900,2432 5850,2386 5800,2336 5750,2282 5700,2224 5650,2163 5600,2098 5550,2030 5500,1957 5450,1881 5400,1801 5350,1718 5300,1631 5250,1540 5200,1445 5150,1347 5100,1245" style="fill:none;stroke:#FF0000;stroke-width:5"></polyline><polyline points="6500,2700 6449,2698 6398,2693 6345,2685 6293,2673 6239,2660 6186,2643 6133,2624 6080,2601 6028,2576 5977,2548 5926,2517 5876,2483 5826,2446 5778,2406 5730,2363 5683,2317 5636,2268 5590,2216 5545,2161 5501,2103 5457,2041 5414,1977 5372,1910 5330,1840 5289,1767 5249,1691 5210,1612 5171,1530 5133,1444 5095,1356 5059,1265" style="fill:none;stroke:#FF0000;stroke-width:5"></polyline><polyline points="6500,2700 6449,2698 6397,2693 6344,2686 6289,2676 6234,2665 6178,2652 6123,2637 6068,2620 6015,2601 5963,2580 5912,2557 5863,2531 5815,2503 5769,2473 5724,2440 5681,2405 5638,2368 5598,2329 5559,2287 5521,2243 5484,2196 5449,2148 5416,2097 5383,2043 5353,1988 5323,1930 5295,1870 5269,1807 5244,1742 5220,1675 5198,1606 5177,1534 5157,1460 5139,1384 5123,1306 5107,1225" style="fill:none;stroke:#FF0000;stroke-width:5"></polyline><polyline points="6500,2700 6449,2698 6397,2693 6343,2686 6288,2678 6231,2668 6174,2658 6117,2648 6062,2636 6008,2623 5956,2608 5907,2592 5859,2574 5814,2554 5771,2533 5730,2511 5691,2486 5654,2461 5620,2433 5587,2404 5557,2374 5528,2341 5502,2308 5478,2272 5456,2235 5436,2197 5419,2157 5403,2115 5390,2072 5378,2027 5369,1980 5362,1932 5357,1882 5354,1831 5353,1778 5355,1724 5358,1668 5364,1610 5372,1551 5382,1490 5394,1428 5408,1364 5424,1298 5442,1231 5463,1162 5486,1092 5510,1020 5537,947 5566,871" style="fill:none;stroke:#FF0000;stroke-width:5"></polyline><polyline points="6500,2700 6449,2698 6397,2693 6343,2686 6288,2678 6230,2670 6172,2663 6115,2655 6059,2647 6006,2639 5955,2630 5908,2621 5863,2610 5821,2598 5781,2586 5745,2572 5711,2558 5680,2543 5652,2527 5627,2510 5605,2492 5586,2473 5569,2454 5555,2433 5544,2412 5536,2390 5531,2367 5528,2343 5529,2318 5532,2292 5538,2266 5547,2238 5558,2210 5573,2180 5590,2150 5610,2119 5633,2087 5659,2054 5687,2021 5719,1986 5753,1951 5790,1914 5830,1877 5873,1839 5919,1800 5967,1760 6018,1719 6072,1678 6129,1635 6189,1592 6252,1548 6317,1503 6385,1456 6456,1410 6530,1362 6607,1313 6686,1263 6769,1213 6854,1162 6942,1109" style="fill:none;stroke:#FF0000;stroke-width:5"></polyline><polyline points="6500,2700 6450,2698 6400,2692 6350,2683 6300,2670 6250,2653 6200,2633 6150,2609 6100,2581 6050,2549 6000,2514 5950,2475 5900,2432 5850,2386 5800,2336 5750,2282 5700,2224 5650,2163 5600,2098 5550,2030 5500,1957 5450,1881 5400,1801 5350,1718 5300,1631 5250,1540 5200,1445 5150,1347 5100,1245" style="fill:none;stroke:#FF0000;stroke-width:5"></polyline><polyline points="6500,2700 6449,2698 6398,2693 6345,2685 6293,2673 6239,2660 6186,2643 6133,2624 6080,2602 6027,2577 5975,2549 5922,2519 5870,2486 5818,2450 5766,2412 5715,2371 5664,2327 5612,2280 5562,2231 5511,2178 5460,2124 5410,2066 5360,2006 5310,1943 5260,1877 5211,1808 5162,1737 5113,1663 5064,1586 5015,1507 4967,1425 4919,1340 4871,1252 4823,1162 4775,1069 4728,973 4681,874 4634,773" style="fill:none;stroke:#FF0000;stroke-width:5"></polyline><polyline points="6500,2700 6449,2698 6397,2693 6344,2686 6289,2676 6234,2665 6178,2652 6123,2637 6068,2620 6013,2602 5959,2582 5905,2560 5852,2537 5799,2511 5746,2484 5694,2455 5643,2425 5591,2392 5541,2358 5490,2322 5440,2285 5390,2245 5341,2204 5293,2161 5244,2117 5196,2070 5149,2022 5102,1972 5055,1921 5009,1867 4963,1812 4917,1755 4872,1697 4828,1636 4784,1574 4740,1510 4696,1444 4653,1377 4611,1308 4569,1237 4527,1164 4486,1090 4445,1013 4404,935 4364,856 4325,774" style="fill:none;stroke:#FF0000;stroke-width:5"></polyline><polyline points="6500,2700 6449,2698 6397,2693 6343,2686 6288,2678 6231,2668 6174,2658 6117,2648 6061,2636 6006,2624 5951,2611 5896,2597 5843,2582 5790,2567 5737,2550 5685,2533 5634,2516 5584,2497 5534,2478 5485,2458 5436,2437 5388,2415 5340,2393 5294,2370 5247,2346 5202,2321 5157,2295 5113,2269 5069,2242 5026,2214 4983,2185 4942,2156 4900,2126 4860,2095 4820,2063 4781,2031 4742,1997 4704,1963 4666,1928 4630,1893 4593,1856 4558,1819 4523,1781 4488,1742 4455,1703 4422,1663 4389,1622 4357,1580 4326,1537 4296,1494 4266,1450 4236,1405 4208,1359 4179,1312 4152,1265 4125,1217 4099,1168 4073,1119 4048,1068 4024,1017 4000,965 3977,912 3955,859 3933,805 3912,750 3891,694 3871,637" style="fill:none;stroke:#FF0000;stroke-width:5"></polyline><polyline points="6500,2700 6449,2698 6397,2693 6343,2686 6288,2678 6230,2670 6172,2663 6115,2655 6058,2648 6003,2641 5948,2634 5894,2627 5840,2621 5788,2615 5736,2608 5685,2603 5635,2597 5586,2592 5538,2586 5491,2581 5444,2576 5398,2572 5353,2567 5309,2563 5266,2559 5223,2555 5182,2552 5141,2548 5101,2545 5062,2542 5023,2539 4986,2537 4949,2534 4913,2532 4878,2530 4844,2528 4811,2526 4779,2525 4747,2524 4716,2523 4686,2522 4657,2521 4629,2521 4601,2521 4574,2521 4549,2521 4524,2521 4499,2522 4476,2523 4454,2524 4432,2525 4411,2527 4391,2528 4372,2530 4353,2532 4336,2534 4319,2537 4303,2539 4288,2542 4274,2545 4261,2548 4248,2552 4237,2555 4226,2559 4216,2563 4206,2567 4198,2572 4191,2577 4184,2581 4178,2586 4173,2592 4169,2597 4165,2603 4163,2609 4161,2615 4160,2621 4160,2627 4161,2634 4163,2641 4165,2648 4168,2655 4172,2663 4177,2670 4183,2678 4190,2686 4197,2694 4205,2703 4214,2712 4224,2720 4235,2730 4247,2739 4259,2748 4272,2758 4286,2768 4301,2778 4317,2788 4334,2799 4351,2809 4369,2820 4388,2831 4408,2843 4429,2854 4451,2866 4473,2878 4496,2890 4520,2902 4545,2915 4571,2927 4597,2940 4625,2953 4653,2967 4682,2980 4712,2994" style="fill:none;stroke:#FF0000;stroke-width:5"></polyline><polyline points="6500,2700 6450,2698 6400,2692 6350,2683 6300,2670 6250,2653 6200,2633 6150,2609 6100,2581 6050,2549 6000,2514 5950,2475 5900,2432 5850,2386 5800,2336 5750,2282 5700,2224 5650,2163 5600,2098 5550,2030 5500,1957 5450,1881 5400,1801 5350,1718 5300,1631 5250,1540 5200,1445 5150,1347 5100,1245" style="fill:none;stroke:#FF0000;stroke-width:5"></polyline><polyline points="6500,2700 6449,2698 6398,2693 6345,2685 6293,2673 6239,2660 6186,2643 6133,2624 6080,2602 6028,2577 5976,2549 5924,2518 5873,2485 5822,2449 5772,2410 5722,2368 5673,2324 5624,2276 5575,2226 5527,2173 5479,2117 5432,2059 5385,1997 5338,1933 5292,1866 5247,1796 5202,1724 5157,1648 5112,1570 5068,1489 5025,1405 4982,1319 4939,1229 4897,1137 4855,1042 4814,944 4773,844 4732,740" style="fill:none;stroke:#FF0000;stroke-width:5"></polyline><polyline points="6500,2700 6449,2698 6397,2693 6344,2686 6289,2676 6234,2665 6178,2652 6123,2637 6068,2620 6014,2602 5961,2581 5909,2559 5858,2535 5807,2509 5758,2481 5709,2451 5661,2419 5614,2385 5568,2349 5522,2312 5478,2272 5434,2231 5391,2188 5349,2143 5308,2096 5268,2047 5228,1996 5190,1943 5152,1889 5115,1832 5079,1774 5044,1713 5009,1651 4976,1587 4943,1521 4911,1453 4880,1383 4850,1311 4820,1238 4792,1162 4764,1085 4738,1006 4712,924 4686,841 4662,756 4639,669" style="fill:none;stroke:#FF0000;stroke-width:5"></polyline><polyline points="6500,2700 6449,2698 6397,2693 6343,2686 6288,2678 6231,2668 6174,2658 6117,2648 6062,2636 6007,2623 5954,2610 5902,2595 5852,2579 5802,2563 5754,2545 5707,2526 5662,2507 5618,2486 5575,2464 5533,2442 5492,2418 5453,2394 5415,2368 5379,2341 5343,2314 5309,2285 5276,2256 5245,2225 5214,2194 5185,2161 5157,2128 5131,2093 5106,2057 5082,2021 5059,1983 5037,1945 5017,1906 4998,1865 4981,1824 4964,1781 4949,1738 4935,1693 4923,1648 4911,1601 4901,1554 4893,1506 4885,1456 4879,1406 4874,1354 4870,1302 4868,1249 4867,1194 4867,1139 4868,1083 4871,1025 4875,967 4880,908" style="fill:none;stroke:#FF0000;stroke-width:5"></polyline><polyline points="6500,2700 6449,2698 6397,2693 6343,2686 6288,2678 6230,2670 6172,2663 6115,2655 6059,2648 6005,2640 5952,2632 5901,2625 5852,2617 5805,2609 5759,2601 5715,2593 5672,2585 5631,2577 5592,2568 5555,2560 5519,2552 5485,2543 5453,2534 5422,2526 5393,2517 5366,2508 5341,2499 5317,2490 5295,2481 5274,2471 5255,2462 5238,2453 5223,2443 5209,2433 5197,2424 5187,2414 5178,2404 5171,2394 5166,2384 5162,2374 5161,2364 5160,2354 5162,2343 5165,2333 5170,2322 5176,2312 5185,2301 5195,2290 5206,2279 5220,2268 5235,2257 5251,2246 5270,2235 5290,2224 5312,2212 5335,2201 5360,2189 5387,2178 5416,2166 5446,2154 5478,2142 5512,2130 5547,2118 5584,2106 5623,2094 5663,2081 5705,2069 5749,2056 5794,2044 5841,2031 5890,2018 5941,2005 5993,1992 6047,1979 6102,1966 6160,1953 6219,1940 6279,1927 6342,1913 6406,1900 6472,1886 6539,1872 6608,1858 6679,1845 6751,1831 6826,1816 6901,1802 6979,1788" style="fill:none;stroke:#FF0000;stroke-width:5"></polyline><polyline points="6500,2700 6450,2698 6400,2692 6350,2683 6300,2670 6250,2653 6200,2633 6150,2609 6100,2581 6050,2549 6000,2514 5950,2475 5900,2432 5850,2386 5800,2336 5750,2282 5700,2224 5650,2163 5600,2098 5550,2030 5500,1957 5450,1881 5400,1801 5350,1718 5300,1631 5250,1540 5200,1445 5150,1347 5100,1245" style="fill:none;stroke:#FF0000;stroke-width:5"></polyline><polyline points="6500,2700 6449,2698 6398,2692 6345,2683 6292,2670 6237,2653 6182,2633 6125,2609 6068,2581 6009,2549 5950,2514 5889,2475 5828,2432 5765,2386 5702,2336 5637,2282 5572,2224 5505,2163 5438,2098 5369,2030 5300,1957 5229,1881 5158,1801 5085,1718 5012,1631 4937,1540 4862,1445 4785,1347 4708,1245 4629,1139 4550,1030 4469,916 4388,799" style="fill:none;stroke:#FF0000;stroke-width:5"></polyline><polyline points="6500,2700 6449,2698 6397,2692 6343,2683 6287,2670 6229,2653 6169,2633 6107,2609 6043,2581 5977,2549 5909,2514 5839,2475 5767,2432 5693,2386 5617,2336 5539,2282 5459,2224 5377,2163 5293,2098 5207,2030 5119,1957 5029,1881 4937,1801 4843,1718 4747,1631 4649,1540 4549,1445 4447,1347 4343,1245 4237,1139 4129,1030 4019,916 3907,799" style="fill:none;stroke:#FF0000;stroke-width:5"></polyline><polyline points="6500,2700 6449,2698 6397,2692 6343,2683 6285,2670 6225,2653 6161,2633 6095,2609 6025,2581 5953,2549 5877,2514 5799,2475 5717,2432 5633,2386 5545,2336 5455,2282 5361,2224 5265,2163 5165,2098 5063,2030 4957,1957 4849,1881 4737,1801 4623,1718 4505,1631 4385,1540 4261,1445 4135,1347 4005,1245 3873,1139 3737,1030 3599,916 3457,799" style="fill:none;stroke:#FF0000;stroke-width:5"></polyline><polyline points="6500,2700 6449,2698 6397,2692 6343,2683 6285,2670 6223,2653 6157,2633 6087,2609 6013,2581 5935,2549 5853,2514 5767,2475 5677,2432 5583,2386 5485,2336 5383,2282 5277,2224 5167,2163 5053,2098 4935,2030 4813,1957 4687,1881 4557,1801 4423,1718 4285,1631 4143,1540 3997,1445 3847,1347 3693,1245 3535,1139 3373,1030" style="fill:none;stroke:#FF0000;stroke-width:5"></polyline><polyline points="6500,2700 6450,2698 6400,2692 6350,2683 6300,2670 6250,2653 6200,2633 6150,2609 6100,2581 6050,2549 6000,2514 5950,2475 5900,2432 5850,2386 5800,2336 5750,2282 5700,2224 5650,2163 5600,2098 5550,2030 5500,1957 5450,1881 5400,1801 5350,1718 5300,1631 5250,1540 5200,1445 5150,1347 5100,1245" style="fill:none;stroke:#FF0000;stroke-width:5"></polyline><polyline points="6500,2700 6449,2698 6398,2693 6345,2685 6293,2673 6239,2659 6185,2642 6130,2622 6074,2599 6017,2572 5960,2543 5902,2511 5844,2476 5785,2438 5725,2396 5664,2352 5603,2305 5541,2255 5478,2202 5414,2145 5350,2086 5285,2024 5220,1959 5153,1890 5086,1819 5018,1745 4950,1668 4881,1587 4811,1504 4740,1418 4669,1329 4597,1236 4524,1141 4451,1043 4377,942 4302,837" style="fill:none;stroke:#FF0000;stroke-width:5"></polyline><polyline points="6500,2700 6449,2698 6397,2693 6344,2686 6289,2676 6233,2664 6175,2650 6116,2633 6056,2615 5994,2594 5930,2570 5866,2544 5799,2516 5732,2486 5663,2454 5593,2419 5521,2382 5448,2342 5373,2300 5297,2256 5220,2210 5141,2161 5060,2110 4979,2057 4896,2002 4811,1944 4725,1884 4638,1821 4549,1756 4459,1689 4367,1620 4274,1548 4180,1475 4084,1398 3987,1320 3888,1239 3788,1156 3687,1070 3584,983 3479,893 3374,800" style="fill:none;stroke:#FF0000;stroke-width:5"></polyline><polyline points="6500,2700 6449,2698 6397,2693 6343,2686 6288,2677 6230,2667 6169,2656 6107,2642 6043,2627 5976,2611 5908,2593 5837,2573 5764,2552 5689,2529 5612,2505 5533,2479 5452,2451 5368,2422 5282,2391 5195,2358 5105,2325 5013,2289 4919,2252 4823,2213 4724,2173 4624,2131 4521,2087 4417,2042 4310,1995 4201,1947 4090,1897 3977,1846 3862,1793 3744,1738 3625,1682 3503,1624 3379,1565 3253,1504 3125,1441 2995,1377 2863,1311 2729,1244 2592,1175 2454,1104 2313,1032 2170,958 2025,883 1878,806" style="fill:none;stroke:#FF0000;stroke-width:5"></polyline><polyline points="6500,2700 6449,2698 6397,2693 6343,2686 6287,2678 6228,2669 6166,2659 6102,2648 6034,2636 5964,2624 5890,2610 5814,2596 5736,2580 5654,2564 5569,2547 5482,2529 5392,2511 5299,2491 5203,2470 5104,2449 5003,2427 4898,2403 4791,2379 4681,2354 4569,2329 4453,2302 4334,2274 4213,2246 4089,2216 3962,2186 3832,2155 3700,2123 3564,2090 3426,2056 3285,2022 3141,1986 2994,1950 2845,1912 2692,1874 2537,1835 2379,1795 2218,1754 2054,1712 1888,1670 1719,1626" style="fill:none;stroke:#FF0000;stroke-width:5"></polyline><polyline points="6500,2700 6450,2698 6400,2692 6350,2683 6300,2670 6250,2653 6200,2633 6150,2609 6100,2581 6050,2549 6000,2514 5950,2475 5900,2432 5850,2386 5800,2336 5750,2282 5700,2224 5650,2163 5600,2098 5550,2030 5500,1957 5450,1881 5400,1801 5350,1718 5300,1631 5250,1540 5200,1445 5150,1347 5100,1245" style="fill:none;stroke:#FF0000;stroke-width:5"></polyline><polyline points="6500,2700 6449,2698 6398,2693 6345,2685 6293,2673 6239,2660 6186,2643 6132,2624 6079,2602 6025,2577 5970,2549 5916,2519 5861,2486 5806,2450 5751,2412 5696,2370 5641,2326 5585,2280 5529,2230 5473,2178 5417,2123 5360,2066 5303,2005 5246,1942 5189,1876 5132,1808 5074,1737 5017,1663 4959,1586 4900,1506 4842,1424 4783,1339 4725,1252 4666,1161 4606,1068 4547,972 4487,873 4427,772" style="fill:none;stroke:#FF0000;stroke-width:5"></polyline><polyline points="6500,2700 6449,2698 6397,2693 6344,2686 6289,2676 6234,2665 6178,2652 6122,2637 6065,2620 6008,2602 5950,2582 5893,2560 5834,2536 5775,2511 5716,2484 5657,2455 5597,2424 5536,2392 5475,2358 5414,2322 5353,2284 5290,2245 5228,2204 5165,2161 5102,2116 5038,2070 4974,2021 4909,1971 4844,1920 4779,1866 4713,1811 4647,1754 4580,1695 4513,1635 4446,1573 4378,1509 4309,1443 4241,1375 4172,1306 4102,1235 4032,1162 3962,1088 3891,1012 3820,934 3748,854 3676,772 3603,689 3531,604" style="fill:none;stroke:#FF0000;stroke-width:5"></polyline><polyline points="6500,2700 6449,2698 6397,2693 6343,2686 6288,2678 6231,2668 6174,2658 6116,2648 6057,2636 5998,2623 5938,2610 5877,2596 5816,2582 5754,2566 5692,2550 5629,2533 5565,2515 5501,2496 5436,2477 5371,2457 5305,2436 5238,2414 5170,2392 5102,2368 5034,2344 4964,2320 4895,2294 4824,2268 4753,2240 4681,2212 4609,2184 4536,2154 4462,2124 4388,2093 4313,2061 4238,2029 4161,1995 4085,1961 4007,1926 3929,1890 3851,1854 3772,1817 3692,1779 3611,1740 3530,1700 3448,1660 3366,1619 3283,1577 3199,1534 3115,1491 3030,1447 2945,1402 2859,1356 2772,1309 2685,1262 2597,1214 2508,1165 2419,1115 2329,1065 2239,1014 2147,962 2056,909 1963,855 1870,801" style="fill:none;stroke:#FF0000;stroke-width:5"></polyline><polyline points="6500,2700 6449,2698 6397,2693 6343,2686 6288,2678 6230,2670 6172,2662 6113,2655 6053,2648 5992,2640 5931,2633 5868,2627 5805,2620 5741,2614 5676,2608 5610,2602 5544,2596 5476,2591 5408,2585 5339,2580 5269,2575 5198,2570 5127,2566 5054,2562 4981,2558 4907,2554 4832,2550 4756,2546 4680,2543 4602,2540 4524,2537 4445,2534 4365,2532 4284,2530 4203,2527 4120,2526 4037,2524 3953,2522 3868,2521 3783,2520 3696,2519 3609,2518 3520,2518 3431,2518 3341,2517 3251,2518 3159,2518 3067,2518 2974,2519 2880,2520 2785,2521 2689,2523 2593,2524 2495,2526 2397,2528 2298,2530 2198,2532 2097,2535 1996,2537 1894,2540 1790,2544 1686,2547 1582,2550 1476,2554 1369,2558 1262,2562 1154,2567 1045,2571 935,2576 824,2581 713,2586 601,2591 487,2597 373,2603 259,2609 143,2615 26,2621" style="fill:none;stroke:#FF0000;stroke-width:5"></polyline><polyline points="6500,2700 6450,2698 6400,2692 6350,2683 6300,2670 6250,2653 6200,2633 6150,2609 6100,2581 6050,2549 6000,2514 5950,2475 5900,2432 5850,2386 5800,2336 5750,2282 5700,2224 5650,2163 5600,2098 5550,2030 5500,1957 5450,1881 5400,1801 5350,1718 5300,1631 5250,1540 5200,1445 5150,1347 5100,1245" style="fill:none;stroke:#FF0000;stroke-width:5"></polyline><polyline points="6500,2700 6449,2698 6398,2693 6345,2685 6293,2673 6239,2660 6186,2643 6133,2624 6079,2602 6025,2577 5971,2549 5917,2519 5863,2486 5809,2450 5754,2412 5700,2371 5645,2327 5590,2281 5535,2231 5480,2179 5424,2125 5369,2067 5313,2007 5258,1944 5202,1879 5146,1810 5090,1739 5033,1666 4977,1589 4920,1510 4864,1428 4807,1343 4750,1256 4693,1166 4635,1073 4578,978 4520,879 4463,778" style="fill:none;stroke:#FF0000;stroke-width:5"></polyline><polyline points="6500,2700 6449,2698 6397,2693 6344,2686 6289,2676 6234,2665 6178,2652 6122,2637 6066,2620 6009,2602 5952,2582 5895,2560 5838,2537 5780,2512 5722,2485 5664,2456 5605,2426 5546,2394 5487,2360 5428,2324 5368,2287 5308,2248 5248,2207 5187,2165 5127,2120 5066,2074 5004,2027 4943,1977 4881,1926 4819,1873 4756,1819 4693,1762 4630,1704 4567,1644 4503,1583 4440,1520 4376,1455 4311,1388 4246,1319 4181,1249 4116,1177 4051,1104 3985,1028 3919,951 3853,872 3786,792" style="fill:none;stroke:#FF0000;stroke-width:5"></polyline><polyline points="6500,2700 6449,2698 6397,2693 6343,2686 6288,2678 6231,2668 6174,2658 6116,2648 6058,2636 5999,2624 5940,2611 5881,2597 5821,2583 5761,2567 5700,2551 5639,2535 5578,2517 5516,2499 5454,2480 5391,2460 5328,2440 5264,2419 5200,2397 5136,2374 5071,2351 5006,2327 4940,2302 4874,2276 4808,2250 4741,2223 4673,2195 4606,2167 4537,2137 4469,2107 4400,2076 4330,2045 4261,2013 4190,1980 4120,1946 4049,1912 3977,1876 3905,1840 3833,1804 3760,1766 3687,1728 3613,1689 3539,1649 3465,1609 3390,1568 3315,1526 3239,1483 3163,1440 3086,1396 3010,1351 2932,1306 2854,1259 2776,1212 2698,1164 2619,1116 2539,1067 2459,1017 2379,966 2298,914 2217,862 2136,809 2054,755 1972,701 1889,646" style="fill:none;stroke:#FF0000;stroke-width:5"></polyline><polyline points="6500,2700 6449,2698 6397,2693 6343,2686 6288,2678 6230,2670 6172,2662 6113,2655 6054,2648 5994,2641 5934,2634 5873,2628 5812,2621 5750,2615 5687,2610 5624,2604 5560,2599 5496,2594 5431,2589 5366,2585 5300,2581 5233,2577 5166,2573 5099,2569 5031,2566 4962,2563 4893,2561 4823,2558 4752,2556 4681,2554 4610,2552 4538,2551 4465,2549 4392,2549 4318,2548 4244,2547 4169,2547 4094,2547 4018,2547 3941,2548 3864,2549 3787,2550 3709,2551 3630,2553 3551,2554 3471,2556 3390,2559 3309,2561 3228,2564 3146,2567 3063,2570 2980,2574 2896,2578 2812,2582 2727,2586 2642,2590 2556,2595 2469,2600 2382,2606 2294,2611 2206,2617 2118,2623 2028,2629 1938,2636 1848,2642 1757,2650 1665,2657 1573,2664 1481,2672 1387,2680 1294,2688 1199,2697 1105,2706 1009,2715 913,2724 817,2734 719,2743 622,2753 524,2764 425,2774 325,2785 226,2796 125,2807 24,2819" style="fill:none;stroke:#FF0000;stroke-width:5"></polyline><polyline points="6500,2700 6450,2698 6400,2692 6350,2683 6300,2670 6250,2653 6200,2633 6150,2609 6100,2581 6050,2549 6000,2514 5950,2475 5900,2432 5850,2386 5800,2336 5750,2282 5700,2224 5650,2163 5600,2098 5550,2030 5500,1957 5450,1881 5400,1801 5350,1718 5300,1631 5250,1540 5200,1445 5150,1347 5100,1245" style="fill:none;stroke:#FF0000;stroke-width:5"></polyline><polyline points="6500,2700 6449,2698 6398,2693 6345,2685 6293,2673 6239,2660 6186,2643 6132,2623 6077,2601 6022,2576 5967,2548 5911,2517 5855,2484 5798,2447 5741,2408 5684,2366 5626,2321 5567,2274 5509,2223 5450,2170 5390,2114 5330,2055 5269,1994 5209,1929 5147,1862 5086,1792 5024,1719 4961,1644 4898,1565 4835,1484 4771,1400 4707,1313 4642,1224 4577,1131 4511,1036 4445,938 4379,837" style="fill:none;stroke:#FF0000;stroke-width:5"></polyline><polyline points="6500,2700 6449,2698 6397,2693 6344,2686 6289,2676 6234,2665 6177,2652 6120,2636 6062,2619 6003,2600 5943,2579 5883,2557 5821,2532 5759,2505 5696,2477 5632,2447 5567,2414 5501,2380 5435,2344 5367,2306 5299,2266 5230,2224 5160,2181 5089,2135 5018,2088 4945,2038 4872,1987 4798,1934 4723,1879 4647,1822 4571,1763 4493,1702 4415,1640 4335,1575 4255,1509 4175,1440 4093,1370 4010,1298 3927,1224 3843,1148 3757,1070 3671,991 3585,909 3497,825 3408,740" style="fill:none;stroke:#FF0000;stroke-width:5"></polyline><polyline points="6500,2700 6449,2698 6397,2693 6343,2686 6288,2678 6231,2668 6173,2658 6113,2647 6052,2634 5990,2621 5927,2607 5863,2591 5797,2575 5730,2558 5661,2539 5592,2520 5521,2500 5449,2479 5375,2456 5300,2433 5224,2409 5147,2384 5069,2357 4989,2330 4908,2302 4826,2273 4742,2243 4657,2211 4571,2179 4484,2146 4395,2112 4305,2077 4214,2041 4121,2003 4028,1965 3933,1926 3836,1886 3739,1845 3640,1803 3540,1760 3439,1716 3336,1671 3232,1625 3127,1577 3021,1529 2913,1480 2804,1430 2694,1379 2583,1327 2470,1274 2356,1220 2241,1165 2124,1109 2006,1052 1887,994" style="fill:none;stroke:#FF0000;stroke-width:5"></polyline><polyline points="6500,2700 6449,2698 6397,2693 6343,2686 6288,2678 6230,2670 6171,2662 6110,2654 6047,2645 5982,2637 5916,2629 5848,2620 5779,2611 5708,2603 5635,2594 5560,2585 5484,2576 5406,2567 5326,2558 5245,2548 5162,2539 5077,2530 4991,2520 4903,2511 4813,2501 4722,2491 4628,2481 4534,2471 4437,2461 4339,2451 4239,2441 4137,2431 4034,2421 3929,2410 3822,2400 3714,2389 3604,2378 3492,2367 3379,2357 3264,2346 3147,2335 3028,2323 2908,2312 2786,2301 2662,2290 2537,2278 2410,2266 2282,2255 2151,2243 2019,2231 1885,2219 1750,2207 1613,2195 1474,2183 1334,2171 1191,2159 1047,2146 902,2134 755,2121 606,2108" style="fill:none;stroke:#FF0000;stroke-width:5"></polyline><polyline points="6500,2700 6449,2698 6397,2693 6344,2685 6291,2674 6237,2660 6184,2641 6131,2619 6078,2595 6025,2567 5972,2536 5920,2501 5867,2462 5815,2419 5762,2373 5710,2324 5657,2272 5605,2215 5552,2155 5500,2091 5447,2023 5395,1952 5342,1877 5290,1798 5238,1716 5185,1630 5133,1540 5081,1448 5028,1352 4976,1252 4924,1148 4872,1040 4819,929 4767,814 4715,696" style="fill:none;stroke:#FF0000;stroke-width:5"></polyline><polyline points="6500,2700 6449,2698 6397,2692 6343,2684 6287,2672 6227,2656 6164,2637 6098,2615 6028,2591 5955,2564 5880,2536 5802,2506 5720,2474 5637,2438 5552,2399 5464,2356 5375,2310 5284,2260 5191,2206 5096,2149 4999,2088 4900,2023 4800,1955 4700,1883 4599,1807 4498,1728 4396,1645 4292,1558 4187,1468 4079,1375 3968,1278 3854,1178 3736,1074 3614,967 3488,856 3359,743" style="fill:none;stroke:#FF0000;stroke-width:5"></polyline><polyline points="6500,2700 6449,2698 6397,2693 6343,2684 6285,2673 6223,2658 6157,2640 6088,2618 6016,2592 5943,2563 5868,2531 5792,2497 5714,2460 5634,2422 5552,2382 5469,2339 5386,2293 5303,2244 5219,2193 5135,2140 5050,2086 4963,2030 4876,1974 4787,1918 4697,1860 4607,1800 4517,1739 4427,1676 4339,1613 4251,1550 4163,1487 4076,1424 3989,1361 3902,1298 3816,1236 3732,1173 3650,1110 3570,1046 3492,981 3416,914 3342,847" style="fill:none;stroke:#FF0000;stroke-width:5"></polyline><polyline points="6500,2700 6449,2698 6397,2693 6344,2686 6289,2677 6233,2667 6176,2658 6120,2649 6065,2640 6011,2631 5959,2622 5908,2613 5858,2604 5810,2593 5762,2580 5714,2564 5667,2546 5619,2524 5571,2500 5523,2473 5476,2443 5427,2410 5379,2375 5330,2337 5281,2295 5232,2249 5183,2200 5134,2147 5084,2092 5033,2035 4981,1976 4928,1917 4873,1858 4815,1798 4755,1738 4692,1676 4625,1612 4556,1546 4484,1478 4410,1406 4334,1333 4255,1257 4172,1178 4087,1097 4000,1013 3910,927 3817,838 3721,747 3622,653 3519,558" style="fill:none;stroke:#FF0000;stroke-width:5"></polyline><polyline points="6500,2700 6449,2698 6397,2693 6343,2686 6288,2677 6232,2666 6176,2652 6120,2635 6064,2615 6008,2590 5952,2562 5896,2530 5840,2494 5783,2456 5727,2414 5671,2368 5614,2321 5557,2271 5500,2219 5443,2163 5386,2104 5329,2040 5272,1974 5216,1904 5159,1831 5102,1757 5046,1680 4990,1600 4933,1517 4877,1430 4821,1340 4765,1247 4709,1151 4653,1051 4597,948 4540,841 4484,731" style="fill:none;stroke:#FF0000;stroke-width:5"></polyline><polyline points="6500,2700 6449,2698 6398,2693 6346,2684 6294,2672 6242,2657 6190,2639 6138,2620 6086,2600 6035,2578 5983,2554 5932,2529 5881,2501 5830,2471 5779,2437 5728,2400 5677,2361 5625,2319 5573,2276 5521,2232 5469,2188 5415,2144 5360,2100 5305,2056 5249,2011 5193,1965 5136,1920 5077,1874 5017,1827 4955,1780 4891,1731 4826,1682 4759,1631 4689,1578 4618,1522 4545,1465 4470,1404 4393,1342 4315,1277 4236,1208 4157,1137 4078,1062 3998,984 3918,904 3837,820" style="fill:none;stroke:#FF0000;stroke-width:5"></polyline><polyline points="6500,2700 6449,2698 6398,2693 6345,2685 6293,2673 6239,2660 6186,2645 6132,2628 6079,2607 6027,2585 5976,2559 5926,2531 5877,2499 5829,2466 5783,2429 5738,2389 5692,2346 5648,2300 5604,2250 5563,2198 5525,2142 5487,2084 5451,2021 5414,1956 5377,1886 5340,1812 5304,1735 5267,1655 5233,1570 5199,1482 5168,1391 5138,1296 5109,1197" style="fill:none;stroke:#FF0000;stroke-width:5"></polyline><polyline points="6500,2700 6449,2698 6398,2693 6345,2685 6291,2675 6236,2664 6179,2652 6123,2638 6066,2622 6009,2606 5952,2588 5896,2568 5840,2548 5785,2527 5732,2505 5680,2482 5630,2456 5582,2429 5535,2399 5489,2368 5446,2335 5404,2300 5363,2262 5323,2222 5285,2180 5248,2136 5213,2089 5181,2040 5152,1989 5125,1936 5102,1881 5080,1824 5061,1765 5045,1706 5032,1646 5021,1585 5014,1522 5010,1458 5010,1392 5014,1323 5021,1251" style="fill:none;stroke:#FF0000;stroke-width:5"></polyline><polyline points="6500,2700 6449,2698 6397,2693 6343,2686 6288,2678 6230,2670 6170,2661 6108,2651 6044,2639 5976,2625 5904,2609 5829,2591 5750,2570 5667,2546 5579,2519 5488,2488 5394,2454 5297,2416 5198,2375 5097,2331 4995,2283 4891,2233 4785,2180 4677,2124 4566,2067 4454,2007 4340,1945 4224,1880 4107,1813 3989,1742 3871,1668 3754,1590 3636,1508 3518,1422 3400,1332 3283,1239 3165,1143 3045,1042 2923,939 2798,834 2671,725 2543,614 2414,499 2284,381" style="fill:none;stroke:#FF0000;stroke-width:5"></polyline><polyline points="6500,2700 6449,2698 6397,2693 6343,2686 6286,2677 6226,2666 6163,2654 6097,2640 6028,2624 5956,2606 5881,2588 5804,2568 5724,2548 5641,2528 5557,2507 5471,2486 5383,2465 5292,2442 5199,2418 5103,2393 5006,2367 4906,2339 4805,2311 4703,2282 4599,2252 4494,2222 4388,2189 4281,2155 4173,2120 4063,2084 3951,2047 3837,2009 3721,1970 3603,1930 3484,1888 3363,1844 3240,1798 3113,1749 2983,1698 2851,1644 2717,1587 2583,1526 2449,1461 2314,1393 2180,1321 2044,1245 1908,1166 1772,1084" style="fill:none;stroke:#FF0000;stroke-width:5"></polyline><polyline points="6500,2700 6449,2698 6397,2693 6343,2686 6288,2678 6230,2670 6173,2661 6116,2653 6060,2644 6005,2634 5951,2624 5899,2613 5848,2603 5798,2593 5748,2584 5700,2574 5652,2564 5605,2554 5560,2543 5516,2531 5473,2519 5431,2504 5391,2487 5351,2468 5311,2445 5272,2418 5234,2389 5197,2357 5162,2322 5129,2285 5100,2245 5073,2201 5049,2155 5029,2105 5013,2052 5000,1995 4990,1934 4983,1870 4977,1802 4971,1730 4966,1654 4961,1575 4955,1492 4950,1406 4945,1316 4941,1222 4936,1124 4932,1023" style="fill:none;stroke:#FF0000;stroke-width:5"></polyline><polyline points="6500,2700 6449,2698 6397,2693 6343,2686 6288,2678 6231,2669 6173,2660 6114,2652 6055,2643 5994,2635 5932,2627 5870,2620 5807,2612 5744,2605 5680,2598 5615,2590 5549,2583 5481,2575 5413,2567 5344,2560 5275,2552 5205,2544 5135,2533 5065,2518 4995,2501 4925,2481 4855,2458 4786,2435 4717,2410 4649,2385 4582,2361 4514,2337 4446,2313 4379,2289 4312,2265 4245,2240 4178,2215 4112,2189 4047,2161 3981,2131 3916,2099 3851,2064 3785,2026 3720,1986 3654,1942 3589,1895 3524,1846 3459,1794 3394,1740 3330,1684 3265,1625 3201,1563 3137,1498 3073,1430 3009,1357 2946,1282 2882,1202 2818,1119 2755,1034 2693,945 2631,853 2570,759 2510,662 2450,563 2391,462" style="fill:none;stroke:#FF0000;stroke-width:5"></polyline><polyline points="6500,2700 6449,2698 6398,2692 6347,2683 6296,2671 6245,2654 6194,2634 6143,2610 6092,2583 6041,2551 5991,2517 5942,2479 5895,2438 5852,2394 5811,2348 5774,2298 5741,2246 5710,2190 5683,2133 5659,2073 5639,2010 5621,1944 5607,1875 5595,1803 5586,1728 5578,1648 5572,1565 5569,1478 5568,1388 5571,1294 5577,1197 5587,1096 5601,994 5617,889" style="fill:none;stroke:#FF0000;stroke-width:5"></polyline><polyline points="6500,2700 6449,2698 6397,2693 6343,2686 6288,2678 6230,2670 6172,2663 6115,2655 6059,2646 6004,2636 5952,2626 5902,2615 5854,2604 5809,2593 5767,2579 5726,2564 5688,2547 5651,2527 5615,2505 5581,2479 5546,2449 5511,2415 5478,2378 5445,2337 5414,2293 5383,2246 5353,2195 5324,2140 5295,2082 5267,2021 5240,1957 5214,1889 5190,1818 5166,1744 5144,1667 5123,1587 5102,1503 5082,1417 5063,1327 5044,1235" style="fill:none;stroke:#FF0000;stroke-width:5"></polyline><polyline points="6500,2700 6449,2698 6397,2693 6343,2686 6288,2678 6230,2670 6172,2663 6115,2655 6059,2648 6004,2640 5951,2632 5901,2623 5851,2614 5804,2605 5758,2596 5714,2586 5672,2576 5633,2566 5596,2555 5562,2543 5529,2530 5500,2516 5473,2501 5449,2485 5427,2467 5409,2448 5395,2427 5383,2403 5375,2377 5369,2349 5366,2317 5366,2282 5368,2243 5372,2201 5378,2155 5386,2105 5396,2052 5409,1995 5423,1934 5439,1870 5456,1801 5475,1730 5495,1654 5517,1575 5540,1492 5563,1405 5587,1315 5611,1222 5636,1125 5660,1024 5685,919 5709,811" style="fill:none;stroke:#FF0000;stroke-width:5"></polyline><polyline points="6500,2700 6450,2698 6399,2692 6347,2684 6295,2674 6242,2661 6189,2645 6136,2628 6084,2609 6034,2589 5987,2568 5944,2545 5905,2518 5870,2488 5839,2455 5811,2419 5788,2381 5768,2339 5750,2294 5736,2245 5723,2193 5713,2138 5703,2078 5695,2016 5686,1950 5678,1880 5671,1807 5664,1731 5657,1650 5650,1567 5644,1479 5639,1389 5634,1296 5630,1201 5627,1104 5624,1006 5621,907 5618,807" style="fill:none;stroke:#FF0000;stroke-width:5"></polyline><polyline points="6500,2700 6449,2698 6397,2693 6343,2685 6285,2673 6224,2659 6159,2641 6093,2621 6025,2597 5956,2570 5887,2540 5818,2507 5747,2471 5675,2432 5602,2391 5528,2348 5452,2302 5375,2255 5296,2205 5214,2154 5130,2101 5042,2046 4950,1988 4854,1927 4755,1865 4652,1801 4547,1736 4439,1670 4328,1603 4216,1536 4101,1467 3984,1399 3865,1330 3745,1260 3623,1190 3499,1120 3373,1049 3245,979" style="fill:none;stroke:#FF0000;stroke-width:5"></polyline><polyline points="6500,2700 6449,2698 6397,2693 6344,2685 6291,2674 6237,2660 6184,2641 6130,2619 6076,2594 6023,2566 5969,2533 5915,2497 5861,2458 5807,2414 5752,2369 5696,2321 5640,2270 5582,2218 5523,2163 5462,2106 5400,2048 5336,1987 5272,1923 5208,1856 5142,1788 5076,1715 5011,1640 4944,1560 4878,1478 4811,1392 4743,1303 4673,1212 4601,1120 4526,1025 4449,929 4368,831" style="fill:none;stroke:#FF0000;stroke-width:5"></polyline><polyline points="6500,2700 6450,2698 6400,2692 6349,2683 6298,2671 6247,2656 6196,2637 6145,2615 6093,2589 6042,2559 5991,2525 5940,2487 5889,2446 5837,2402 5785,2354 5734,2303 5682,2248 5630,2192 5577,2132 5525,2071 5473,2006 5421,1939 5368,1869 5316,1794 5263,1717 5211,1635 5158,1552 5106,1468 5053,1382 5000,1294 4948,1205 4896,1112 4844,1016 4792,917 4740,816 4688,713" style="fill:none;stroke:#FF0000;stroke-width:5"></polyline><polyline points="6500,2700 6449,2698 6397,2693 6343,2686 6288,2677 6232,2666 6176,2652 6120,2634 6064,2612 6009,2589 5955,2563 5902,2535 5850,2506 5800,2475 5752,2443 5706,2411 5662,2377 5621,2343 5581,2307 5544,2270 5509,2233 5475,2196 5441,2159 5408,2120 5376,2079 5343,2035 5310,1988 5278,1938 5245,1884 5213,1827 5180,1766 5148,1702 5116,1635 5084,1565 5053,1494 5023,1421 4995,1348 4969,1272 4944,1194 4920,1113 4896,1028 4875,940 4855,849 4837,755" style="fill:none;stroke:#FF0000;stroke-width:5"></polyline><polyline points="6500,2700 6449,2698 6397,2693 6344,2685 6288,2675 6231,2662 6170,2647 6107,2632 6040,2615 5970,2596 5896,2574 5818,2551 5738,2525 5655,2497 5570,2466 5485,2431 5399,2393 5314,2351 5228,2305 5142,2256 5055,2203 4967,2148 4878,2090 4790,2028 4701,1962 4612,1893 4523,1820 4433,1744 4343,1664 4253,1581 4162,1494 4069,1405 3975,1312 3877,1218 3776,1122 3672,1025 3566,925 3459,824" style="fill:none;stroke:#FF0000;stroke-width:5"></polyline><polyline points="6500,2700 6449,2698 6397,2693 6343,2685 6286,2676 6226,2666 6164,2654 6099,2641 6033,2624 5965,2605 5896,2583 5826,2558 5755,2530 5682,2499 5609,2465 5533,2429 5454,2390 5372,2348 5286,2304 5197,2257 5105,2208 5010,2155 4911,2098 4809,2039 4704,1976 4595,1910 4483,1840 4371,1767 4256,1691 4141,1611 4024,1527 3905,1440 3786,1349 3666,1254 3547,1156 3428,1054 3309,948" style="fill:none;stroke:#FF0000;stroke-width:5"></polyline><polyline points="6500,2700 6449,2698 6397,2693 6343,2686 6288,2678 6231,2668 6174,2656 6118,2643 6062,2629 6009,2613 5959,2596 5912,2577 5868,2557 5827,2534 5788,2509 5750,2481 5714,2451 5679,2418 5645,2381 5611,2341 5577,2297 5543,2249 5509,2198 5477,2143 5447,2085 5419,2025 5393,1961 5370,1894 5350,1824 5333,1750 5321,1672 5312,1590 5307,1505 5305,1416 5307,1324 5312,1228 5321,1129 5334,1027" style="fill:none;stroke:#FF0000;stroke-width:5"></polyline><polyline points="6500,2700 6450,2698 6400,2692 6349,2683 6298,2672 6246,2658 6194,2641 6142,2622 6090,2600 6038,2574 5985,2546 5933,2516 5880,2483 5827,2446 5774,2405 5721,2360 5667,2312 5613,2261 5557,2206 5500,2148 5442,2086 5384,2021 5326,1953 5267,1880 5208,1804 5148,1725 5088,1642 5027,1555 4964,1466 4899,1374 4833,1278 4765,1180 4695,1078 4624,973 4552,865 4481,753" style="fill:none;stroke:#FF0000;stroke-width:5"></polyline><polyline points="6500,2700 6449,2698 6397,2693 6343,2686 6288,2677 6232,2667 6175,2657 6119,2647 6065,2636 6012,2625 5962,2612 5914,2598 5868,2581 5825,2561 5784,2539 5746,2513 5709,2484 5673,2453 5639,2418 5606,2380 5573,2339 5542,2296 5513,2250 5484,2202 5456,2150 5430,2096 5405,2039 5380,1979 5356,1916 5333,1849 5309,1778 5285,1703 5262,1626 5240,1545 5217,1460 5195,1372 5173,1280 5151,1184" style="fill:none;stroke:#FF0000;stroke-width:5"></polyline><polyline points="6500,2700 6449,2698 6397,2693 6343,2686 6288,2678 6230,2670 6172,2663 6115,2655 6058,2647 6002,2638 5946,2627 5890,2613 5835,2597 5780,2579 5726,2561 5673,2544 5621,2526 5570,2508 5519,2489 5470,2468 5423,2447 5378,2425 5335,2403 5294,2379 5255,2355 5218,2328 5184,2299 5151,2268 5121,2235 5092,2200 5065,2163 5042,2124 5022,2083 5006,2038 4994,1990 4984,1938 4977,1883 4973,1825 4973,1764 4975,1701 4980,1634 4988,1566 4999,1496 5012,1425 5026,1350 5041,1274 5058,1196" style="fill:none;stroke:#FF0000;stroke-width:5"></polyline><polyline points="6500,2700 6449,2698 6397,2693 6344,2685 6291,2674 6237,2659 6183,2640 6130,2618 6076,2592 6021,2562 5966,2529 5910,2492 5854,2452 5797,2407 5738,2359 5678,2308 5616,2252 5553,2194 5488,2131 5421,2066 5351,1998 5280,1928 5206,1854 5130,1778 5054,1699 4976,1617 4897,1532 4816,1443 4732,1352 4644,1258 4553,1161 4457,1062 4358,960 4257,857" style="fill:none;stroke:#FF0000;stroke-width:5"></polyline><polyline points="6500,2700 6449,2698 6397,2693 6343,2686 6288,2678 6230,2670 6172,2662 6115,2654 6059,2645 6004,2634 5951,2620 5898,2604 5847,2583 5797,2560 5748,2533 5700,2502 5654,2469 5609,2433 5566,2394 5525,2352 5486,2308 5448,2262 5412,2215 5380,2166 5350,2115 5322,2063 5297,2010 5273,1958 5251,1905 5230,1852 5211,1800 5191,1747 5171,1693 5152,1638 5133,1583 5114,1527 5096,1472 5077,1418 5058,1364 5038,1309 5017,1255 4996,1200 4975,1144 4954,1089 4933,1034 4911,977 4890,918 4869,857 4848,793 4827,726 4806,658" style="fill:none;stroke:#FF0000;stroke-width:5"></polyline><polyline points="6500,2700 6449,2698 6397,2693 6343,2686 6288,2677 6232,2666 6176,2653 6120,2637 6065,2619 6009,2597 5954,2572 5901,2544 5850,2513 5801,2478 5754,2441 5708,2401 5664,2358 5621,2313 5578,2264 5535,2211 5493,2154 5452,2094 5414,2030 5379,1962 5348,1892 5318,1819 5291,1743 5266,1664 5243,1582 5223,1495 5204,1406 5188,1312 5174,1215 5161,1114" style="fill:none;stroke:#FF0000;stroke-width:5"></polyline><polyline points="6500,2700 6449,2698 6398,2693 6345,2685 6293,2673 6239,2659 6186,2641 6133,2619 6079,2594 6026,2567 5972,2536 5917,2502 5863,2466 5809,2427 5755,2386 5701,2343 5646,2297 5591,2249 5536,2199 5481,2146 5425,2092 5370,2035 5313,1978 5256,1919 5199,1859 5140,1798 5081,1738 5020,1678 4959,1618 4897,1558 4834,1496 4771,1432 4708,1366 4644,1299 4580,1230 4516,1160 4451,1089 4385,1018 4319,946 4252,873 4184,799 4114,726 4044,652 3972,577" style="fill:none;stroke:#FF0000;stroke-width:5"></polyline><polyline points="6500,2700 6449,2698 6398,2693 6345,2685 6293,2673 6239,2660 6186,2643 6133,2623 6080,2600 6027,2573 5974,2543 5923,2509 5871,2472 5820,2431 5770,2387 5721,2339 5674,2288 5631,2234 5591,2177 5555,2116 5523,2053 5495,1986 5470,1917 5450,1844 5434,1768 5421,1689 5412,1607 5406,1522 5402,1433 5401,1340 5403,1244 5409,1145 5419,1043 5433,940" style="fill:none;stroke:#FF0000;stroke-width:5"></polyline><polyline points="6500,2700 6449,2698 6398,2693 6346,2684 6294,2672 6242,2656 6190,2637 6139,2615 6087,2590 6036,2561 5986,2530 5937,2496 5890,2458 5845,2416 5803,2372 5762,2324 5722,2273 5682,2218 5643,2159 5605,2097 5571,2031 5539,1962 5509,1890 5482,1813 5458,1733 5436,1650 5417,1562 5399,1471 5382,1377 5366,1279 5351,1177 5338,1071" style="fill:none;stroke:#FF0000;stroke-width:5"></polyline><polyline points="6500,2700 6449,2698 6397,2693 6343,2686 6288,2678 6230,2670 6172,2662 6115,2653 6058,2641 6001,2626 5944,2609 5888,2589 5832,2566 5777,2541 5721,2512 5666,2481 5611,2445 5556,2406 5501,2364 5447,2317 5392,2267 5337,2213 5283,2156 5229,2095 5175,2031 5123,1963 5071,1892 5021,1817 4972,1741 4926,1663 4882,1584 4840,1505 4801,1425 4765,1343 4732,1259 4703,1173 4676,1084 4652,993 4630,898 4609,800 4590,697" style="fill:none;stroke:#FF0000;stroke-width:5"></polyline><polyline points="6500,2700 6449,2698 6397,2693 6344,2686 6289,2676 6235,2663 6180,2646 6126,2626 6071,2602 6017,2575 5962,2545 5908,2511 5854,2474 5799,2437 5744,2397 5689,2358 5633,2317 5578,2275 5522,2231 5467,2185 5411,2138 5356,2089 5301,2039 5245,1988 5190,1935 5135,1879 5080,1820 5025,1757 4970,1691 4915,1623 4860,1551 4805,1479 4751,1404 4699,1328 4647,1251 4597,1175 4547,1098 4499,1022 4451,946 4403,868 4354,790" style="fill:none;stroke:#FF0000;stroke-width:5"></polyline><polyline points="6500,2700 6449,2698 6398,2692 6345,2683 6289,2672 6231,2658 6168,2641 6102,2621 6032,2598 5960,2572 5885,2542 5808,2508 5726,2471 5641,2431 5552,2388 5461,2341 5367,2292 5272,2239 5176,2182 5080,2122 4984,2058 4888,1991 4790,1920 4692,1846 4594,1769 4495,1688 4395,1603 4295,1515 4193,1423 4090,1328 3986,1230 3880,1128 3774,1023 3668,914 3561,802 3455,685" style="fill:none;stroke:#FF0000;stroke-width:5"></polyline><polyline points="6500,2700 6449,2698 6397,2693 6343,2686 6288,2678 6231,2668 6174,2656 6118,2644 6061,2630 6005,2617 5946,2603 5887,2589 5825,2574 5762,2558 5697,2543 5633,2527 5568,2511 5504,2494 5440,2475 5376,2453 5314,2429 5251,2401 5189,2370 5128,2337 5066,2302 5005,2263 4944,2221 4883,2175 4822,2125 4761,2072 4700,2016 4639,1958 4578,1897 4517,1834 4456,1769 4395,1701 4333,1632 4271,1563 4209,1494 4148,1425 4086,1357 4025,1288 3965,1220 3904,1151 3844,1081 3785,1008 3726,935 3669,859 3614,782 3559,703 3506,623" style="fill:none;stroke:#FF0000;stroke-width:5"></polyline><polyline points="6500,2700 6449,2698 6398,2693 6346,2684 6294,2672 6242,2656 6190,2636 6138,2613 6087,2586 6034,2558 5982,2527 5929,2493 5876,2457 5822,2419 5768,2379 5712,2338 5655,2295 5598,2250 5539,2204 5478,2157 5415,2110 5349,2062 5282,2013 5211,1964 5138,1913 5063,1861 4985,1808 4903,1754 4819,1699 4732,1640 4644,1579 4553,1515 4460,1448 4365,1377 4269,1302 4170,1225 4068,1144 3963,1061 3855,976 3744,888 3629,798 3510,706" style="fill:none;stroke:#FF0000;stroke-width:5"></polyline><polyline points="6500,2700 6449,2698 6397,2693 6343,2686 6288,2678 6231,2669 6174,2660 6117,2652 6061,2642 6008,2632 5958,2621 5911,2608 5867,2595 5826,2580 5786,2564 5749,2548 5713,2529 5677,2509 5642,2487 5607,2462 5572,2433 5537,2400 5503,2364 5469,2325 5436,2284 5404,2240 5373,2195 5344,2148 5315,2098 5288,2045 5261,1990 5236,1933 5214,1874 5195,1814 5179,1752 5168,1688 5160,1621 5155,1553 5154,1483 5155,1412 5159,1341 5165,1267 5172,1190 5180,1111" style="fill:none;stroke:#FF0000;stroke-width:5"></polyline><polyline points="6500,2700 6450,2698 6399,2692 6347,2684 6295,2674 6242,2660 6189,2644 6136,2625 6083,2602 6030,2575 5977,2545 5925,2512 5873,2475 5822,2435 5770,2391 5718,2344 5667,2295 5618,2244 5569,2192 5521,2139 5473,2085 5426,2029 5380,1970 5334,1909 5288,1845 5243,1778 5197,1708 5152,1634 5107,1557 5062,1477 5017,1393 4972,1306 4927,1215 4882,1121 4838,1023 4793,921 4749,817 4706,709" style="fill:none;stroke:#FF0000;stroke-width:5"></polyline><polyline points="6500,2700 6449,2698 6397,2693 6343,2686 6288,2678 6230,2670 6172,2663 6115,2655 6057,2648 5999,2641 5940,2634 5880,2626 5818,2619 5756,2611 5695,2603 5633,2595 5570,2588 5508,2580 5446,2573 5384,2567 5322,2560 5261,2554 5199,2549 5138,2543 5076,2538 5016,2533 4955,2528 4895,2521 4834,2513 4773,2504 4710,2494 4646,2484 4581,2474 4515,2464 4447,2454 4379,2444 4309,2432 4238,2421 4166,2409 4093,2396 4020,2381 3946,2367 3871,2352 3795,2337 3719,2321 3643,2305 3567,2288 3493,2270 3420,2253 3348,2235 3278,2218 3210,2200 3144,2182 3079,2164 3017,2146 2956,2126 2897,2105 2840,2082 2784,2056 2730,2028 2677,1997 2624,1963 2573,1927 2522,1888 2471,1844 2420,1798 2369,1748 2319,1695 2271,1639 2224,1580 2178,1518 2133,1451 2088,1382 2043,1308 1998,1231 1953,1150 1909,1065 1866,977 1825,885" style="fill:none;stroke:#FF0000;stroke-width:5"></polyline><polyline points="6500,2700 6450,2698 6400,2692 6350,2683 6300,2670 6249,2654 6199,2634 6149,2611 6099,2584 6048,2554 5998,2519 5948,2482 5898,2442 5848,2401 5798,2357 5749,2313 5699,2266 5649,2217 5600,2165 5550,2109 5501,2050 5451,1987 5402,1922 5352,1855 5302,1786 5253,1714 5204,1640 5155,1561 5106,1481 5056,1397 5007,1310 4957,1220 4907,1127 4856,1032 4805,935 4753,839 4701,743" style="fill:none;stroke:#FF0000;stroke-width:5"></polyline><polyline points="6500,2700 6449,2698 6397,2693 6343,2686 6288,2678 6230,2670 6172,2662 6115,2653 6058,2641 6002,2626 5947,2610 5895,2592 5844,2573 5794,2551 5744,2526 5695,2497 5645,2464 5597,2429 5550,2391 5504,2351 5458,2307 5412,2260 5366,2210 5320,2156 5275,2098 5231,2038 5188,1975 5148,1910 5109,1843 5070,1773 5033,1700 4996,1624 4959,1545 4922,1461 4886,1374 4850,1285 4814,1192 4778,1095 4743,995 4707,891 4671,784 4636,674" style="fill:none;stroke:#FF0000;stroke-width:5"></polyline><polyline points="6500,2700 6449,2698 6397,2693 6343,2686 6288,2678 6230,2670 6173,2661 6116,2653 6060,2644 6006,2633 5955,2621 5907,2607 5862,2590 5819,2570 5777,2547 5738,2520 5699,2490 5663,2457 5630,2420 5600,2380 5573,2336 5550,2289 5530,2239 5514,2185 5502,2129 5493,2069 5489,2006 5489,1940 5492,1869 5500,1796 5511,1720 5524,1641 5540,1558 5558,1473 5577,1384 5598,1293 5620,1199 5644,1102 5669,1001 5696,897 5723,790" style="fill:none;stroke:#FF0000;stroke-width:5"></polyline><polyline points="6500,2700 6449,2698 6397,2693 6343,2686 6288,2678 6230,2670 6173,2661 6116,2653 6060,2644 6007,2635 5957,2625 5909,2612 5864,2596 5821,2578 5780,2557 5741,2534 5705,2508 5672,2482 5642,2455 5615,2427 5590,2398 5566,2369 5545,2339 5525,2307 5506,2272 5489,2235 5472,2195 5456,2151 5440,2105 5425,2055 5409,2001 5393,1943 5378,1882 5364,1817 5352,1749 5343,1678 5336,1604 5331,1526 5326,1445 5321,1361 5317,1273 5315,1182 5314,1088" style="fill:none;stroke:#FF0000;stroke-width:5"></polyline><polyline points="6500,2700 6450,2698 6400,2692 6349,2683 6297,2670 6243,2653 6188,2633 6132,2609 6075,2582 6018,2552 5959,2520 5899,2485 5838,2447 5776,2407 5713,2363 5648,2316 5581,2266 5511,2215 5438,2161 5362,2107 5285,2050 5206,1992 5126,1931 5044,1869 4961,1805 4878,1736 4795,1665 4712,1589 4628,1510 4545,1429 4461,1345 4376,1257 4292,1166 4208,1072 4123,975 4039,874 3955,770 3871,662" style="fill:none;stroke:#FF0000;stroke-width:5"></polyline><polyline points="6500,2700 6449,2698 6397,2693 6343,2685 6286,2673 6227,2658 6166,2640 6104,2618 6040,2592 5975,2563 5907,2530 5838,2493 5768,2454 5697,2410 5626,2363 5556,2313 5485,2258 5414,2200 5343,2138 5270,2073 5198,2004 5125,1931 5053,1855 4980,1775 4908,1691 4835,1603 4763,1512 4689,1417 4616,1319 4542,1217 4469,1111 4395,1002 4322,889" style="fill:none;stroke:#FF0000;stroke-width:5"></polyline><polyline points="6500,2700 6449,2698 6397,2693 6343,2686 6288,2678 6231,2668 6173,2657 6114,2644 6056,2628 5997,2608 5939,2585 5880,2558 5822,2529 5764,2497 5706,2462 5648,2425 5591,2384 5533,2339 5475,2290 5418,2238 5360,2183 5303,2124 5246,2061 5188,1995 5131,1925 5073,1852 5016,1774 4959,1694 4902,1611 4846,1526 4790,1440 4734,1352 4678,1262 4622,1168 4566,1071 4509,971 4453,868 4396,760" style="fill:none;stroke:#FF0000;stroke-width:5"></polyline><polyline points="6500,2700 6449,2698 6397,2693 6343,2686 6288,2678 6231,2668 6174,2659 6117,2650 6062,2640 6010,2630 5960,2619 5913,2607 5868,2594 5825,2580 5784,2565 5745,2549 5706,2533 5670,2515 5635,2497 5601,2478 5569,2460 5537,2440 5506,2420 5475,2401 5444,2381 5413,2361 5381,2340 5348,2320 5316,2299 5285,2277 5253,2256 5223,2234 5193,2210 5163,2184 5135,2156 5107,2126 5081,2093 5055,2056 5029,2016 5003,1972 4978,1925 4952,1875 4927,1821 4902,1763 4876,1701 4851,1637 4826,1569 4801,1499 4776,1428 4751,1357 4725,1284 4698,1211 4669,1138 4640,1064 4609,989 4577,914 4543,839 4508,765" style="fill:none;stroke:#FF0000;stroke-width:5"></polyline><polyline points="6500,2700 6449,2698 6397,2693 6343,2686 6288,2677 6229,2667 6169,2655 6108,2640 6044,2623 5979,2604 5910,2583 5840,2559 5768,2534 5693,2509 5615,2482 5535,2453 5453,2423 5370,2390 5286,2354 5202,2316 5116,2274 5031,2229 4945,2181 4858,2129 4771,2074 4684,2016 4596,1953 4509,1887 4421,1818 4334,1745 4246,1668 4158,1588 4070,1505 3981,1419 3891,1329 3801,1237 3711,1140 3621,1040 3530,936 3440,828" style="fill:none;stroke:#FF0000;stroke-width:5"></polyline><polyline points="6500,2700 6449,2698 6398,2693 6345,2685 6291,2675 6236,2664 6180,2652 6123,2639 6065,2627 6006,2614 5946,2602 5885,2589 5823,2576 5762,2563 5699,2550 5636,2537 5573,2523 5509,2509 5446,2494 5384,2479 5322,2464 5261,2449 5201,2435 5142,2420 5083,2406 5025,2391 4968,2376 4912,2361 4856,2347 4799,2333 4742,2319 4683,2305 4623,2291 4560,2277 4497,2261 4432,2246 4367,2230 4303,2213 4239,2195 4176,2176 4113,2154 4051,2129 3989,2101 3927,2070 3865,2035 3804,1998 3744,1957 3685,1913 3628,1866 3574,1815 3522,1760 3472,1702 3423,1640 3374,1575 3325,1505 3276,1432 3227,1356 3178,1275 3130,1191 3081,1103 3032,1012 2983,917 2934,818 2885,715 2837,609 2788,499 2741,385" style="fill:none;stroke:#FF0000;stroke-width:5"></polyline><circle cx="6500" cy="2700" r="20" style="fill:blue"></circle><text x="0" y="0" font-size="16em" transform="scale(1,-1)">G0 C100 200</text></svg>
